<svg width="24" height="24" viewBox="0 0 24 24" fill="none" xmlns="http://www.w3.org/2000/svg">
<g clip-path="url(#clip0_2_2207)">
<path d="M22.8991 21.813H1.09071C0.801435 21.813 0.524011 21.9279 0.319465 22.1324C0.114919 22.337 6.68195e-06 22.6144 6.68195e-06 22.9037C6.68195e-06 23.1929 0.114919 23.4704 0.319465 23.6749C0.524011 23.8795 0.801435 23.9944 1.09071 23.9944H22.8986C23.1879 23.9944 23.4653 23.8796 23.6699 23.6751C23.8745 23.4706 23.9895 23.1932 23.9895 22.9039C23.9896 22.6147 23.8748 22.3372 23.6703 22.1326C23.4658 21.928 23.1884 21.813 22.8991 21.813ZM2.45357 18.9775C2.16423 18.9775 1.88674 19.0924 1.68215 19.297C1.47756 19.5016 1.36262 19.7791 1.36262 20.0684C1.36262 20.3578 1.47756 20.6352 1.68215 20.8398C1.88674 21.0444 2.16423 21.1594 2.45357 21.1594H21.5357C21.8251 21.1594 22.1025 21.0444 22.3071 20.8398C22.5117 20.6352 22.6267 20.3578 22.6267 20.0684C22.6267 19.7791 22.5117 19.5016 22.3071 19.297C22.1025 19.0924 21.8251 18.9775 21.5357 18.9775H21.2636V9.1632H21.5357C21.6802 9.1632 21.8188 9.1058 21.921 9.00362C22.0232 8.90144 22.0806 8.76286 22.0806 8.61836C22.0806 8.47386 22.0232 8.33528 21.921 8.2331C21.8188 8.13092 21.6802 8.07352 21.5357 8.07352H2.45357C2.30907 8.07352 2.17049 8.13092 2.06831 8.2331C1.96613 8.33528 1.90873 8.47386 1.90873 8.61836C1.90873 8.76286 1.96613 8.90144 2.06831 9.00362C2.17049 9.1058 2.30907 9.1632 2.45357 9.1632H2.72625V18.9769L2.45357 18.9775ZM19.0822 9.1632V18.9769H15.8111V9.1632H19.0822ZM13.6297 9.1632V18.9769H10.3586V9.1632H13.6297ZM4.90663 9.1632H8.17771V18.9769H4.90663V9.1632ZM1.09071 7.09312H22.9093C23.168 7.09405 23.4187 7.00293 23.6164 6.83605C23.8141 6.66917 23.946 6.43741 23.9886 6.1822C24.0311 5.92699 23.9815 5.66497 23.8486 5.44298C23.7157 5.22099 23.5082 5.05349 23.2632 4.97044L12.443 0.101606C12.3023 0.0384899 12.1499 0.00585937 11.9957 0.00585938C11.8415 0.00585937 11.689 0.0384899 11.5484 0.101606L0.643397 5.00822C0.415651 5.11038 0.229858 5.2876 0.117059 5.51027C0.00425971 5.73293 -0.0287136 5.98757 0.023648 6.23162C0.0760095 6.47568 0.210534 6.69437 0.404747 6.85117C0.59896 7.00797 0.841098 7.09337 1.09071 7.09312Z" fill="#E50E78"/>
</g>
<defs>
<clipPath id="clip0_2_2207">
<rect width="24" height="24" fill="white"/>
</clipPath>
</defs>
</svg>
