<svg width="24" height="24" viewBox="0 0 24 24" fill="none" xmlns="http://www.w3.org/2000/svg">
<g clip-path="url(#clip0_2_2195)">
<path d="M24 7.64062V6.375C24 4.92525 22.8248 3.75 21.375 3.75H2.625C1.17525 3.75 0 4.92525 0 6.375V7.64062C0 7.70279 0.024693 7.7624 0.0686468 7.80635C0.112601 7.85031 0.172215 7.875 0.234375 7.875H23.7656C23.8278 7.875 23.8874 7.85031 23.9314 7.80635C23.9753 7.7624 24 7.70279 24 7.64062ZM0 9.60938V17.625C0 19.0747 1.17525 20.25 2.625 20.25H21.375C22.8248 20.25 24 19.0747 24 17.625V9.60938C24 9.54721 23.9753 9.4876 23.9314 9.44365C23.8874 9.39969 23.8278 9.375 23.7656 9.375H0.234375C0.172215 9.375 0.112601 9.39969 0.0686468 9.44365C0.024693 9.4876 0 9.54721 0 9.60938ZM6 15.75C6 16.1642 5.66419 16.5 5.25 16.5H4.5C4.08581 16.5 3.75 16.1642 3.75 15.75V15C3.75 14.5858 4.08581 14.25 4.5 14.25H5.25C5.66419 14.25 6 14.5858 6 15V15.75Z" fill="#E50E78"/>
</g>
<defs>
<clipPath id="clip0_2_2195">
<rect width="24" height="24" fill="white"/>
</clipPath>
</defs>
</svg>
