<svg width="24" height="24" viewBox="0 0 24 24" fill="none" xmlns="http://www.w3.org/2000/svg">
<g clip-path="url(#clip0_2_2191)">
<path d="M22.3634 19.6364H18.5453C16.1393 19.6364 14.1817 17.6789 14.1817 15.2728C14.1817 12.8668 16.1393 10.9093 18.5453 10.9093H22.3634C22.4351 10.9093 22.506 10.8953 22.5722 10.8679C22.6384 10.8405 22.6986 10.8003 22.7492 10.7496C22.7999 10.699 22.8401 10.6388 22.8675 10.5726C22.8949 10.5064 22.9089 10.4355 22.9089 10.3638V8.7275C22.9089 7.5837 22.0217 6.6535 20.9007 6.56329L17.7682 1.09179C17.4779 0.585754 17.0091 0.224073 16.4482 0.0738875C15.89 -0.0752748 15.3062 0.00306481 14.8066 0.293873L4.06795 6.5457H2.18192C0.978652 6.5457 0.00012207 7.52418 0.00012207 8.7275V21.8182C0.00012207 23.0215 0.9786 24 2.18192 24H20.7271C21.9304 24 22.9089 23.0215 22.9089 21.8182V20.1819C22.9089 20.1102 22.8949 20.0393 22.8675 19.9731C22.8401 19.9069 22.7999 19.8467 22.7492 19.7961C22.6986 19.7454 22.6384 19.7052 22.5722 19.6778C22.506 19.6504 22.4351 19.6363 22.3634 19.6364ZM18.4447 4.4698L19.6331 6.5457H14.879L18.4447 4.4698ZM6.2361 6.5457L15.3557 1.23666C15.6023 1.0923 15.8905 1.05395 16.1659 1.12748C16.4445 1.20204 16.6767 1.38209 16.8211 1.63403L16.8222 1.63603L8.38947 6.5457H6.2361Z" fill="#E50E78"/>
<path d="M22.3634 12.0002H18.5453C16.7406 12.0002 15.2726 13.4682 15.2726 15.2729C15.2726 17.0776 16.7406 18.5456 18.5453 18.5456H22.3634C23.2657 18.5456 23.9997 17.8116 23.9997 16.9093V13.6366C23.9997 12.7342 23.2657 12.0002 22.3634 12.0002ZM18.5453 16.3638C17.9439 16.3638 17.4544 15.8743 17.4544 15.2729C17.4544 14.6716 17.9439 14.182 18.5453 14.182C19.1466 14.182 19.6361 14.6716 19.6361 15.2729C19.6362 15.8743 19.1467 16.3638 18.5453 16.3638Z" fill="#E50E78"/>
</g>
<defs>
<clipPath id="clip0_2_2191">
<rect width="24" height="24" fill="white"/>
</clipPath>
</defs>
</svg>
