<svg width="24" height="24" viewBox="0 0 24 24" fill="none" xmlns="http://www.w3.org/2000/svg">
<path d="M11.7603 8.91583C13.2903 8.91583 14.5307 7.67548 14.5307 6.14542C14.5307 4.61536 13.2903 3.375 11.7603 3.375C10.2302 3.375 8.98987 4.61536 8.98987 6.14542C8.98987 7.67548 10.2302 8.91583 11.7603 8.91583Z" fill="#3B3C40"/>
<path d="M7.80257 15.9448L6.4138 17.2833C6.36731 17.3282 6.33251 17.3837 6.31244 17.4451C6.29236 17.5065 6.28762 17.5719 6.29863 17.6356L6.62712 19.5424C6.63387 19.5791 6.63009 19.617 6.61623 19.6517C6.60236 19.6863 6.57897 19.7164 6.54875 19.7383C6.51854 19.7603 6.48274 19.7732 6.44548 19.7756C6.40822 19.7781 6.37103 19.7699 6.3382 19.7522L4.61263 18.8498C4.55621 18.8212 4.49384 18.8063 4.43057 18.8063C4.36731 18.8063 4.30494 18.8212 4.24852 18.8498L2.52294 19.7522C2.49012 19.7699 2.45293 19.7781 2.41567 19.7756C2.37841 19.7732 2.34261 19.7603 2.31239 19.7383C2.28218 19.7164 2.25879 19.6863 2.24492 19.6517C2.23105 19.617 2.22728 19.5791 2.23403 19.5424L2.56648 17.6387C2.58666 17.5089 2.54273 17.3775 2.44775 17.2865L1.05858 15.9448C1.0326 15.9191 1.01427 15.8866 1.00562 15.8511C0.996964 15.8155 0.99833 15.7783 1.00956 15.7435C1.0208 15.7087 1.04146 15.6777 1.06926 15.6539C1.09705 15.6301 1.13089 15.6145 1.16702 15.6088L3.09286 15.3318C3.15601 15.323 3.21607 15.299 3.2678 15.2617C3.31954 15.2245 3.36138 15.1752 3.38969 15.118L4.25248 13.3885C4.26868 13.3551 4.29398 13.3268 4.32548 13.3071C4.35698 13.2874 4.3934 13.2769 4.43057 13.2769C4.46775 13.2769 4.50417 13.2874 4.53567 13.3071C4.56717 13.3268 4.59247 13.3551 4.60867 13.3885L5.47146 15.118C5.49977 15.1752 5.54161 15.2245 5.59335 15.2617C5.64508 15.299 5.70514 15.323 5.76829 15.3318L7.69412 15.6088C7.73025 15.6145 7.7641 15.6301 7.79189 15.6539C7.81969 15.6777 7.84035 15.7087 7.85158 15.7435C7.86282 15.7783 7.86419 15.8155 7.85553 15.8511C7.84688 15.8866 7.82855 15.9191 7.80257 15.9448ZM5.42792 7.33278C5.42792 8.87946 5.99586 10.3723 7.02408 11.528C7.07526 10.886 7.2901 10.2678 7.64809 9.73245C8.00608 9.19709 8.4953 8.76239 9.06904 8.46984C8.62215 7.95369 8.333 7.31999 8.23603 6.64418C8.13907 5.96838 8.23836 5.27894 8.52209 4.65796C8.80583 4.03699 9.26205 3.51063 9.83643 3.14158C10.4108 2.77252 11.0792 2.57631 11.7619 2.57631C12.4446 2.57631 13.113 2.77252 13.6873 3.14158C14.2617 3.51063 14.7179 4.03699 15.0017 4.65796C15.2854 5.27894 15.3847 5.96838 15.2877 6.64418C15.1908 7.31999 14.9016 7.95369 14.4547 8.46984C15.0279 8.76281 15.5165 9.19768 15.874 9.73301C16.2315 10.2683 16.4459 10.8863 16.4969 11.528C17.1766 10.7608 17.6597 9.83998 17.9049 8.84479C18.1501 7.8496 18.15 6.80975 17.9046 5.81461C17.6592 4.81948 17.1758 3.89881 16.496 3.13174C15.8162 2.36467 14.9603 1.77414 14.0018 1.41089C13.0434 1.04765 12.0111 0.922548 10.9937 1.04635C9.97623 1.17016 9.00406 1.53916 8.16071 2.12165C7.31736 2.70413 6.62806 3.48269 6.15205 4.3904C5.67603 5.29811 5.42754 6.30783 5.42792 7.33278Z" fill="#3B3C40"/>
<path d="M11.7602 13.6653C13.1999 13.6658 14.5965 13.1738 15.718 12.271V11.8408C15.7188 11.2377 15.5365 10.6486 15.1952 10.1514C14.854 9.65419 14.3698 9.27227 13.8068 9.05615C13.2085 9.48 12.4934 9.70764 11.7602 9.70764C11.0271 9.70764 10.312 9.48 9.7137 9.05615C9.15068 9.27227 8.66653 9.65419 8.32527 10.1514C7.98401 10.6486 7.80172 11.2377 7.80251 11.8408V12.2694C8.92403 13.1723 10.3204 13.6649 11.7602 13.6653ZM16.2234 17.9211C16.2498 17.8953 16.2686 17.8627 16.2774 17.8268C16.2863 17.791 16.2849 17.7533 16.2735 17.7182C16.2621 17.6831 16.2411 17.6518 16.2129 17.628C16.1846 17.6042 16.1503 17.5888 16.1138 17.5835L13.4363 17.1988C13.373 17.1897 13.3127 17.1654 13.2608 17.1279C13.2089 17.0904 13.1669 17.0408 13.1383 16.9835L11.9395 14.5756C11.9231 14.5427 11.8979 14.515 11.8666 14.4956C11.8353 14.4763 11.7992 14.466 11.7624 14.466C11.7256 14.466 11.6896 14.4763 11.6583 14.4956C11.627 14.515 11.6017 14.5427 11.5853 14.5756L10.381 16.9851C10.3524 17.0422 10.3103 17.0916 10.2585 17.1289C10.2067 17.1663 10.1466 17.1905 10.0834 17.1996L7.41188 17.5839C7.3752 17.5891 7.34073 17.6046 7.3124 17.6285C7.28407 17.6524 7.26302 17.6837 7.25163 17.719C7.24025 17.7542 7.239 17.792 7.24802 17.8279C7.25703 17.8639 7.27596 17.8966 7.30265 17.9223L9.23323 19.7824C9.27972 19.8273 9.31452 19.8828 9.33459 19.9442C9.35467 20.0056 9.35941 20.071 9.3484 20.1347L8.89168 22.7681C8.88531 22.8045 8.88923 22.8419 8.903 22.8761C8.91677 22.9104 8.93984 22.9401 8.9696 22.9619C8.99936 22.9837 9.03463 22.9968 9.07143 22.9996C9.10822 23.0024 9.14508 22.9949 9.17782 22.9779L11.581 21.7288C11.6373 21.6996 11.6999 21.6843 11.7634 21.6843C11.8269 21.6843 11.8895 21.6996 11.9459 21.7288L14.3486 22.9779C14.3814 22.9949 14.4182 23.0024 14.455 22.9996C14.4918 22.9968 14.5271 22.9837 14.5568 22.9619C14.5866 22.9401 14.6097 22.9104 14.6234 22.8761C14.6372 22.8419 14.6411 22.8045 14.6348 22.7681L14.178 20.1315C14.167 20.0678 14.1718 20.0025 14.1918 19.9411C14.2119 19.8797 14.2467 19.8241 14.2932 19.7792L16.2234 17.9211ZM12.1164 17.0555L11.4278 18.4324C11.3992 18.4896 11.3572 18.5389 11.3053 18.5763C11.2535 18.6136 11.1934 18.6379 11.1302 18.6469L9.64167 18.8611C9.58971 18.8697 9.53655 18.8678 9.4853 18.8557C9.43406 18.8435 9.38576 18.8212 9.34324 18.7901C9.30072 18.759 9.26484 18.7197 9.23769 18.6746C9.21054 18.6295 9.19268 18.5794 9.18515 18.5272C9.17761 18.4751 9.18056 18.422 9.19382 18.371C9.20707 18.32 9.23037 18.2722 9.26235 18.2304C9.29433 18.1885 9.33434 18.1535 9.38003 18.1273C9.42573 18.1011 9.4762 18.0843 9.52848 18.0778L10.8128 17.893L11.4064 16.7013C11.4291 16.6536 11.4611 16.611 11.5005 16.5758C11.5399 16.5406 11.5859 16.5137 11.6359 16.4966C11.6858 16.4794 11.7387 16.4724 11.7914 16.476C11.8441 16.4796 11.8955 16.4937 11.9427 16.5174C11.9899 16.5411 12.0318 16.574 12.0661 16.6142C12.1004 16.6543 12.1263 16.7009 12.1424 16.7512C12.1584 16.8015 12.1642 16.8545 12.1595 16.9071C12.1548 16.9597 12.1396 17.0109 12.1149 17.0575L12.1164 17.0555Z" fill="#3B3C40"/>
<path d="M15.7022 15.9453L17.091 17.2838C17.1375 17.3287 17.1723 17.3842 17.1923 17.4456C17.2124 17.507 17.2172 17.5724 17.2062 17.6361L16.8777 19.5429C16.8709 19.5796 16.8747 19.6175 16.8886 19.6522C16.9024 19.6869 16.9258 19.7169 16.956 19.7388C16.9862 19.7608 17.0221 19.7737 17.0593 19.7762C17.0966 19.7786 17.1338 19.7705 17.1666 19.7527L18.8922 18.8503C19.0069 18.7921 19.1415 18.7921 19.2563 18.8503L20.9818 19.7527C21.0147 19.7705 21.0519 19.7786 21.0891 19.7762C21.1264 19.7737 21.1622 19.7608 21.1924 19.7388C21.2226 19.7169 21.246 19.6869 21.2599 19.6522C21.2737 19.6175 21.2775 19.5796 21.2708 19.5429L20.9383 17.6392C20.9181 17.5094 20.9621 17.378 21.057 17.287L22.4462 15.9453C22.4722 15.9196 22.4905 15.8871 22.4992 15.8516C22.5078 15.8161 22.5065 15.7788 22.4952 15.744C22.484 15.7092 22.4633 15.6782 22.4355 15.6544C22.4077 15.6306 22.3739 15.615 22.3378 15.6093L20.4119 15.3323C20.3488 15.3236 20.2887 15.2995 20.237 15.2623C20.1852 15.225 20.1434 15.1757 20.1151 15.1186L19.2523 13.3882C19.2361 13.3548 19.2108 13.3266 19.1793 13.3068C19.1478 13.2871 19.1114 13.2766 19.0742 13.2766C19.037 13.2766 19.0006 13.2871 18.9691 13.3068C18.9376 13.3266 18.9123 13.3548 18.8961 13.3882L18.0333 15.1178C18.005 15.1749 17.9632 15.2242 17.9114 15.2615C17.8597 15.2987 17.7996 15.3228 17.7365 15.3315L15.8107 15.6085C15.7744 15.6141 15.7404 15.6297 15.7124 15.6535C15.6845 15.6774 15.6637 15.7085 15.6525 15.7435C15.6412 15.7784 15.6399 15.8158 15.6487 15.8515C15.6575 15.8871 15.676 15.9196 15.7022 15.9453Z" fill="#3B3C40"/>
</svg>
