<svg width="24" height="24" viewBox="0 0 24 24" fill="none" xmlns="http://www.w3.org/2000/svg">
<path d="M12 1.99976C17.523 1.99976 22 6.47676 22 11.9998C22 17.5228 17.523 21.9998 12 21.9998C6.477 21.9998 2 17.5228 2 11.9998C2 6.47676 6.477 1.99976 12 1.99976ZM12 5.99976C11.7348 5.99976 11.4804 6.10511 11.2929 6.29265C11.1054 6.48019 11 6.73454 11 6.99975V11.9998C11.0001 12.2649 11.1054 12.5193 11.293 12.7068L14.293 15.7068C14.4816 15.8889 14.7342 15.9897 14.9964 15.9874C15.2586 15.9851 15.5094 15.88 15.6948 15.6946C15.8802 15.5092 15.9854 15.2584 15.9877 14.9962C15.9899 14.734 15.8892 14.4814 15.707 14.2928L13 11.5858V6.99975C13 6.73454 12.8946 6.48019 12.7071 6.29265C12.5196 6.10511 12.2652 5.99976 12 5.99976Z" fill="#3B3C40"/>
</svg>
