<svg width="24" height="24" viewBox="0 0 24 24" fill="none" xmlns="http://www.w3.org/2000/svg">
<path d="M12.3416 18.6082C12.3418 17.4835 12.6697 16.3832 13.2854 15.4419C13.901 14.5006 14.7777 13.7592 15.8081 13.3083C16.8385 12.8574 17.978 12.7167 19.0872 12.9032C20.1964 13.0898 21.2271 13.5956 22.0533 14.3588C22.0806 12.3817 22.0642 10.4045 22.0041 8.42738C21.9713 7.069 21.2043 5.70529 19.9193 5.03144C19.259 4.68241 18.5749 4.34651 17.883 4.02824C15.149 4.9125 11.9471 6.07893 8.71765 7.52303C8.40716 7.66027 8.14116 7.88151 7.94964 8.1618C7.75811 8.44209 7.64868 8.7703 7.63366 9.10944C7.58321 10.668 7.56763 12.2765 7.58813 13.867C7.58978 13.9137 7.57644 13.9596 7.55005 13.9981C7.52366 14.0366 7.48562 14.0657 7.44151 14.0809C7.39741 14.0962 7.34957 14.097 7.30502 14.083C7.26047 14.0691 7.22155 14.0413 7.19399 14.0036C6.85221 13.5661 6.51835 13.1336 6.19243 12.7059C6.16837 12.6725 6.13262 12.6494 6.09227 12.6411C6.05192 12.6328 6.00993 12.64 5.97465 12.6612C5.72118 12.8122 5.47223 12.961 5.22779 13.1079C5.0908 13.1899 4.92223 13.0804 4.92141 12.9118C4.91321 11.3275 4.95258 9.739 5.03748 8.19934C5.07316 7.5501 5.48043 6.93858 6.08292 6.64082C9.18029 5.111 12.4848 3.86131 15.3045 2.93645C14.6482 2.6797 13.9957 2.44429 13.3588 2.22117C12.4999 1.92628 11.5673 1.92628 10.7085 2.22117C8.58313 2.9545 6.26216 3.91176 4.14748 5.03144C2.86293 5.70529 2.09679 7.069 2.06275 8.42738C1.97908 11.1425 1.97908 13.8576 2.06275 16.5727C2.09556 17.9311 2.86293 19.2948 4.14748 19.9687C6.26216 21.0883 8.58313 22.0456 10.7097 22.7785C11.5685 23.0734 12.5012 23.0734 13.36 22.7785C13.5457 22.7145 13.7331 22.6485 13.9223 22.5804C12.904 21.509 12.3379 20.0863 12.3416 18.6082Z" fill="#3B3C40"/>
<path d="M18.1274 14.2173C17.2589 14.2174 16.4099 14.475 15.6878 14.9576C14.9656 15.4402 14.4029 16.1261 14.0706 16.9285C13.7383 17.731 13.6514 18.6139 13.8209 19.4657C13.9904 20.3176 14.4087 21.1 15.0229 21.7141C15.6371 22.3282 16.4196 22.7463 17.2715 22.9157C18.1233 23.085 19.0063 22.998 19.8087 22.6656C20.6111 22.3331 21.2968 21.7702 21.7793 21.048C22.2618 20.3258 22.5192 19.4768 22.5191 18.6082C22.5191 18.0315 22.4055 17.4605 22.1847 16.9278C21.964 16.395 21.6405 15.9109 21.2327 15.5032C20.8248 15.0955 20.3407 14.772 19.8079 14.5514C19.2751 14.3308 18.7041 14.2172 18.1274 14.2173ZM20.6321 17.8815L17.9925 20.6532C17.9206 20.7287 17.8343 20.789 17.7385 20.8303C17.6428 20.8716 17.5397 20.8931 17.4355 20.8935H17.4318C17.3282 20.8935 17.2256 20.8726 17.1301 20.8323C17.0347 20.7919 16.9483 20.7328 16.8761 20.6585L15.4754 19.2156C15.3324 19.0682 15.2538 18.8701 15.2568 18.6647C15.2599 18.4593 15.3445 18.2636 15.4918 18.1206C15.6392 17.9775 15.8374 17.8989 16.0428 17.902C16.2481 17.9051 16.4439 17.9896 16.5869 18.137L17.4273 19.002L19.5112 16.8135C19.6545 16.6731 19.8467 16.5937 20.0473 16.5922C20.2479 16.5907 20.4412 16.6671 20.5866 16.8053C20.732 16.9436 20.8181 17.1328 20.8268 17.3332C20.8354 17.5337 20.7659 17.7296 20.6329 17.8798L20.6321 17.8815Z" fill="#3B3C40"/>
</svg>
