<svg width="24" height="24" viewBox="0 0 24 24" fill="none" xmlns="http://www.w3.org/2000/svg">
<path d="M5.8457 23H18.1504C19.1682 23 19.9961 22.1721 19.9961 21.1543V8.15234H15.6895C14.6717 8.15234 13.8438 7.3244 13.8438 6.30664V2H5.8457C4.82794 2 4 2.82794 4 3.8457V21.1543C4 22.1721 4.82794 23 5.8457 23ZM8.30664 10.6543H15.6895C16.0295 10.6543 16.3047 10.9295 16.3047 11.2695C16.3047 11.6096 16.0295 11.8848 15.6895 11.8848H8.30664C7.96658 11.8848 7.69141 11.6096 7.69141 11.2695C7.69141 10.9295 7.96658 10.6543 8.30664 10.6543ZM8.30664 13.1152H15.6895C16.0295 13.1152 16.3047 13.3904 16.3047 13.7305C16.3047 14.0705 16.0295 14.3457 15.6895 14.3457H8.30664C7.96658 14.3457 7.69141 14.0705 7.69141 13.7305C7.69141 13.3904 7.96658 13.1152 8.30664 13.1152ZM8.30664 15.5762H15.6895C16.0295 15.5762 16.3047 15.8513 16.3047 16.1914C16.3047 16.5315 16.0295 16.8066 15.6895 16.8066H8.30664C7.96658 16.8066 7.69141 16.5315 7.69141 16.1914C7.69141 15.8513 7.96658 15.5762 8.30664 15.5762ZM8.30664 18.0371H13.2285C13.5686 18.0371 13.8438 18.3123 13.8438 18.6523C13.8438 18.9924 13.5686 19.2676 13.2285 19.2676H8.30664C7.96658 19.2676 7.69141 18.9924 7.69141 18.6523C7.69141 18.3123 7.96658 18.0371 8.30664 18.0371Z" fill="#3B3C40"/>
<path d="M15.6895 6.92198H19.6356L15.0742 2.3606V6.30675C15.0742 6.6462 15.35 6.92198 15.6895 6.92198Z" fill="#3B3C40"/>
</svg>
