<svg width="24" height="24" viewBox="0 0 24 24" fill="none" xmlns="http://www.w3.org/2000/svg">
<path d="M20 8.59994L11.62 16.9799C11.33 17.2699 10.95 17.4499 10.54 17.4899L7.61 17.7599H7.5C7.17 17.7599 6.85 17.6299 6.62 17.3899C6.36 17.1299 6.23 16.7599 6.26 16.3899L6.53 13.4599C6.57 13.0499 6.75 12.6699 7.04 12.3799L15.4 3.99994L20 8.59994ZM21.94 2.76994L21.23 2.05994C20.7132 1.54589 20.0139 1.25732 19.285 1.25732C18.5561 1.25732 17.8568 1.54589 17.34 2.05994L16.46 2.93994L21.06 7.53994L21.94 6.65994C22.1962 6.40595 22.3995 6.10376 22.5382 5.77078C22.677 5.43781 22.7484 5.08066 22.7484 4.71994C22.7484 4.35921 22.677 4.00206 22.5382 3.66909C22.3995 3.33612 22.1962 3.03392 21.94 2.77994V2.76994ZM20.75 19.0099V13.1999C20.75 12.7899 20.41 12.4499 20 12.4499C19.59 12.4499 19.25 12.7899 19.25 13.1999V19.0099C19.25 20.2499 18.24 21.2599 17 21.2599H5C3.76 21.2599 2.75 20.2499 2.75 19.0099V6.99994C2.75 5.75994 3.76 4.74994 5 4.74994H10.81C11.22 4.74994 11.56 4.40994 11.56 3.99994C11.56 3.58994 11.22 3.24994 10.81 3.24994H5C2.93 3.24994 1.25 4.92994 1.25 6.99994V18.9999C1.25 21.0699 2.93 22.7499 5 22.7499H17C19.07 22.7499 20.75 21.0699 20.75 18.9999V19.0099Z" fill="#E50E78"/>
</svg>
