<svg width="24" height="24" viewBox="0 0 24 24" fill="none" xmlns="http://www.w3.org/2000/svg">
<path fill-rule="evenodd" clip-rule="evenodd" d="M3.85714 4C3.38376 4 3 4.37052 3 4.82759V7.31034C3 7.54871 3.10645 7.7755 3.29209 7.93264L8.17924 12.0695C8.61954 12.4422 8.87747 12.9869 8.88681 13.5637L9.0001 20.5647C9.00471 20.8491 9.16035 21.1114 9.41223 21.2591C9.6641 21.4068 9.97689 21.4192 10.2405 21.2919L13.669 19.6368C13.9594 19.4966 14.1429 19.21 14.1429 18.8966V13.5974C14.1429 13.0015 14.4086 12.4366 14.8677 12.0566L19.8435 7.93869C20.0335 7.78147 20.1429 7.55194 20.1429 7.31034V4.82759C20.1429 4.37052 19.7591 4 19.2857 4H3.85714Z" fill="#3B3C40"/>
</svg>
