<svg width="63" height="61" viewBox="0 0 63 61" fill="none" xmlns="http://www.w3.org/2000/svg">
<path fill-rule="evenodd" clip-rule="evenodd" d="M1.01986 3.83922L1.9083 2.30172L3.33643 1.27609L4.60205 0.699219L59.3321 0.844219L60.8239 1.66922L62.4108 3.03359L62.6461 57.8448L61.6524 58.9239L59.6658 59.8442L4.15299 60.0767L2.23018 59.1473L0.852051 57.4811L1.01986 3.83922ZM3.97299 48.4842L59.6114 48.4467L59.7692 3.95203L4.17236 3.78203L3.97299 48.4842ZM15.6317 56.4442L23.0227 56.5098L23.0571 55.4573L16.898 55.4011L16.9592 54.2548L23.0074 54.2798L23.0564 53.4864L17.0011 53.4364C17.0011 53.4364 16.9864 52.1727 17.0024 52.0208C17.0183 51.8689 23.063 52.1726 23.063 52.1726L23.0474 51.3789L15.6936 51.4083L15.6317 56.4442ZM50.3192 56.1317L57.7102 56.1973L57.7446 55.1448L51.5855 55.0886L51.6467 53.9423L57.6949 53.9673L57.7439 53.1739L51.6886 53.1239C51.6886 53.1239 51.6739 51.8602 51.6899 51.7083C51.7058 51.5564 57.7505 51.8601 57.7505 51.8601L57.7349 51.0664L50.3811 51.0958L50.3192 56.1317ZM25.4199 51.4339L25.3814 56.3295L35.1021 56.3748L35.1089 51.4542L33.2796 51.4292L33.3324 55.1317L30.8946 55.177L30.8452 51.4645L29.1889 51.408L29.2252 55.2236L26.8492 55.1502L26.7827 51.4189L25.4199 51.4339ZM37.4896 51.4058L37.3733 56.4636L38.7346 56.442C38.7346 56.442 38.6877 51.492 38.648 51.413C38.6083 51.3336 37.4896 51.4061 37.4896 51.4061V51.4058ZM6.04361 51.4514L6.0008 56.468L7.40518 56.4355L7.40236 54.4651L10.4767 54.5048L11.6786 56.1902L13.6317 56.2051L12.0721 54.5298L13.4002 53.613L13.338 51.2602L6.04361 51.4514ZM41.0436 51.4514L41.0008 56.468L42.4052 56.4355L42.4024 54.4651L45.4767 54.5048L46.6786 56.1902L48.6317 56.2051L47.072 54.5298L48.4002 53.613L48.338 51.2602L41.0436 51.4514Z" fill="#E50E78"/>
<path fill-rule="evenodd" clip-rule="evenodd" d="M7.48012 35.9263L14.3992 35.8279L19.0329 34.93L23.4129 33.1675L25.2204 32.1104L27.3595 33.5297L29.962 34.7991L26.3998 36.9575L22.9398 38.7032L19.8961 39.7822L16.302 40.3188L7.4873 40.4813L7.48012 35.9263ZM7.36105 28.3919L11.2595 28.4216L13.5448 27.8772L15.8298 26.8838L18.7017 28.305L21.6536 29.7332L18.0923 31.7322L14.3754 32.5891L11.2673 33.0332L7.19824 33.0957L7.36105 28.3919Z" fill="#E50E78"/>
<path fill-rule="evenodd" clip-rule="evenodd" d="M7.43457 23.4654L11.9733 23.7179L16.2264 25.1779L20.4793 27.1142L24.1918 28.8867L28.0002 31.4895L31.6502 33.9013L35.0139 36.1201L39.4711 38.0942L43.978 39.967L46.3583 40.3795L56.358 40.3773L56.3705 35.6351L48.3402 35.8882L43.4396 34.4467L38.2189 32.1723L34.1199 29.2904L29.7368 26.376L25.2439 23.926L20.9546 21.5554L16.3499 19.4735L12.723 18.6392L7.50269 18.6976L7.43457 23.4654Z" fill="#E50E78"/>
<path fill-rule="evenodd" clip-rule="evenodd" d="M7.5083 16.0757L14.2299 16.0917L17.9114 16.8217L21.8152 18.4404L25.4017 20.2811L29.9721 23.0107L33.6536 25.6132L38.4461 28.5648L42.6674 30.6914L47.0155 32.4051L50.253 33.0079L56.7405 33.0379L56.7377 28.3295L51.1967 28.5517L46.0402 26.7898L41.1074 23.9701L35.5355 20.7661L30.4127 17.402L25.6086 14.6142L21.0717 12.5164L18.0314 11.6832L16.6055 11.3936L7.5383 11.5932L7.5083 16.0757Z" fill="#E50E78"/>
<path fill-rule="evenodd" clip-rule="evenodd" d="M56.7537 23.2224L56.8265 18.1762L51.1256 18.2362L48.4668 18.744L44.9743 19.7915L42.2509 21.1246L41.2256 21.6959L44.0781 23.1184L46.9343 24.6737L50.0762 23.7762L52.4884 23.3278L56.7537 23.2224ZM56.3915 15.9093L56.5421 10.9556L50.3271 10.9859L45.8753 11.0156L41.774 12.1265L37.4499 14.1259L34.1187 16.5678L34.1431 17.1953L36.2378 18.4331L38.5228 20.0199L41.5696 18.2899L45.029 17.1043L49.409 16.1406L56.3915 15.9093ZM7.67494 52.5009L7.64307 53.6118L11.3753 53.6406L11.534 52.4871L7.67494 52.5009ZM42.6749 52.5009L42.6431 53.6118L46.3753 53.6406L46.534 52.4871L42.6749 52.5009Z" fill="#E50E78"/>
</svg>
