<svg width="24" height="24" viewBox="0 0 24 24" fill="none" xmlns="http://www.w3.org/2000/svg">
<path d="M9.25027 12.9166C9.75717 12.9166 10.1669 13.3274 10.1669 13.8332V17.5C10.1669 18.0051 10.5776 18.4166 11.0837 18.4166H13.8337V4.66665C13.8337 3.8838 14.3323 3.1844 15.0821 2.92405L15.3535 2.83326H11.0837C10.5776 2.83326 10.1669 3.24481 10.1669 3.75004V6.50003C10.1669 7.0059 9.75717 7.41664 9.25027 7.41664C8.74337 7.41664 8.33366 7.0059 8.33366 6.50003V3.75004C8.33366 2.23389 9.56751 1.00004 11.0837 1.00004H20.9377C20.9726 1.00004 21.0019 1.01564 21.0358 1.0202C21.0799 1.0165 21.122 1 21.1669 1C22.178 1.00004 23.0002 1.82221 23.0002 2.8333V19.3333C23.0002 20.1161 22.5016 20.8155 21.7518 21.0759L16.2353 22.9147C16.0483 22.9725 15.8623 23 15.6669 23C14.6558 23 13.8337 22.1777 13.8337 21.1666V20.25H11.0837C9.56755 20.25 8.33371 19.0162 8.33371 17.5V13.8332C8.33371 13.3274 8.74341 12.9166 9.25031 12.9166H9.25027Z" fill="#3B3C40"/>
<path d="M1.2688 9.51864L4.93558 5.85204C5.06373 5.72375 5.22705 5.63636 5.40488 5.60092C5.58271 5.56549 5.76706 5.5836 5.9346 5.65296C6.2765 5.79515 6.50024 6.12966 6.50024 6.50009V9.25008H10.1668C10.6729 9.25008 11.0836 9.66065 11.0836 10.1667C11.0836 10.6727 10.6729 11.0833 10.1668 11.0833H6.50024V13.8333C6.50024 14.2037 6.2765 14.5382 5.9346 14.6804C5.76707 14.7498 5.58274 14.7679 5.40491 14.7325C5.22709 14.6971 5.06376 14.6097 4.93558 14.4815L1.2688 10.8147C0.910442 10.4564 0.910442 9.877 1.2688 9.51864Z" fill="#3B3C40"/>
</svg>
