<svg width="24" height="24" viewBox="0 0 24 24" fill="none" xmlns="http://www.w3.org/2000/svg">
<path d="M12.5 12.9089C15.3619 12.9089 17.6819 10.4669 17.6819 7.45447C17.6819 4.44205 15.3619 2 12.5 2C9.63821 2 7.31824 4.44205 7.31824 7.45447C7.31824 10.4669 9.63821 12.9089 12.5 12.9089Z" fill="#3B3C40"/>
<path d="M19.8746 15.8683C19.0582 15.4275 17.7577 14.8092 16.2025 14.3675C15.9866 14.3036 15.7589 14.4301 15.6838 14.6529L13.9138 19.8506L13.378 17.0295L14.2053 14.4167C14.227 14.3483 14.2329 14.2755 14.2225 14.2042C14.2121 14.133 14.1857 14.0654 14.1455 14.007C14.1056 13.9486 14.053 13.901 13.9921 13.8682C13.9313 13.8353 13.8638 13.8183 13.7955 13.8184H11.2045C11.1362 13.8183 11.0687 13.8353 11.0079 13.8682C10.947 13.901 10.8944 13.9486 10.8545 14.007C10.8143 14.0654 10.7879 14.133 10.7775 14.2042C10.7671 14.2755 10.773 14.3483 10.7947 14.4167L11.622 17.0295L11.0862 19.8506L9.31622 14.6529C9.24117 14.4301 9.0126 14.304 8.79752 14.3675C7.24228 14.8092 5.94177 15.4275 5.12539 15.8683C3.81472 16.5767 3 17.9749 3 19.5165V20.1819C3 21.1847 3.77509 22.0001 4.72728 22.0001H20.2727C21.2249 22.0001 22 21.1847 22 20.1819V19.5165C22 17.9749 21.1852 16.5767 19.8746 15.8683Z" fill="#3B3C40"/>
</svg>
