<svg width="32" height="20" viewBox="0 0 32 20" fill="none" xmlns="http://www.w3.org/2000/svg">
<path d="M15.1232 18.1337C15.2005 18.1998 15.2832 18.2659 15.3645 18.3306C13.7425 19.4223 11.8368 20.0032 9.88829 20C8.3453 20 6.82372 19.6348 5.44527 18.9336C4.06681 18.2325 2.86973 17.2149 1.94977 15.9622C1.02982 14.7094 0.412512 13.2564 0.147236 11.7192C-0.11804 10.1821 -0.0239254 8.60345 0.422051 7.10966C0.868028 5.61586 1.65349 4.24834 2.71561 3.11647C3.77774 1.98459 5.08705 1.11979 6.53882 0.591213C7.99058 0.06264 9.54452 -0.115029 11.0763 0.0724165C12.6082 0.259862 14.0753 0.807221 15.3605 1.67071C15.2805 1.73948 15.2005 1.80286 15.1405 1.87298C13.9855 2.88084 13.0588 4.12859 12.4235 5.53125C11.7882 6.93391 11.4592 8.45855 11.459 10.0013C11.4594 11.543 11.7866 13.0666 12.4187 14.4695C13.0508 15.8724 13.973 17.1219 15.1232 18.1337ZM22.1115 0.00135013C20.0848 0.00135013 18.2034 0.616236 16.6379 1.67071C16.7179 1.73948 16.798 1.80286 16.858 1.87298C18.013 2.88084 18.9397 4.12859 19.575 5.53125C20.2103 6.93391 20.5393 8.45855 20.5395 10.0013C20.5386 11.5429 20.2111 13.0664 19.5791 14.4692C18.947 15.872 18.025 17.1216 16.8753 18.1337C16.798 18.1998 16.7153 18.2659 16.6339 18.3306C18.2559 19.4227 20.1617 20.0036 22.1102 20C23.4089 20.0005 24.6949 19.7423 25.8949 19.24C27.0948 18.7378 28.1852 18.0013 29.1036 17.0728C30.022 16.1443 30.7505 15.0418 31.2475 13.8285C31.7445 12.6151 32.0002 11.3147 32 10.0013C31.9996 7.34929 30.9577 4.80596 29.1033 2.93067C27.249 1.05539 24.734 0.00170767 22.1115 0.00135013ZM15.9992 2.14536C14.8213 3.07885 13.8692 4.27147 13.2151 5.63269C12.561 6.9939 12.2222 8.48793 12.2244 10.0013C12.2218 11.515 12.5604 13.0094 13.2145 14.3709C13.8686 15.7324 14.821 16.9252 15.9992 17.8587C17.1772 16.9249 18.1294 15.732 18.7834 14.3706C19.4375 13.0092 19.7763 11.5149 19.7741 10.0013C19.7763 8.48793 19.4375 6.9939 18.7834 5.63269C18.1293 4.27147 17.1772 3.07885 15.9992 2.14536Z" fill="#3B3C40"/>
</svg>
