<svg width="24" height="24" viewBox="0 0 24 24" fill="none" xmlns="http://www.w3.org/2000/svg">
<g clip-path="url(#clip0_2_2217)">
<path d="M11.1971 2.74912L11.3351 2.82212L19.1291 7.32212C19.5648 7.57378 19.8898 7.98048 20.039 8.46109C20.1882 8.94171 20.1507 9.4609 19.9341 9.91512L19.8611 10.0541L13.8611 20.4461C13.6094 20.8819 13.2027 21.2068 12.7221 21.356C12.2415 21.5052 11.7223 21.4678 11.2681 21.2511L11.1291 21.1781L3.33505 16.6781C2.89901 16.4264 2.57393 16.0196 2.4247 15.5387C2.27548 15.0579 2.3131 14.5384 2.53005 14.0841L2.60305 13.9461L7.10305 6.15212L5.37105 5.15212C5.14845 5.02538 4.98297 4.81805 4.90874 4.57288C4.83451 4.32772 4.85719 4.06342 4.97211 3.83448C5.08702 3.60555 5.28541 3.42945 5.52635 3.34249C5.76729 3.25553 6.03242 3.26434 6.26705 3.36712L6.37105 3.42012L8.10305 4.42012L8.60305 3.55412C8.84059 3.14207 9.21719 2.82816 9.66529 2.66871C10.1134 2.50927 10.6036 2.51473 11.0481 2.68412L11.1971 2.74912ZM20.3031 11.2291L20.5001 11.0001L20.5761 11.0871L20.7741 11.3221L20.9511 11.5421L21.1481 11.8001L21.3521 12.0841C21.6901 12.5731 22.0001 13.1241 22.0001 13.5001C22.0001 13.8979 21.842 14.2795 21.5607 14.5608C21.2794 14.8421 20.8979 15.0001 20.5001 15.0001C20.1022 15.0001 19.7207 14.8421 19.4394 14.5608C19.1581 14.2795 19.0001 13.8979 19.0001 13.5001C19.0001 13.0481 19.4461 12.3451 19.8521 11.8001L20.0491 11.5421L20.3031 11.2291ZM10.3351 4.55412L9.83505 5.42012L10.7011 5.92012C10.9289 6.05367 11.0946 6.2719 11.1621 6.5272C11.2296 6.7825 11.1934 7.05413 11.0613 7.28281C10.9293 7.5115 10.7122 7.67868 10.4573 7.74787C10.2025 7.81706 9.93061 7.78264 9.70105 7.65212L8.83505 7.15212L7.19105 10.0001H17.5831L18.1291 9.05412L10.3351 4.55412Z" fill="#3B3C40"/>
</g>
<defs>
<clipPath id="clip0_2_2217">
<rect width="24" height="24" fill="white"/>
</clipPath>
</defs>
</svg>
