<svg width="57" height="16" viewBox="0 0 57 16" fill="none" xmlns="http://www.w3.org/2000/svg">
<path fill-rule="evenodd" clip-rule="evenodd" d="M5.27101 0.00126595C5.78024 -0.00186954 7.29366 -0.142161 7.93471 2.08464C8.36653 3.58464 9.0544 6.04171 9.99831 9.45585H10.3827C11.395 5.85643 12.0904 3.39936 12.4688 2.08464C13.1166 -0.165357 14.7359 0.00131004 15.3836 0.00131004L20.381 0.00131646V16.0013H15.2875V6.57223H14.946L12.1066 16.0013H8.27441L5.43504 6.56525H5.09349V16.0013H0V0.00131646L5.27101 0.00126595ZM27.6952 0.00131646V9.43738H28.1015L31.5553 1.67817C32.2258 0.134067 33.6547 0.00131646 33.6547 0.00131646H38.5837V16.0013H33.3838V6.56525H32.9775L29.5914 14.3245C28.9209 15.8616 27.4243 16.0013 27.4243 16.0013H22.4953V0.00131646H27.6952ZM56.5568 7.60462C55.8314 9.72011 53.5536 11.2352 51.0318 11.2352H45.5787V16.0013H40.6339V7.60462H56.5568Z" fill="#3B3C40"/>
</svg>
