<svg width="24" height="24" viewBox="0 0 24 24" fill="none" xmlns="http://www.w3.org/2000/svg">
<path d="M15.625 3.25H14.2675C14.01 2.5225 13.315 2 12.5 2C11.685 2 10.99 2.5225 10.7313 3.25H9.375C9.03 3.25 8.75 3.53 8.75 3.875V6.375C8.75 6.72 9.03 7 9.375 7H15.625C15.97 7 16.25 6.72 16.25 6.375V3.875C16.25 3.53 15.97 3.25 15.625 3.25Z" fill="#3B3C40"/>
<path d="M18.75 4.5H17.5V6.375C17.5 7.40875 16.6587 8.25 15.625 8.25H9.375C8.34125 8.25 7.5 7.40875 7.5 6.375V4.5H6.25C5.56125 4.5 5 5.06125 5 5.75V20.75C5 21.4513 5.54875 22 6.25 22H18.75C19.4513 22 20 21.4513 20 20.75V5.75C20 5.04875 19.4513 4.5 18.75 4.5ZM12.3175 15.5675L9.8175 18.0675C9.69989 18.1844 9.54081 18.25 9.375 18.25C9.20919 18.25 9.05011 18.1844 8.9325 18.0675L7.6825 16.8175C7.43875 16.5738 7.43875 16.1775 7.6825 15.9338C7.92625 15.69 8.3225 15.69 8.56625 15.9338L9.375 16.7413L11.4325 14.6838C11.6762 14.44 12.0725 14.44 12.3163 14.6838C12.56 14.9275 12.5613 15.3225 12.3175 15.5675ZM12.3175 10.5675L9.8175 13.0675C9.69989 13.1844 9.54081 13.25 9.375 13.25C9.20919 13.25 9.05011 13.1844 8.9325 13.0675L7.6825 11.8175C7.43875 11.5738 7.43875 11.1775 7.6825 10.9337C7.92625 10.69 8.3225 10.69 8.56625 10.9337L9.375 11.7413L11.4325 9.68375C11.6762 9.44 12.0725 9.44 12.3163 9.68375C12.56 9.9275 12.5613 10.3225 12.3175 10.5675ZM16.875 17H14.375C14.03 17 13.75 16.72 13.75 16.375C13.75 16.03 14.03 15.75 14.375 15.75H16.875C17.22 15.75 17.5 16.03 17.5 16.375C17.5 16.72 17.22 17 16.875 17ZM16.875 12H14.375C14.03 12 13.75 11.72 13.75 11.375C13.75 11.03 14.03 10.75 14.375 10.75H16.875C17.22 10.75 17.5 11.03 17.5 11.375C17.5 11.72 17.22 12 16.875 12Z" fill="#3B3C40"/>
</svg>
