<svg width="24" height="24" viewBox="0 0 24 24" fill="none" xmlns="http://www.w3.org/2000/svg">
<g clip-path="url(#clip0_2_2203)">
<path fill-rule="evenodd" clip-rule="evenodd" d="M12.0085 2.44263C12.6546 2.44263 13.1834 2.97136 13.1834 3.61746V22.8257C13.1824 23.1369 13.0582 23.4351 12.8381 23.6551C12.618 23.8751 12.3198 23.9991 12.0085 23.9999H1.8425C1.53137 23.9989 1.23328 23.8749 1.01328 23.6549C0.793282 23.4349 0.669235 23.1368 0.668213 22.8257V3.61746C0.668213 2.97136 1.19694 2.44263 1.8425 2.44263H2.99076V3.74369H2.28763V4.81112H11.564V3.74425H10.8608V2.44318L12.0085 2.44263ZM10.8736 20.3475C11.1124 20.3475 11.3414 20.4424 11.5103 20.6113C11.6792 20.7802 11.7741 21.0092 11.7741 21.248C11.7741 21.4869 11.6792 21.7159 11.5103 21.8848C11.3414 22.0537 11.1124 22.1486 10.8736 22.1486C10.6348 22.1486 10.4058 22.0537 10.237 21.8849C10.0682 21.7161 9.97334 21.4871 9.97334 21.2483C9.97334 21.0096 10.0682 20.7806 10.237 20.6118C10.4058 20.4429 10.6348 20.3475 10.8736 20.3475ZM8.24154 20.3475C8.48037 20.3475 8.70941 20.4424 8.87829 20.6113C9.04717 20.7802 9.14204 21.0092 9.14204 21.248C9.14204 21.4869 9.04717 21.7159 8.87829 21.8848C8.70941 22.0537 8.48037 22.1486 8.24154 22.1486C8.00271 22.1486 7.77366 22.0537 7.60478 21.8848C7.43591 21.7159 7.34103 21.4869 7.34103 21.248C7.34103 21.0092 7.43591 20.7802 7.60478 20.6113C7.77366 20.4424 8.00271 20.3475 8.24154 20.3475ZM5.6095 20.3475C5.84833 20.3475 6.07738 20.4424 6.24626 20.6113C6.41513 20.7802 6.51001 21.0092 6.51001 21.248C6.51001 21.4869 6.41513 21.7159 6.24626 21.8848C6.07738 22.0537 5.84833 22.1486 5.6095 22.1486C5.37068 22.1486 5.14163 22.0537 4.97275 21.8848C4.80387 21.7159 4.709 21.4869 4.709 21.248C4.709 21.0092 4.80387 20.7802 4.97275 20.6113C5.14163 20.4424 5.37068 20.3475 5.6095 20.3475ZM2.97747 20.3475C3.2163 20.3475 3.44535 20.4424 3.61422 20.6113C3.7831 20.7802 3.87798 21.0092 3.87798 21.248C3.87798 21.4869 3.7831 21.7159 3.61422 21.8848C3.44535 22.0537 3.2163 22.1486 2.97747 22.1486C2.73871 22.1486 2.50974 22.0537 2.34091 21.8849C2.17209 21.7161 2.07724 21.4871 2.07724 21.2483C2.07724 21.0096 2.17209 20.7806 2.34091 20.6118C2.50974 20.4429 2.73871 20.3475 2.97747 20.3475ZM10.8741 17.2355C11.1129 17.2355 11.3419 17.3303 11.5107 17.4992C11.6795 17.668 11.7744 17.897 11.7744 18.1357C11.7744 18.3745 11.6795 18.6035 11.5107 18.7723C11.3419 18.9411 11.1129 19.0359 10.8741 19.0359C10.6354 19.0359 10.4064 18.9411 10.2376 18.7723C10.0687 18.6035 9.97389 18.3745 9.97389 18.1357C9.97389 17.897 10.0687 17.668 10.2376 17.4992C10.4064 17.3303 10.6354 17.2355 10.8741 17.2355ZM8.24154 17.2355C8.48029 17.2355 8.70927 17.3303 8.87809 17.4992C9.04692 17.668 9.14176 17.897 9.14176 18.1357C9.14176 18.3745 9.04692 18.6035 8.87809 18.7723C8.70927 18.9411 8.48029 19.0359 8.24154 19.0359C8.00278 19.0359 7.7738 18.9411 7.60498 18.7723C7.43615 18.6035 7.34131 18.3745 7.34131 18.1357C7.34131 17.897 7.43615 17.668 7.60498 17.4992C7.7738 17.3303 8.00278 17.2355 8.24154 17.2355ZM5.6095 17.2355C5.84826 17.2355 6.07724 17.3303 6.24606 17.4992C6.41489 17.668 6.50973 17.897 6.50973 18.1357C6.50973 18.3745 6.41489 18.6035 6.24606 18.7723C6.07724 18.9411 5.84826 19.0359 5.6095 19.0359C5.37075 19.0359 5.14177 18.9411 4.97295 18.7723C4.80412 18.6035 4.70928 18.3745 4.70928 18.1357C4.70928 17.897 4.80412 17.668 4.97295 17.4992C5.14177 17.3303 5.37075 17.2355 5.6095 17.2355ZM2.97747 17.2355C3.21623 17.2355 3.4452 17.3303 3.61403 17.4992C3.78285 17.668 3.8777 17.897 3.8777 18.1357C3.8777 18.3745 3.78285 18.6035 3.61403 18.7723C3.4452 18.9411 3.21623 19.0359 2.97747 19.0359C2.73871 19.0359 2.50974 18.9411 2.34091 18.7723C2.17209 18.6035 2.07724 18.3745 2.07724 18.1357C2.07724 17.897 2.17209 17.668 2.34091 17.4992C2.50974 17.3303 2.73871 17.2355 2.97747 17.2355ZM10.8741 14.1229C11.1129 14.1229 11.3419 14.2177 11.5107 14.3866C11.6795 14.5554 11.7744 14.7844 11.7744 15.0231C11.7744 15.2619 11.6795 15.4909 11.5107 15.6597C11.3419 15.8285 11.1129 15.9234 10.8741 15.9234C10.6354 15.9234 10.4064 15.8285 10.2376 15.6597C10.0687 15.4909 9.97389 15.2619 9.97389 15.0231C9.97389 14.7844 10.0687 14.5554 10.2376 14.3866C10.4064 14.2177 10.6354 14.1229 10.8741 14.1229ZM8.24154 14.1229C8.48037 14.1229 8.70941 14.2178 8.87829 14.3866C9.04717 14.5555 9.14204 14.7846 9.14204 15.0234C9.14204 15.2622 9.04717 15.4913 8.87829 15.6602C8.70941 15.829 8.48037 15.9239 8.24154 15.9239C8.00271 15.9239 7.77366 15.829 7.60478 15.6602C7.43591 15.4913 7.34103 15.2622 7.34103 15.0234C7.34103 14.7846 7.43591 14.5555 7.60478 14.3866C7.77366 14.2178 8.00271 14.1229 8.24154 14.1229ZM5.6095 14.1229C5.84833 14.1229 6.07738 14.2178 6.24626 14.3866C6.41513 14.5555 6.51001 14.7846 6.51001 15.0234C6.51001 15.2622 6.41513 15.4913 6.24626 15.6602C6.07738 15.829 5.84833 15.9239 5.6095 15.9239C5.37068 15.9239 5.14163 15.829 4.97275 15.6602C4.80387 15.4913 4.709 15.2622 4.709 15.0234C4.709 14.7846 4.80387 14.5555 4.97275 14.3866C5.14163 14.2178 5.37068 14.1229 5.6095 14.1229ZM2.97747 14.1229C3.2163 14.1229 3.44535 14.2178 3.61422 14.3866C3.7831 14.5555 3.87798 14.7846 3.87798 15.0234C3.87798 15.2622 3.7831 15.4913 3.61422 15.6602C3.44535 15.829 3.2163 15.9239 2.97747 15.9239C2.73864 15.9239 2.50959 15.829 2.34072 15.6602C2.17184 15.4913 2.07697 15.2622 2.07697 15.0234C2.07697 14.7846 2.17184 14.5555 2.34072 14.3866C2.50959 14.2178 2.73864 14.1229 2.97747 14.1229ZM2.76155 6.11164H11.0895C11.466 6.11164 11.7738 6.42002 11.7738 6.7965V11.5872C11.7732 11.7685 11.7009 11.9422 11.5727 12.0704C11.4445 12.1986 11.2708 12.2709 11.0895 12.2715H2.76155C2.58024 12.2709 2.40652 12.1986 2.27832 12.0704C2.15011 11.9422 2.07783 11.7685 2.07724 11.5872V6.7965C2.07724 6.42002 2.38507 6.11219 2.76155 6.11219V6.11164ZM13.7165 11.8624H23.3317V17.6352C23.3308 17.993 23.1884 18.3359 22.9354 18.5889C22.6825 18.8419 22.3397 18.9845 21.9819 18.9856H13.716L13.7165 11.8624ZM19.5819 15.1698H21.1985C21.2922 15.17 21.382 15.2072 21.4483 15.2734C21.5146 15.3396 21.552 15.4294 21.5523 15.5231V17.1397C21.5521 17.2336 21.5148 17.3236 21.4483 17.3899C21.3819 17.4562 21.2918 17.4935 21.198 17.4935H19.5824C19.4887 17.4932 19.399 17.4558 19.3328 17.3895C19.2666 17.3232 19.2293 17.2334 19.2292 17.1397V15.5231C19.2295 15.4295 19.2668 15.3398 19.333 15.2736C19.3992 15.2074 19.4883 15.1701 19.5819 15.1698ZM18.3085 13.0865V14.093H17.7753V13.0865H18.3085ZM17.1514 13.0865V14.093H16.6182V13.0865H17.1514ZM15.9942 13.0865V14.093H15.4611V13.0865H15.9942ZM14.8371 13.0865V14.093H14.304V13.0865H14.8371ZM13.7165 9.74854H23.3317V11.3286H13.7165V9.74854ZM13.7165 7.45644H21.9819C22.3397 7.45761 22.6826 7.60035 22.9355 7.85347C23.1884 8.10659 23.3308 8.44952 23.3317 8.80734V9.21538H13.7165V7.45644Z" fill="#E50E78"/>
<path fill-rule="evenodd" clip-rule="evenodd" d="M3.52393 4.27968H10.3271V0.611779C10.3271 0.377587 10.3847 0.171077 10.4827 0H4.05044C3.71272 0 3.52448 0.300076 3.52448 0.611779L3.52393 4.27968ZM10.8188 1.22245H12.0551V0.611779C12.0551 0.300076 11.8336 0 11.4366 0C11.0397 0 10.8188 0.300076 10.8188 0.611779V1.22245Z" fill="#E50E78"/>
</g>
<defs>
<clipPath id="clip0_2_2203">
<rect width="24" height="24" fill="white"/>
</clipPath>
</defs>
</svg>
