<svg width="24" height="24" viewBox="0 0 24 24" fill="none" xmlns="http://www.w3.org/2000/svg">
<path d="M10.354 12.4944H14.5563V15.6462H10.354V12.4944ZM13.5058 10.3933C13.5058 9.81314 13.0354 9.34277 12.4551 9.34277C11.8749 9.34277 11.4045 9.81297 11.4045 10.3933V11.4438H13.5056V10.3933H13.5058Z" fill="#3B3C40"/>
<path d="M21.3849 5.14029C18.3291 5.14029 14.3084 4.10928 12.8753 2.19866C12.6846 1.96651 12.3419 1.93304 12.11 2.12356C12.0825 2.14614 12.0574 2.1713 12.0348 2.1987C10.6016 4.10895 6.58086 5.14029 3.5252 5.14029C3.23522 5.14029 3 5.37543 3 5.66558V12.4942C3 18.2703 8.01591 21.7523 12.311 22.9795C12.4051 23.0069 12.505 23.0069 12.5992 22.9795C16.8943 21.7523 21.9102 18.2703 21.9102 12.4942V5.66558C21.9102 5.37543 21.675 5.14025 21.3849 5.14025V5.14029ZM15.6068 16.1712C15.6068 16.4613 15.3716 16.6965 15.0816 16.6965H9.82859C9.53861 16.6965 9.30343 16.4613 9.30343 16.1712V11.969C9.30343 11.6789 9.53861 11.4437 9.82859 11.4437H10.354V10.3931C10.354 9.23269 11.2946 8.29204 12.455 8.29204C13.6155 8.29204 14.5562 9.23269 14.5562 10.3931V11.4437H15.0815C15.3716 11.4437 15.6066 11.6789 15.6066 11.969V16.1712L15.6068 16.1712Z" fill="#3B3C40"/>
</svg>
