<svg width="24" height="24" viewBox="0 0 24 24" fill="none" xmlns="http://www.w3.org/2000/svg">
<path d="M3.75 1.5C3.15326 1.5 2.58097 1.73705 2.15901 2.15901C1.73705 2.58097 1.5 3.15326 1.5 3.75V20.25C1.5 20.8467 1.73705 21.419 2.15901 21.841C2.58097 22.2629 3.15326 22.5 3.75 22.5H12.75C13.3467 22.5 13.919 22.2629 14.341 21.841C14.7629 21.419 15 20.8467 15 20.25V19.5H13.5V20.25C13.5 20.4489 13.421 20.6397 13.2803 20.7803C13.1397 20.921 12.9489 21 12.75 21H3.75C3.55109 21 3.36032 20.921 3.21967 20.7803C3.07902 20.6397 3 20.4489 3 20.25V3.75C3 3.55109 3.07902 3.36032 3.21967 3.21967C3.36032 3.07902 3.55109 3 3.75 3H5.77275L7.002 3.819C7.37159 4.06537 7.80582 4.19684 8.25 4.19684C8.69418 4.19684 9.12841 4.06537 9.498 3.819L10.7273 3H12.75C12.9489 3 13.1397 3.07902 13.2803 3.21967C13.421 3.36032 13.5 3.55109 13.5 3.75V4.5H15V3.75C15 3.15326 14.7629 2.58097 14.341 2.15901C13.919 1.73705 13.3467 1.5 12.75 1.5H3.75Z" fill="#E50E78"/>
<path fill-rule="evenodd" clip-rule="evenodd" d="M8.25 6C7.65326 6 7.08097 6.23705 6.65901 6.65901C6.23705 7.08097 6 7.65326 6 8.25V15.75C6 16.3467 6.23705 16.919 6.65901 17.341C7.08097 17.7629 7.65326 18 8.25 18H20.25C20.8467 18 21.419 17.7629 21.841 17.341C22.2629 16.919 22.5 16.3467 22.5 15.75V8.25C22.5 7.65326 22.2629 7.08097 21.841 6.65901C21.419 6.23705 20.8467 6 20.25 6H8.25ZM7.5 9H21V11.25H7.5V9Z" fill="#E50E78"/>
</svg>
