<svg width="24" height="24" viewBox="0 0 24 24" fill="none" xmlns="http://www.w3.org/2000/svg">
<g clip-path="url(#clip0_2_2138)">
<path fill-rule="evenodd" clip-rule="evenodd" d="M9.40495 2.89707C10.1004 2.30451 10.9777 1.96786 11.8909 1.94312C12.8042 1.91838 13.6985 2.20703 14.4249 2.76107L14.5949 2.89707L14.9709 3.21707C15.2446 3.4507 15.5763 3.60616 15.9309 3.66707L16.1089 3.68907L16.6019 3.72907C17.5152 3.80194 18.3758 4.18611 19.0398 4.81735C19.7038 5.4486 20.131 6.28865 20.2499 7.19707L20.2709 7.39707L20.3109 7.89107C20.3393 8.24939 20.4636 8.59345 20.6709 8.88707L20.7809 9.02907L21.1029 9.40507C21.6955 10.1005 22.0322 10.9778 22.0569 11.8911C22.0816 12.8044 21.793 13.6986 21.2389 14.4251L21.1029 14.5951L20.7819 14.9711C20.5483 15.2448 20.3929 15.5764 20.3319 15.9311L20.3099 16.1091L20.2709 16.6021C20.1981 17.5153 19.8139 18.3759 19.1827 19.0399C18.5514 19.7039 17.7114 20.1311 16.8029 20.2501L16.6019 20.2711L16.1089 20.3111C15.7506 20.3394 15.4066 20.4637 15.1129 20.6711L14.9709 20.7821L14.5939 21.1021C13.8987 21.6948 13.0214 22.0316 12.1081 22.0565C11.1948 22.0814 10.3005 21.793 9.57395 21.2391L9.40495 21.1031L9.02895 20.7821C8.75526 20.5484 8.4236 20.393 8.06895 20.3321L7.89095 20.3111L7.39795 20.2711C6.48468 20.1982 5.6241 19.814 4.96009 19.1828C4.29608 18.5515 3.8689 17.7115 3.74995 16.8031L3.72895 16.6031L3.68895 16.1091C3.66063 15.7507 3.53627 15.4067 3.32895 15.1131L3.21795 14.9711L2.89695 14.5941C2.30439 13.8987 1.96774 13.0214 1.943 12.1081C1.91825 11.1948 2.20691 10.3005 2.76095 9.57407L2.89695 9.40507L3.21695 9.02907C3.45058 8.75538 3.60604 8.42372 3.66695 8.06907L3.68895 7.89107L3.72895 7.39807C3.80182 6.4848 4.18599 5.62422 4.81723 4.96021C5.44847 4.29621 6.28853 3.86902 7.19695 3.75007L7.39695 3.72907L7.89095 3.68907C8.24926 3.66075 8.59333 3.53639 8.88695 3.32907L9.02895 3.21807L9.40495 2.89707ZM14.4999 13.0001C14.1021 13.0001 13.7206 13.1581 13.4393 13.4394C13.158 13.7207 12.9999 14.1022 12.9999 14.5001C12.9999 14.8979 13.158 15.2794 13.4393 15.5607C13.7206 15.842 14.1021 16.0001 14.4999 16.0001C14.8978 16.0001 15.2793 15.842 15.5606 15.5607C15.8419 15.2794 15.9999 14.8979 15.9999 14.5001C15.9999 14.1022 15.8419 13.7207 15.5606 13.4394C15.2793 13.1581 14.8978 13.0001 14.4999 13.0001ZM14.2929 8.29307L8.29295 14.2931C8.19744 14.3853 8.12125 14.4957 8.06885 14.6177C8.01644 14.7397 7.98885 14.8709 7.9877 15.0037C7.98654 15.1364 8.01185 15.2681 8.06213 15.391C8.11241 15.5139 8.18666 15.6256 8.28055 15.7195C8.37445 15.8134 8.4861 15.8876 8.60899 15.9379C8.73189 15.9882 8.86357 16.0135 8.99635 16.0123C9.12913 16.0112 9.26035 15.9836 9.38235 15.9312C9.50436 15.8788 9.6147 15.8026 9.70695 15.7071L15.7069 9.70707C15.8891 9.51847 15.9899 9.26586 15.9876 9.00367C15.9853 8.74147 15.8802 8.49066 15.6948 8.30525C15.5094 8.11984 15.2585 8.01467 14.9963 8.01239C14.7342 8.01012 14.4816 8.11091 14.2929 8.29307ZM9.49995 8.00007C9.10212 8.00007 8.72059 8.1581 8.43929 8.43941C8.15798 8.72071 7.99995 9.10224 7.99995 9.50007C7.99995 9.89789 8.15798 10.2794 8.43929 10.5607C8.72059 10.842 9.10212 11.0001 9.49995 11.0001C9.89777 11.0001 10.2793 10.842 10.5606 10.5607C10.8419 10.2794 10.9999 9.89789 10.9999 9.50007C10.9999 9.10224 10.8419 8.72071 10.5606 8.43941C10.2793 8.1581 9.89777 8.00007 9.49995 8.00007Z" fill="url(#paint0_linear_2_2138)"/>
</g>
<defs>
<linearGradient id="paint0_linear_2_2138" x1="11.9999" y1="1.94165" x2="11.9999" y2="22.058" gradientUnits="userSpaceOnUse">
<stop stop-color="#A536FF"/>
<stop offset="1" stop-color="#E50E78"/>
</linearGradient>
<clipPath id="clip0_2_2138">
<rect width="24" height="24" fill="white"/>
</clipPath>
</defs>
</svg>
