<svg width="24" height="24" viewBox="0 0 24 24" fill="none" xmlns="http://www.w3.org/2000/svg">
<path d="M19.2188 4H16.0781C15.6473 4 15.2969 4.35047 15.2969 4.78125V7.76562H12.3125C11.8817 7.76562 11.5312 8.11609 11.5312 8.54688V11.5312H8.54688C8.11609 11.5312 7.76562 11.8817 7.76562 12.3125V15.2969H4.78125C4.35047 15.2969 4 15.6473 4 16.0781V19.2188C4 19.6495 4.35047 20 4.78125 20H19.2188C19.6495 20 20 19.6495 20 19.2188V4.78125C20 4.35047 19.6495 4 19.2188 4ZM10.5168 4H8.08616C7.82728 4 7.61741 4.20987 7.61741 4.46875C7.61741 4.72763 7.82728 4.9375 8.08616 4.9375H9.38519L5.58919 8.7335C5.40613 8.91653 5.40613 9.21334 5.58919 9.39641C5.68072 9.48794 5.80069 9.53372 5.92062 9.53372C6.04056 9.53372 6.16056 9.48794 6.25206 9.39641L10.0481 5.60041V6.89944C10.0481 7.15831 10.258 7.36819 10.5168 7.36819C10.7757 7.36819 10.9856 7.15831 10.9856 6.89944V4.46875C10.9856 4.20987 10.7757 4 10.5168 4Z" fill="#3B3C40"/>
</svg>
