<svg width="24" height="24" viewBox="0 0 24 24" fill="none" xmlns="http://www.w3.org/2000/svg">
<g clip-path="url(#clip0_2_2097)">
<path d="M8.99174 4.51199C10.2593 4.51199 11.375 5.3218 11.7681 6.5272L12.3216 8.22937C12.8509 8.03573 13.4189 7.99865 13.9692 8.12066C14.1908 5.22079 11.8907 2.81348 9.06238 2.81348C6.34846 2.81348 4.1405 5.02204 4.1405 7.73676C4.1405 9.91546 5.555 11.7442 7.47566 12.3981L7.5216 12.3507L6.21472 8.33755C5.60525 6.46893 6.98666 4.51199 8.99174 4.51199Z" fill="#E50E78"/>
<path d="M21.9605 18.5628C22.3296 17.9404 22.5616 17.2463 22.6411 16.527C22.7205 15.8077 22.6455 15.0798 22.4211 14.3918L20.8672 9.62686C20.608 8.83182 19.7534 8.39757 18.9583 8.65683C18.1633 8.9161 17.729 9.77068 17.9885 10.5661L17.8319 10.0862C17.5727 9.29114 16.7104 8.85891 15.9154 9.11818C15.1223 9.37679 14.6856 10.2307 14.9455 11.0275L14.7733 10.4994C14.5148 9.70688 13.6578 9.27535 12.8649 9.52941C12.0596 9.78821 11.6285 10.6474 11.8872 11.4406L10.4312 6.96314C10.1719 6.1681 9.31691 5.73399 8.52186 5.99325C7.72686 6.25252 7.29256 7.10714 7.55183 7.90214L10.5136 16.9969C10.634 17.3661 10.4323 17.763 10.0631 17.8833C9.69392 18.0037 9.29703 17.8021 9.17666 17.4329L8.01299 13.8645C7.25821 14.6438 6.95244 15.7968 7.31581 16.9111L7.84119 18.4965C8.49402 20.4728 10.191 21.9226 12.2455 22.2579C12.6773 23.5823 14.1014 24.3073 15.4269 23.875L20.4988 22.2211C21.8238 21.789 22.548 20.3646 22.1158 19.0392L21.9605 18.5628Z" fill="#E50E78"/>
<path d="M2.73425 7.73672C2.73425 4.24659 5.57305 1.40719 9.06238 1.40719C12.5598 1.40719 15.431 4.26966 15.3895 7.81284C15.8455 7.64789 16.3155 7.59881 16.7959 7.66561C16.7575 3.43223 13.3034 0 9.06238 0C4.79764 0 1.328 3.47067 1.328 7.73672C1.328 10.7843 3.12378 13.5519 5.91261 14.8013C6.03611 14.3467 6.2317 13.9149 6.49194 13.5222C4.30846 12.5498 2.73425 10.3451 2.73425 7.73672Z" fill="#E50E78"/>
</g>
<defs>
<clipPath id="clip0_2_2097">
<rect width="24" height="24" fill="white"/>
</clipPath>
</defs>
</svg>
