<svg width="24" height="24" viewBox="0 0 24 24" fill="none" xmlns="http://www.w3.org/2000/svg">
<path d="M19.4326 6.33054C18.1126 6.19665 16.7927 6.09623 15.4645 6.02092V6.01255L15.2841 4.92469C15.1612 4.15481 14.9808 3 13.0623 3H10.9143C9.00405 3 8.82368 4.1046 8.6925 4.91632L8.52033 5.98745C7.75787 6.03766 6.9954 6.08787 6.23294 6.16318L4.56043 6.33054C4.21609 6.36402 3.97014 6.67364 4.00293 7.01674C4.03573 7.35983 4.33087 7.61088 4.67521 7.57741L6.34772 7.41004C10.6438 6.9749 14.9726 7.14226 19.3178 7.58577C19.3424 7.58577 19.3588 7.58577 19.3834 7.58577C19.695 7.58577 19.9655 7.3431 19.9983 7.01674C20.0229 6.67364 19.7769 6.36402 19.4326 6.33054Z" fill="#3B3C40"/>
<path d="M17.9241 8.76557C17.7273 8.55636 17.4568 8.43921 17.178 8.43921H6.81505C6.53629 8.43921 6.25754 8.55636 6.06898 8.76557C5.88041 8.97477 5.77383 9.25929 5.79023 9.55218L6.29854 18.138C6.38872 19.4099 6.5035 20.9999 9.36479 20.9999H14.6283C17.4896 20.9999 17.6043 19.4183 17.6945 18.138L18.2028 9.56055C18.2192 9.25929 18.1126 8.97477 17.9241 8.76557ZM13.3575 16.8074H10.6274C10.2912 16.8074 10.0125 16.5229 10.0125 16.1798C10.0125 15.8367 10.2912 15.5522 10.6274 15.5522H13.3575C13.6936 15.5522 13.9724 15.8367 13.9724 16.1798C13.9724 16.5229 13.6936 16.8074 13.3575 16.8074ZM14.0462 13.4601H9.94689C9.61075 13.4601 9.332 13.1756 9.332 12.8325C9.332 12.4894 9.61075 12.2049 9.94689 12.2049H14.0462C14.3823 12.2049 14.6611 12.4894 14.6611 12.8325C14.6611 13.1756 14.3823 13.4601 14.0462 13.4601Z" fill="#3B3C40"/>
</svg>
