<svg width="50" height="16" viewBox="0 0 50 16" fill="none" xmlns="http://www.w3.org/2000/svg">
<path d="M18.9833 0.284867L12.4375 15.7585H8.16667L4.94583 3.40808C4.75 2.64843 4.58125 2.36976 3.98542 2.0498C3.01458 1.52754 1.41042 1.03832 0 0.73281L0.0958333 0.284867H6.97083C7.4201 0.284421 7.85473 0.443122 8.19627 0.732323C8.53781 1.02152 8.76376 1.42217 8.83333 1.86195L10.5354 10.8167L14.7396 0.284867H18.9833ZM35.7188 10.7073C35.7354 6.62211 30.0187 6.39711 30.0583 4.57231C30.0708 4.01703 30.6042 3.42666 31.7708 3.27597C33.1381 3.1473 34.5151 3.38694 35.7562 3.96955L36.4646 0.687396C35.2562 0.237276 33.9764 0.00449308 32.6854 0C28.6917 0 25.8813 2.10554 25.8562 5.11728C25.8312 7.3446 27.8625 8.58521 29.3937 9.32834C30.9688 10.0859 31.4979 10.5731 31.4896 11.2502C31.4792 12.2905 30.2354 12.7467 29.0729 12.7653C27.0417 12.7963 25.8646 12.2224 24.9229 11.7889L24.1917 15.1784C25.1354 15.6078 26.8771 15.9835 28.6833 16C32.9271 16 35.7042 13.9234 35.7188 10.7073ZM46.2625 15.7585H50L46.7396 0.284867H43.2896C42.921 0.281483 42.5598 0.387912 42.253 0.590352C41.9461 0.792793 41.7078 1.08191 41.5687 1.42021L35.5083 15.7585H39.75L40.5938 13.4465H45.7771L46.2625 15.7585ZM41.7562 10.2758L43.8812 4.46497L45.1062 10.2758H41.7562ZM24.7563 0.284867L21.4167 15.7585H17.375L20.7187 0.284867H24.7563Z" fill="#3B3C40"/>
</svg>
