<svg width="24" height="24" viewBox="0 0 24 24" fill="none" xmlns="http://www.w3.org/2000/svg">
<path d="M15.5853 0.333313H8.42666C1.88866 0.333313 0.333496 1.88848 0.333496 8.41481V15.5735C0.333496 22.1103 1.877 23.6666 8.415 23.6666H15.5737C22.1105 23.6666 23.6668 22.1231 23.6668 15.5851V8.42648C23.6668 1.88848 22.1233 0.333313 15.5853 0.333313ZM19.1705 16.9816H17.4683C16.8243 16.9816 16.6307 16.4601 15.4757 15.3051C14.4677 14.3333 14.0418 14.212 13.7863 14.212C13.434 14.212 13.3372 14.3088 13.3372 14.7953V16.326C13.3372 16.7401 13.203 16.9828 12.1215 16.9828C11.0719 16.9123 10.0541 16.5934 9.15186 16.0524C8.24965 15.5115 7.48886 14.7639 6.93216 13.8713C5.61053 12.2263 4.69093 10.2956 4.2465 8.23281C4.2465 7.97731 4.34333 7.74631 4.82983 7.74631H6.53083C6.96833 7.74631 7.12583 7.94115 7.29733 8.39031C8.12333 10.8216 9.53266 12.9356 10.1043 12.9356C10.3237 12.9356 10.4193 12.8388 10.4193 12.2916V9.78798C10.347 8.64581 9.74033 8.54898 9.74033 8.13598C9.74812 8.02705 9.79804 7.92543 9.8795 7.85269C9.96096 7.77994 10.0675 7.74179 10.1767 7.74631H12.8507C13.2158 7.74631 13.3372 7.92831 13.3372 8.36581V11.7445C13.3372 12.1096 13.4947 12.231 13.6043 12.231C13.8237 12.231 13.9928 12.1096 14.3942 11.7083C15.2562 10.6571 15.9605 9.4859 16.4848 8.23165C16.5384 8.08099 16.6398 7.952 16.7736 7.86437C16.9074 7.77674 17.0661 7.73528 17.2257 7.74631H18.9278C19.4377 7.74631 19.5462 8.00181 19.4377 8.36581C18.8187 9.75231 18.0529 11.0684 17.1533 12.2916C16.9702 12.5716 16.8967 12.7175 17.1533 13.0453C17.3225 13.3008 17.9187 13.799 18.32 14.2726C18.9032 14.8544 19.3875 15.5275 19.7538 16.2653C19.8997 16.739 19.6558 16.9816 19.1705 16.9816Z" fill="#3B3C40"/>
</svg>
