<svg width="30" height="21" viewBox="0 0 30 21" fill="none" xmlns="http://www.w3.org/2000/svg">
<path d="M12 15L19.785 10.5L12 6V15ZM29.34 3.255C29.535 3.96 29.67 4.905 29.76 6.105C29.865 7.305 29.91 8.34 29.91 9.24L30 10.5C30 13.785 29.76 16.2 29.34 17.745C28.965 19.095 28.095 19.965 26.745 20.34C26.04 20.535 24.75 20.67 22.77 20.76C20.82 20.865 19.035 20.91 17.385 20.91L15 21C8.715 21 4.8 20.76 3.255 20.34C1.905 19.965 1.035 19.095 0.66 17.745C0.465 17.04 0.33 16.095 0.24 14.895C0.135 13.695 0.0899999 12.66 0.0899999 11.76L0 10.5C0 7.215 0.24 4.8 0.66 3.255C1.035 1.905 1.905 1.035 3.255 0.66C3.96 0.465 5.25 0.33 7.23 0.24C9.18 0.135 10.965 0.0899999 12.615 0.0899999L15 0C21.285 0 25.2 0.24 26.745 0.66C28.095 1.035 28.965 1.905 29.34 3.255Z" fill="#3B3C40"/>
</svg>
