<svg width="24" height="24" viewBox="0 0 24 24" fill="none" xmlns="http://www.w3.org/2000/svg">
<path d="M10.4041 1.71387C5.61257 1.71387 1.71436 5.61208 1.71436 10.4036C1.71436 15.1952 5.61257 19.0934 10.4041 19.0934C15.1957 19.0934 19.0939 15.1952 19.0939 10.4036C19.0939 5.61208 15.1956 1.71387 10.4041 1.71387ZM10.4041 17.5733C6.45066 17.5733 3.23445 14.3571 3.23445 10.4036C3.23445 6.45017 6.45066 3.23396 10.4041 3.23396C14.3573 3.23396 17.5738 6.45017 17.5738 10.4036C17.5738 14.3571 14.3576 17.5733 10.4041 17.5733Z" fill="#3B3C40"/>
<path d="M22.0633 20.9881L16.5403 15.4651C16.2434 15.1682 15.7625 15.1682 15.4656 15.4651C15.1687 15.7618 15.1687 16.2431 15.4656 16.5398L20.9886 22.0628C21.0591 22.1335 21.1428 22.1895 21.235 22.2277C21.3272 22.266 21.4261 22.2856 21.5259 22.2854C21.7205 22.2854 21.9148 22.2112 22.0633 22.0628C22.3602 21.7661 22.3602 21.2847 22.0633 20.9881Z" fill="#3B3C40"/>
<path d="M10.5 13.1569V7.5M13.3284 10.3284H7.67157" stroke="#3B3C40" stroke-width="1.5" stroke-linecap="round" stroke-linejoin="round"/>
</svg>
