<svg width="24" height="24" viewBox="0 0 24 24" fill="none" xmlns="http://www.w3.org/2000/svg">
<path d="M8.39578 10.6154H15.5977C16.2579 10.6154 16.798 11.1346 16.798 11.7692C16.798 12.4038 16.2579 12.9231 15.5977 12.9231H8.39578C7.7356 12.9231 7.19545 12.4038 7.19545 11.7692C7.19545 11.1346 7.7356 10.6154 8.39578 10.6154ZM22.7157 11.7692C23.4599 11.7692 24 11.0885 23.832 10.3962C23.5105 9.1421 22.7614 8.0277 21.704 7.23086C20.6466 6.43402 19.342 6.00067 17.9984 6H14.3374C13.7132 6 13.1971 6.49615 13.1971 7.09615C13.1971 7.69615 13.7132 8.19231 14.3374 8.19231H17.9984C19.7388 8.19231 21.2032 9.34615 21.6114 10.8923C21.7434 11.4 22.1755 11.7692 22.7157 11.7692ZM2.34614 11.0538C2.68223 9.35769 4.33868 8.19231 6.13917 8.19231H9.65612C10.2803 8.19231 10.7964 7.69615 10.7964 7.09615C10.7964 6.49615 10.2803 6 9.65612 6H6.2592C3.12635 6 0.329595 8.20385 0.0295136 11.2038C-0.0534741 12.0049 0.0390211 12.8137 0.30104 13.5783C0.563059 14.3429 0.98879 15.0462 1.55081 15.643C2.11282 16.2398 2.79865 16.7168 3.56412 17.0432C4.32959 17.3697 5.15771 17.5384 5.99513 17.5385H9.65612C10.2803 17.5385 10.7964 17.0423 10.7964 16.4423C10.7964 15.8423 10.2803 15.3462 9.65612 15.3462H5.99513C5.44378 15.3445 4.89966 15.2255 4.40186 14.9977C3.90406 14.7698 3.46494 14.4388 3.11606 14.0284C2.76718 13.618 2.51719 13.1385 2.38407 12.6241C2.25095 12.1098 2.238 11.5735 2.34614 11.0538ZM19.1987 11.7692C18.5385 11.7692 17.9984 12.2885 17.9984 12.9231V15.2308H15.5977C14.9375 15.2308 14.3974 15.75 14.3974 16.3846C14.3974 17.0192 14.9375 17.5385 15.5977 17.5385H17.9984V19.8462C17.9984 20.4808 18.5385 21 19.1987 21C19.8589 21 20.399 20.4808 20.399 19.8462V17.5385H22.7997C23.4599 17.5385 24 17.0192 24 16.3846C24 15.75 23.4599 15.2308 22.7997 15.2308H20.399V12.9231C20.399 12.2885 19.8589 11.7692 19.1987 11.7692Z" fill="#3B3C40"/>
</svg>
