<svg width="251" height="212" viewBox="0 0 251 212" fill="none" xmlns="http://www.w3.org/2000/svg">
<path opacity="0.3" d="M1.38373 38.2745V38.8908H2H17.7946C21.1909 38.8908 24.0879 37.8612 26.4451 35.783C28.8163 33.6925 30.0042 30.9999 30.0042 27.7549C30.0042 25.8135 29.575 24.0869 28.6955 22.5965C27.9495 21.3322 26.8938 20.262 25.5466 19.3805C27.5918 17.5045 28.6215 15.1004 28.6215 12.2087C28.6215 9.06503 27.4494 6.45882 25.115 4.43915C22.8284 2.3954 20.002 1.38373 16.6778 1.38373H2H1.38373V2V38.2745ZM19.0663 15.0838L19.0611 15.0888L19.0561 15.094C18.4358 15.7272 17.6589 16.049 16.6778 16.049H9.95518V9.30115H16.6778C17.7003 9.30115 18.4928 9.62688 19.1093 10.2562C19.7324 10.8923 20.0501 11.6835 20.0501 12.6751C20.0501 13.6576 19.7211 14.4457 19.0663 15.0838ZM20.4397 24.715L20.4396 24.7151L20.449 24.7243C21.1374 25.3951 21.4859 26.2341 21.4859 27.2885C21.4859 28.3805 21.1349 29.2564 20.4443 29.961C19.7555 30.6298 18.8881 30.9734 17.7946 30.9734H9.95518V23.6555H17.7946C18.8826 23.6555 19.7484 24.0122 20.4397 24.715ZM57.8425 31.4342V30.8179H57.2262H42.1543V23.9146H55.6308H56.2471V23.2983V16.5616V15.9453H55.6308H42.1543V9.45661H56.9603H57.5766V8.84034V2V1.38373H56.9603H34.1991H33.5828V2V38.2745V38.8908H34.1991H57.2262H57.8425V38.2745V31.4342ZM83.9374 1.38373H83.3211V2V22.219L68.4831 1.63958L68.2987 1.38373H67.9832H62.3993H61.783V2V38.2745V38.8908H62.3993H69.7382H70.3545V38.2745V18.0073L85.192 38.6344L85.3765 38.8908H85.6923H91.2763H91.8926V38.2745V2V1.38373H91.2763H83.9374ZM95.7648 31.5694L95.2459 31.8583L95.5154 32.3875C96.735 34.7823 98.4252 36.6003 100.589 37.8144C102.749 39.026 105.344 39.6163 108.349 39.6163C112.297 39.6163 115.586 38.5269 118.164 36.3059C120.771 34.0603 122.048 30.9221 122.048 26.9776V2V1.38373H121.432H114.146H113.53V2V26.9776C113.53 28.396 113.099 29.4472 112.288 30.2075C111.49 30.9564 110.217 31.3879 108.349 31.3879C107.033 31.3879 105.947 31.1204 105.066 30.6147C104.189 30.1109 103.479 29.3499 102.941 28.3027L102.65 27.7354L102.093 28.0456L95.7648 31.5694ZM150.353 38.474L150.496 38.8908H150.936H158.914H159.791L159.493 38.0654L146.411 1.79092L146.264 1.38373H145.831H136.737H136.304L136.157 1.79168L123.128 38.0662L122.832 38.8908H123.708H131.632H132.072L132.215 38.474L134.306 32.3614H148.262L150.353 38.474ZM199.573 2V1.38373H198.957H191.405H191.062L190.881 1.67523L180.768 17.9853L170.603 1.67406L170.422 1.38373H170.08H162.528H161.912V2V38.2745V38.8908H162.528H169.867H170.483V38.2745V16.9515L179.821 31.9159L180.002 32.2059H180.344H181.194H181.537L181.718 31.9152L191.055 16.9053V38.2745V38.8908H191.671H198.957H199.573V38.2745V2ZM205.893 1.38373H205.277V2V38.2745V38.8908H205.893H213.232H213.848V38.2745V2V1.38373H213.232H205.893ZM241.661 1.38373H241.045V2V22.219L226.207 1.63958L226.022 1.38373H225.707H220.123H219.507V2V38.2745V38.8908H220.123H227.462H228.078V38.2745V18.0073L242.916 38.6344L243.1 38.8908H243.416H249H249.616V38.2745V2V1.38373H249H241.661ZM137.07 24.444L141.311 12.1317L145.552 24.444H137.07Z" stroke="white" stroke-width="1.23255"/>
<path opacity="0.3" d="M1.38373 95.2745V95.8908H2H17.7946C21.1909 95.8908 24.0879 94.8612 26.4451 92.783C28.8163 90.6925 30.0042 87.9999 30.0042 84.7549C30.0042 82.8135 29.575 81.0869 28.6955 79.5965C27.9495 78.3322 26.8938 77.262 25.5466 76.3805C27.5918 74.5045 28.6215 72.1004 28.6215 69.2087C28.6215 66.065 27.4494 63.4588 25.115 61.4391C22.8284 59.3954 20.002 58.3837 16.6778 58.3837H2H1.38373V59V95.2745ZM19.0663 72.0838L19.0611 72.0888L19.0561 72.094C18.4358 72.7272 17.6589 73.049 16.6778 73.049H9.95518V66.3011H16.6778C17.7003 66.3011 18.4928 66.6269 19.1093 67.2562C19.7324 67.8923 20.0501 68.6835 20.0501 69.6751C20.0501 70.6576 19.7211 71.4457 19.0663 72.0838ZM20.4397 81.715L20.4396 81.7151L20.449 81.7243C21.1374 82.3951 21.4859 83.2341 21.4859 84.2885C21.4859 85.3805 21.1349 86.2564 20.4443 86.961C19.7555 87.6298 18.8881 87.9734 17.7946 87.9734H9.95518V80.6555H17.7946C18.8826 80.6555 19.7484 81.0122 20.4397 81.715ZM57.8425 88.4342V87.8179H57.2262H42.1543V80.9146H55.6308H56.2471V80.2983V73.5616V72.9453H55.6308H42.1543V66.4566H56.9603H57.5766V65.8403V59V58.3837H56.9603H34.1991H33.5828V59V95.2745V95.8908H34.1991H57.2262H57.8425V95.2745V88.4342ZM83.9374 58.3837H83.3211V59V79.219L68.4831 58.6396L68.2987 58.3837H67.9832H62.3993H61.783V59V95.2745V95.8908H62.3993H69.7382H70.3545V95.2745V75.0073L85.192 95.6344L85.3765 95.8908H85.6923H91.2763H91.8926V95.2745V59V58.3837H91.2763H83.9374ZM95.7648 88.5694L95.2459 88.8583L95.5154 89.3875C96.735 91.7823 98.4252 93.6003 100.589 94.8144C102.749 96.026 105.344 96.6163 108.349 96.6163C112.297 96.6163 115.586 95.5269 118.164 93.3059C120.771 91.0603 122.048 87.9221 122.048 83.9776V59V58.3837H121.432H114.146H113.53V59V83.9776C113.53 85.396 113.099 86.4472 112.288 87.2075C111.49 87.9564 110.217 88.3879 108.349 88.3879C107.033 88.3879 105.947 88.1204 105.066 87.6147C104.189 87.1109 103.479 86.3499 102.941 85.3027L102.65 84.7354L102.093 85.0456L95.7648 88.5694ZM150.353 95.474L150.496 95.8908H150.936H158.914H159.791L159.493 95.0654L146.411 58.7909L146.264 58.3837H145.831H136.737H136.304L136.157 58.7917L123.128 95.0662L122.832 95.8908H123.708H131.632H132.072L132.215 95.474L134.306 89.3614H148.262L150.353 95.474ZM199.573 59V58.3837H198.957H191.405H191.062L190.881 58.6752L180.768 74.9853L170.603 58.6741L170.422 58.3837H170.08H162.528H161.912V59V95.2745V95.8908H162.528H169.867H170.483V95.2745V73.9515L179.821 88.9159L180.002 89.2059H180.344H181.194H181.537L181.718 88.9152L191.055 73.9053V95.2745V95.8908H191.671H198.957H199.573V95.2745V59ZM205.893 58.3837H205.277V59V95.2745V95.8908H205.893H213.232H213.848V95.2745V59V58.3837H213.232H205.893ZM241.661 58.3837H241.045V59V79.219L226.207 58.6396L226.022 58.3837H225.707H220.123H219.507V59V95.2745V95.8908H220.123H227.462H228.078V95.2745V75.0073L242.916 95.6344L243.1 95.8908H243.416H249H249.616V95.2745V59V58.3837H249H241.661ZM137.07 81.444L141.311 69.1317L145.552 81.444H137.07Z" stroke="white" stroke-width="1.23255"/>
<path opacity="0.3" d="M1.38373 152.275V152.891H2H17.7946C21.1909 152.891 24.0879 151.861 26.4451 149.783C28.8163 147.693 30.0042 145 30.0042 141.755C30.0042 139.813 29.575 138.087 28.6955 136.596C27.9495 135.332 26.8938 134.262 25.5466 133.38C27.5918 131.504 28.6215 129.1 28.6215 126.209C28.6215 123.065 27.4494 120.459 25.115 118.439C22.8284 116.395 20.002 115.384 16.6778 115.384H2H1.38373V116V152.275ZM19.0663 129.084L19.0611 129.089L19.0561 129.094C18.4358 129.727 17.6589 130.049 16.6778 130.049H9.95518V123.301H16.6778C17.7003 123.301 18.4928 123.627 19.1093 124.256C19.7324 124.892 20.0501 125.684 20.0501 126.675C20.0501 127.658 19.7211 128.446 19.0663 129.084ZM20.4397 138.715L20.4396 138.715L20.449 138.724C21.1374 139.395 21.4859 140.234 21.4859 141.289C21.4859 142.381 21.1349 143.256 20.4443 143.961C19.7555 144.63 18.8881 144.973 17.7946 144.973H9.95518V137.655H17.7946C18.8826 137.655 19.7484 138.012 20.4397 138.715ZM57.8425 145.434V144.818H57.2262H42.1543V137.915H55.6308H56.2471V137.298V130.562V129.945H55.6308H42.1543V123.457H56.9603H57.5766V122.84V116V115.384H56.9603H34.1991H33.5828V116V152.275V152.891H34.1991H57.2262H57.8425V152.275V145.434ZM83.9374 115.384H83.3211V116V136.219L68.4831 115.64L68.2987 115.384H67.9832H62.3993H61.783V116V152.275V152.891H62.3993H69.7382H70.3545V152.275V132.007L85.192 152.634L85.3765 152.891H85.6923H91.2763H91.8926V152.275V116V115.384H91.2763H83.9374ZM95.7648 145.569L95.2459 145.858L95.5154 146.388C96.735 148.782 98.4252 150.6 100.589 151.814C102.749 153.026 105.344 153.616 108.349 153.616C112.297 153.616 115.586 152.527 118.164 150.306C120.771 148.06 122.048 144.922 122.048 140.978V116V115.384H121.432H114.146H113.53V116V140.978C113.53 142.396 113.099 143.447 112.288 144.207C111.49 144.956 110.217 145.388 108.349 145.388C107.033 145.388 105.947 145.12 105.066 144.615C104.189 144.111 103.479 143.35 102.941 142.303L102.65 141.735L102.093 142.046L95.7648 145.569ZM150.353 152.474L150.496 152.891H150.936H158.914H159.791L159.493 152.065L146.411 115.791L146.264 115.384H145.831H136.737H136.304L136.157 115.792L123.128 152.066L122.832 152.891H123.708H131.632H132.072L132.215 152.474L134.306 146.361H148.262L150.353 152.474ZM199.573 116V115.384H198.957H191.405H191.062L190.881 115.675L180.768 131.985L170.603 115.674L170.422 115.384H170.08H162.528H161.912V116V152.275V152.891H162.528H169.867H170.483V152.275V130.952L179.821 145.916L180.002 146.206H180.344H181.194H181.537L181.718 145.915L191.055 130.905V152.275V152.891H191.671H198.957H199.573V152.275V116ZM205.893 115.384H205.277V116V152.275V152.891H205.893H213.232H213.848V152.275V116V115.384H213.232H205.893ZM241.661 115.384H241.045V116V136.219L226.207 115.64L226.022 115.384H225.707H220.123H219.507V116V152.275V152.891H220.123H227.462H228.078V152.275V132.007L242.916 152.634L243.1 152.891H243.416H249H249.616V152.275V116V115.384H249H241.661ZM137.07 138.444L141.311 126.132L145.552 138.444H137.07Z" stroke="white" stroke-width="1.23255"/>
<path opacity="0.3" d="M1.38373 209.275V209.891H2H17.7946C21.1909 209.891 24.0879 208.861 26.4451 206.783C28.8163 204.693 30.0042 202 30.0042 198.755C30.0042 196.813 29.575 195.087 28.6955 193.596C27.9495 192.332 26.8938 191.262 25.5466 190.38C27.5918 188.504 28.6215 186.1 28.6215 183.209C28.6215 180.065 27.4494 177.459 25.115 175.439C22.8284 173.395 20.002 172.384 16.6778 172.384H2H1.38373V173V209.275ZM19.0663 186.084L19.0611 186.089L19.0561 186.094C18.4358 186.727 17.6589 187.049 16.6778 187.049H9.95518V180.301H16.6778C17.7003 180.301 18.4928 180.627 19.1093 181.256C19.7324 181.892 20.0501 182.684 20.0501 183.675C20.0501 184.658 19.7211 185.446 19.0663 186.084ZM20.4397 195.715L20.4396 195.715L20.449 195.724C21.1374 196.395 21.4859 197.234 21.4859 198.289C21.4859 199.381 21.1349 200.256 20.4443 200.961C19.7555 201.63 18.8881 201.973 17.7946 201.973H9.95518V194.655H17.7946C18.8826 194.655 19.7484 195.012 20.4397 195.715ZM57.8425 202.434V201.818H57.2262H42.1543V194.915H55.6308H56.2471V194.298V187.562V186.945H55.6308H42.1543V180.457H56.9603H57.5766V179.84V173V172.384H56.9603H34.1991H33.5828V173V209.275V209.891H34.1991H57.2262H57.8425V209.275V202.434ZM83.9374 172.384H83.3211V173V193.219L68.4831 172.64L68.2987 172.384H67.9832H62.3993H61.783V173V209.275V209.891H62.3993H69.7382H70.3545V209.275V189.007L85.192 209.634L85.3765 209.891H85.6923H91.2763H91.8926V209.275V173V172.384H91.2763H83.9374ZM95.7648 202.569L95.2459 202.858L95.5154 203.388C96.735 205.782 98.4252 207.6 100.589 208.814C102.749 210.026 105.344 210.616 108.349 210.616C112.297 210.616 115.586 209.527 118.164 207.306C120.771 205.06 122.048 201.922 122.048 197.978V173V172.384H121.432H114.146H113.53V173V197.978C113.53 199.396 113.099 200.447 112.288 201.207C111.49 201.956 110.217 202.388 108.349 202.388C107.033 202.388 105.947 202.12 105.066 201.615C104.189 201.111 103.479 200.35 102.941 199.303L102.65 198.735L102.093 199.046L95.7648 202.569ZM150.353 209.474L150.496 209.891H150.936H158.914H159.791L159.493 209.065L146.411 172.791L146.264 172.384H145.831H136.737H136.304L136.157 172.792L123.128 209.066L122.832 209.891H123.708H131.632H132.072L132.215 209.474L134.306 203.361H148.262L150.353 209.474ZM199.573 173V172.384H198.957H191.405H191.062L190.881 172.675L180.768 188.985L170.603 172.674L170.422 172.384H170.08H162.528H161.912V173V209.275V209.891H162.528H169.867H170.483V209.275V187.952L179.821 202.916L180.002 203.206H180.344H181.194H181.537L181.718 202.915L191.055 187.905V209.275V209.891H191.671H198.957H199.573V209.275V173ZM205.893 172.384H205.277V173V209.275V209.891H205.893H213.232H213.848V209.275V173V172.384H213.232H205.893ZM241.661 172.384H241.045V173V193.219L226.207 172.64L226.022 172.384H225.707H220.123H219.507V173V209.275V209.891H220.123H227.462H228.078V209.275V189.007L242.916 209.634L243.1 209.891H243.416H249H249.616V209.275V173V172.384H249H241.661ZM137.07 195.444L141.311 183.132L145.552 195.444H137.07Z" stroke="white" stroke-width="1.23255"/>
</svg>
