<svg width="24" height="24" viewBox="0 0 24 24" fill="none" xmlns="http://www.w3.org/2000/svg">
<path d="M11.7789 11.5341C12.9514 11.5341 13.9666 11.1136 14.7962 10.2839C15.6257 9.45439 16.0462 8.43939 16.0462 7.26682C16.0462 6.09459 15.6257 5.0795 14.796 4.24967C13.9663 3.42026 12.9512 2.99976 11.7789 2.99976C10.6063 2.99976 9.59129 3.42026 8.76177 4.24981C7.93226 5.07936 7.51158 6.09449 7.51158 7.26682C7.51158 8.43939 7.93222 9.45452 8.76191 10.2841C9.5916 11.1135 10.6067 11.5341 11.7789 11.5341ZM19.2456 16.6233C19.2216 16.2781 19.1732 15.9014 19.102 15.5038C19.0301 15.1031 18.9375 14.7244 18.8267 14.3782C18.7122 14.0204 18.5565 13.6671 18.364 13.3285C18.1642 12.9771 17.9296 12.671 17.6662 12.4192C17.3909 12.1558 17.0538 11.944 16.6639 11.7894C16.2755 11.6358 15.8449 11.5579 15.3844 11.5579C15.2036 11.5579 15.0287 11.6321 14.6909 11.8521C14.4508 12.0084 14.2099 12.1637 13.9684 12.3178C13.7363 12.4657 13.4219 12.6043 13.0335 12.7297C12.6547 12.8523 12.27 12.9145 11.8903 12.9145C11.5106 12.9145 11.126 12.8523 10.7467 12.7297C10.3588 12.6044 10.0444 12.4659 9.81258 12.318C9.54371 12.1462 9.30045 11.9894 9.08943 11.8519C8.75205 11.632 8.57699 11.5578 8.39615 11.5578C7.93548 11.5578 7.50511 11.6358 7.11676 11.7896C6.72719 11.9438 6.38994 12.1556 6.11433 12.4194C5.85117 12.6713 5.61638 12.9772 5.41686 13.3285C5.22453 13.6671 5.06882 14.0203 4.95417 14.3784C4.84344 14.7245 4.75088 15.1031 4.67897 15.5038C4.60772 15.9009 4.55935 16.2776 4.5354 16.6237C4.51158 16.9719 4.49978 17.3208 4.5 17.6699C4.5 18.5947 4.79399 19.3434 5.37374 19.8956C5.94633 20.4405 6.70394 20.7169 7.62525 20.7169H16.1561C17.0774 20.7169 17.8348 20.4406 18.4075 19.8956C18.9874 19.3438 19.2814 18.595 19.2814 17.6697C19.2812 17.3128 19.2692 16.9607 19.2456 16.6233Z" fill="#3B3C40"/>
</svg>
