<svg width="586" height="245" viewBox="0 0 586 245" fill="none" xmlns="http://www.w3.org/2000/svg">
<path d="M36.9702 62.0186H37.1923C37.1923 62.0186 37.1923 62.0186 37.1923 62.2061L36.9702 62.0186Z" fill="url(#paint0_linear_60_3273)"/>
<path d="M11.8465 213.218C12.9435 213.381 14.0624 213.13 14.9818 212.515C15.9012 211.899 16.554 210.964 16.8111 209.894C17.3059 208.705 17.9429 207.578 18.7084 206.539C19.499 205.505 18.3922 205.285 17.9811 204.784C16.9692 203.561 15.3881 203.843 13.9651 203.624C13.554 203.624 13.2378 203.091 12.89 202.808C13.0899 202.624 13.3131 202.466 13.554 202.338C15.1351 201.742 16.7162 201.241 18.2973 200.614C20.9219 199.516 21.2698 196.914 22.8193 195.095C23.4833 194.312 22.503 193.214 21.7441 192.368C21.5912 192.245 21.4719 192.086 21.3973 191.906C21.3227 191.725 21.2952 191.529 21.3172 191.336C21.3393 191.142 21.4103 190.957 21.5236 190.797C21.6369 190.638 21.7888 190.51 21.9655 190.424C23.3549 189.775 24.4731 188.666 25.1276 187.288C26.7612 184.988 29.2129 183.386 31.9896 182.805C37.5234 181.551 42.5829 178.854 48.5594 178.917C49.6456 178.721 50.7062 178.406 51.7216 177.977C54.3793 177.005 57.154 176.383 59.9749 176.127C63.1371 176.127 65.4771 174.245 68.4179 174.465C71.3588 174.684 73.6672 172.302 76.7345 172.584C77.2721 172.584 77.8412 171.173 77.5882 170.703C77.3353 170.232 76.7977 169.95 76.2285 170.452C75.0585 171.486 74.0466 170.076 73.3509 170.232C72.0228 170.514 70.9477 171.424 69.3349 171.392C65.2241 171.392 61.0817 171.392 56.9392 171.392C56.3843 171.357 55.8392 171.23 55.3265 171.016C55.1051 171.016 54.8205 170.64 54.8205 170.452C54.8205 170.264 54.8205 169.198 55.1051 169.041C56.7817 168.033 58.622 167.323 60.5441 166.94C62.486 166.422 64.3797 165.74 66.2044 164.902C67.4693 164.589 67.2163 163.24 67.0266 162.237C66.9602 161.832 66.7532 161.464 66.4413 161.194C66.1294 160.925 65.7324 160.773 65.319 160.764C62.6628 160.764 60.0065 160.607 57.3503 160.764C54.6941 160.92 52.0378 162.582 48.9389 162.457C47.8321 162.457 46.6305 163.868 45.4605 164.62C45.2477 164.743 45.0102 164.818 44.7648 164.839C44.4594 164.44 44.2437 163.98 44.1324 163.491C44.1324 162.206 44.1324 160.795 46.1562 160.732C48.8124 160.732 50.7729 158.632 53.6821 158.945C56.5914 159.259 58.3622 157.189 61.2082 157.44C63.1687 157.597 63.9593 156.374 63.1055 154.995C62.4552 153.883 61.9554 152.692 61.6193 151.452C61.273 150.409 60.5651 149.522 59.6214 148.948C58.6777 148.374 57.5592 148.15 56.4649 148.316C56.5652 148.796 56.5394 149.293 56.3899 149.76C56.2403 150.226 55.9721 150.647 55.6111 150.981C55.2945 150.604 55.0386 150.181 54.8522 149.727C54.7725 149.271 54.7725 148.804 54.8522 148.348H54.6624C54.6746 148.296 54.6746 148.242 54.6624 148.191C53.99 148.055 53.2941 148.087 52.6373 148.284C51.9805 148.481 51.3833 148.837 50.8995 149.32C50.267 150.135 49.8559 151.075 49.2867 151.922C49.1304 152.148 48.9285 152.339 48.6936 152.483C48.4588 152.628 48.1962 152.722 47.9226 152.761C47.649 152.799 47.3703 152.78 47.1043 152.706C46.8383 152.632 46.5908 152.504 46.3775 152.329C45.6038 151.61 44.8851 150.834 44.2272 150.009C42.8043 148.16 41.571 147.689 38.5353 148.316C36.7645 148.661 36.9858 150.041 36.9226 151.201C36.1324 151.114 35.3861 150.796 34.7781 150.288C34.1702 149.78 33.7279 149.105 33.5075 148.348C33.3396 147.719 33.3419 147.058 33.514 146.43C33.6861 145.803 34.0219 145.231 34.4877 144.773C35.3731 143.77 35.9739 142.579 36.7961 141.638C37.1362 141.273 37.5955 141.04 38.0926 140.98C40.3061 142.704 42.077 140.76 43.4367 140.102C45.5119 138.65 47.8375 137.587 50.2986 136.966C51.5635 136.81 51.0576 135.273 51.2789 134.333C53.4722 132.844 55.7767 131.523 58.1724 130.382C58.6914 130.28 59.1583 130.002 59.493 129.596C59.8277 129.19 60.0093 128.681 60.0065 128.156L56.5597 126.745C56.5597 126.965 56.5598 127.215 56.3384 127.278C53.1663 128.249 50.0609 129.422 47.0416 130.79C46.5356 131.103 45.7135 130.131 45.9348 129.316C46.1542 127.762 46.7451 126.283 47.6582 125.001C48.5713 123.719 49.7802 122.673 51.184 121.948C57.9417 119.031 65.0529 116.997 72.3391 115.897C75.2042 115.747 78.0451 115.295 80.8137 114.549C83.6839 113.964 86.6284 113.827 89.5414 114.141C90.1085 114.197 90.6798 114.088 91.1856 113.828C93.1778 112.26 95.8657 113.326 97.8579 112.479C99.6096 111.481 101.637 111.064 103.645 111.288C106.016 111.884 107.692 109.752 109.969 110.598C110.918 110.912 112.53 110.034 113.732 109.501C114.934 108.968 114.649 107.745 114.776 106.773C114.902 105.801 115.787 105.049 117.116 105.049L129.48 104.861C130.918 104.994 132.369 104.845 133.749 104.422C135.628 103.65 137.672 103.359 139.694 103.575C145.291 103.575 150.919 103.136 156.485 103.575C162.05 104.014 167.869 101.568 173.75 101.976C174.035 101.976 174.383 101.412 174.699 101.098C174.478 101.098 174.225 100.691 174.003 100.659C172.517 100.659 171.062 100.659 169.608 100.659C157.844 100.659 146.05 100.659 134.286 100.659C130.27 100.659 126.128 99.9067 122.207 101.788C121.384 102.196 119.614 100.879 118.254 100.847C116.894 100.816 115.25 102.101 113.321 102.039C106.554 102.039 99.7868 102.039 92.9881 102.039C92.3177 102.085 91.6498 101.919 91.0812 101.564C90.5126 101.209 90.0729 100.683 89.8259 100.064C89.0986 98.9348 87.0748 98.4645 85.6202 97.712C83.8178 99.7186 81.8888 96.646 80.2761 97.712C77.6515 99.4992 74.6791 98.8094 71.8015 98.9975C69.205 98.6814 66.5706 99.0715 64.1806 100.126C63.0985 100.519 61.9108 100.519 60.8287 100.126C59.1675 99.7728 57.6032 99.0668 56.2435 98.0569C55.8596 97.5542 55.3777 97.1332 54.8263 96.8189C54.275 96.5046 53.6655 96.3035 53.0342 96.2274C52.4029 96.1514 51.7626 96.2019 51.1514 96.3762C50.5402 96.5504 49.9706 96.8448 49.4764 97.2417C48.9465 97.3814 48.3937 97.4144 47.8506 97.339C47.3075 97.2637 46.7852 97.0813 46.3143 96.8027C45.1077 96.1035 43.7268 95.7557 42.3299 95.7994C42.292 95.4303 42.1206 95.0873 41.8474 94.8337C41.5742 94.5801 41.2177 94.4331 40.8437 94.4199C36.0055 94.6393 31.0409 93.6047 26.3609 95.6741C25.2225 96.1757 24.3055 94.9842 23.5782 94.2317C22.8509 93.4793 22.9457 93.8869 22.8193 93.9496L23.1038 93.6674C24.3301 92.2598 25.7451 91.0256 27.3095 89.9991C28.3214 89.3721 29.365 90.438 30.4717 90.7516C32.9557 91.4266 35.577 91.4266 38.061 90.7516C38.4088 90.7516 38.5669 90.0932 38.7883 89.6856H41.3497C43.5948 89.6856 43.9743 89.2466 44.1324 87.6162C44.2905 85.9859 43.911 85.4215 41.9821 85.0766C41.4129 85.0766 40.7804 85.0766 40.2429 85.0766C39.7053 85.0766 38.6618 84.5435 38.9464 83.5402C39.0224 83.1448 39.2406 82.7901 39.5605 82.5422C39.8803 82.2942 40.2801 82.1698 40.6856 82.1921C42.706 82.3342 44.7362 82.1435 46.6937 81.6277C49.0999 80.6305 51.7241 80.2634 54.3146 80.5617C57.4768 80.7812 59.5955 78.5865 62.6944 78.9941C65.2839 79.4741 67.947 79.3993 70.505 78.7746C73.2096 77.9575 75.9822 77.3805 78.7899 77.0502C79.0745 77.0502 79.2326 76.3918 79.4223 75.9842H62.8525C61.1539 76.0183 59.4699 76.3036 57.8563 76.8307C54.2388 77.9069 50.3986 78.0151 46.7254 77.1442C45.4289 76.8621 44.3221 75.8901 42.741 76.0155C37.8713 76.329 32.8434 75.2003 28.1634 77.4264C27.0074 77.6809 25.8093 77.6809 24.6533 77.4264C24.1424 77.2551 23.654 77.0235 23.1987 76.7366C23.5816 76.416 23.9945 76.1326 24.4319 75.8901C28.7049 74.3553 33.139 73.3035 37.6499 72.7548C39.6737 72.4413 41.7607 72.7547 43.8162 72.5666C44.6364 72.4274 45.4208 72.1291 46.1245 71.6887C46.584 71.4057 46.9304 70.9736 47.1048 70.466C47.1048 70.3092 46.4408 69.7762 46.0297 69.7135C44.5751 69.5567 43.1204 69.5567 41.6658 69.4626C41.3979 69.3668 41.1662 69.1916 41.0018 68.961C41.0018 68.961 41.1915 68.6161 41.3497 68.5221C42.8359 67.6755 44.67 68.1771 46.251 67.1738C49.1859 65.3383 52.678 64.5837 56.117 65.0418C61.4928 65.7316 66.2993 63.4115 71.4537 63.2234C71.7066 63.2234 71.928 62.9098 72.1493 62.7531C72.3707 62.5963 71.8647 62.3455 71.6434 62.2514C71.1283 62.0503 70.5835 61.9337 70.0306 61.9065C63.7063 62.3141 57.1605 60.6524 51.0575 63.3488H42.3299C42.2304 62.8724 41.9544 62.4502 41.5563 62.1658C41.1582 61.8813 40.667 61.7552 40.1797 61.8124C39.1678 61.8124 38.1559 61.8124 37.0175 61.8124C37.0471 61.476 37.1973 61.1613 37.441 60.9254C37.6847 60.6896 38.0057 60.5481 38.3456 60.5269C40.2113 60.3701 42.1086 60.3702 44.0059 60.3075C44.5434 59.461 45.587 58.2382 45.334 57.956C44.0691 56.6392 44.2588 55.1341 43.8478 53.6605C43.5723 53.379 43.2348 53.1645 42.8617 53.034C42.4887 52.9034 42.0902 52.8603 41.6975 52.9081C40.201 53.7654 38.4918 54.1891 36.7645 54.1309C31.9896 53.692 27.7839 55.824 23.1987 56.2943C22.503 56.2943 21.9338 57.4544 21.08 56.2943C20.7006 55.7926 21.5544 54.6638 22.7244 54.0681C24.745 52.9685 27.0303 52.4373 29.3333 52.5318C31.6601 52.616 33.9896 52.4795 36.2901 52.1242C36.6873 52.0181 37.0554 51.8249 37.3673 51.559C37.6793 51.2932 37.9271 50.9614 38.0926 50.588C38.0926 50.149 37.6183 49.2711 37.0491 48.8635C35.9423 48.1423 34.6458 47.6721 33.5391 46.951C33.3177 46.951 33.539 45.6968 33.7604 45.6027C35.384 45.2201 36.9794 44.7277 38.5353 44.1291C42.0842 42.2564 46.1031 41.4399 50.1089 41.7776C51.2789 41.7776 52.4805 41.7776 53.6505 41.7776C55.211 41.9226 56.7847 41.7315 58.2638 41.2174C59.7429 40.7033 61.0924 39.8784 62.22 38.7991C64.8932 36.754 67.9769 35.3001 71.2639 34.535C73.1928 33.7825 75.8175 34.2528 76.5448 31.5878C76.7345 30.9294 78.4737 33.2809 79.1693 31.7446C81.5726 26.2891 87.4227 25.129 92.7035 23.4986C94.5692 22.9343 96.4981 22.6208 98.3954 21.9937C100.714 21.6028 103.076 21.529 105.415 21.7742C107.155 21.7742 108.767 19.8617 110.665 21.4607L113.827 18.9524C115.123 20.0811 116.23 19.7049 117.527 18.9524C118.823 18.1999 120.025 17.5102 120.689 17.7924C122.807 18.9524 124.357 17.2593 126.191 17.3534C131.041 17.2099 135.817 16.1455 140.263 14.2181C141.022 13.9672 141.148 13.5283 140.769 13.2147C140.389 12.9012 140.294 12.7445 140.073 12.7445C136.554 12.4708 133.016 12.5443 129.511 12.964C126.349 13.6224 123.377 14.124 120.373 14.9392C116.293 16.0679 111.803 16.2874 108.293 18.827C107.446 19.0692 106.547 19.0692 105.7 18.827C105.257 18.827 104.878 18.294 104.498 18.0118C106.537 15.3946 109.343 13.4671 112.53 12.4936C115.693 11.8352 118.855 11.459 121.764 10.7379C124.866 9.95502 128.05 9.53414 131.251 9.48374C132.691 9.6231 134.145 9.46289 135.519 9.01341C137.401 8.24782 139.438 7.93621 141.464 8.10419C145.765 8.10419 150.16 8.54313 154.113 6.63058C155.267 6.36093 156.469 6.36093 157.623 6.63058C158.003 6.63058 158.319 7.16356 158.667 7.44574C158.445 7.44574 158.192 7.91607 158.003 7.91607C155.473 7.50848 153.702 9.17016 151.678 9.73452C151.362 9.73452 151.172 10.3303 150.951 10.6438C151.451 10.8577 151.969 11.0257 152.5 11.1455C153.365 11.3352 154.261 11.3352 155.125 11.1455C158.926 9.72798 163.006 9.20213 167.046 9.60913C168.754 9.60913 169.829 9.23288 169.924 7.5398C169.924 6.88138 170.651 6.72465 171.157 7.13224C171.702 7.56325 172.335 7.87079 173.013 8.03329C173.69 8.19578 174.395 8.20925 175.078 8.0728C175.078 7.32032 175.078 6.47381 175.363 5.9408C175.648 5.40779 176.754 5.21966 177.545 5.09425C178.43 5.04688 179.316 5.04688 180.201 5.09425C187.253 5.09425 194.304 4.84342 201.356 5.09425C203.38 5.09425 205.309 3.30711 206.953 4.46719C208.598 5.62726 210.59 3.27576 212.424 4.46719C214.318 5.22361 216.388 5.44077 218.4 5.09425C222.227 5.09425 226.053 5.09424 229.879 5.28236C231.01 5.18074 232.15 5.35289 233.199 5.78402C234.433 6.59921 235.065 6.00349 236.109 5.62725C237.152 5.25101 237.879 6.91274 239.018 5.87808C240.156 4.84342 241.358 7.10086 242.781 5.87808C244.204 4.6553 246.164 5.37643 247.872 5.25102C249.579 5.12561 250.813 5.25102 252.267 5.25102H263.714C265.169 5.25102 266.877 5.5959 268.015 5.00019C271.019 3.1817 274.339 3.93417 277.502 3.87147C280.664 3.80876 284.49 4.09093 288 4.24769C289.391 6.00348 291.889 3.05629 293.218 5.15697C295.243 5.3913 297.285 5.45422 299.321 5.34508C301.597 5.09425 303.052 6.66194 305.107 6.78735C308.321 6.52518 311.555 6.94194 314.594 8.01013C317.219 9.26426 320.918 7.69658 323.669 9.85996C327.179 9.85996 330.658 9.85998 334.136 9.5778C334.389 9.5778 334.611 8.95069 334.863 8.51175H336.571C336.625 8.25295 336.736 8.00923 336.896 7.7981C337.056 7.58696 337.262 7.41368 337.498 7.29074C337.734 7.1678 337.994 7.09822 338.26 7.08708C338.527 7.07593 338.792 7.1235 339.038 7.2263C339.599 7.55027 340.229 7.73892 340.877 7.77705C341.525 7.81517 342.173 7.70167 342.769 7.44574C344.065 6.94409 345.362 5.37644 347.228 6.28569C349.093 7.19493 350.39 5.50183 351.844 5.28236C355.481 4.81206 358.865 2.86815 362.596 5.28236C363.355 5.78401 364.873 5.28235 366.043 5.47047C368.699 5.47047 371.355 5.47051 373.98 5.65863C374.368 5.64508 374.748 5.7708 375.05 6.0127C375.352 6.25461 375.556 6.59647 375.624 6.97546C376.456 7.02249 377.29 7.02249 378.122 6.97546C380.951 7.01847 383.756 7.49436 386.439 8.38635C388.306 8.82975 390.061 9.65175 391.593 10.8006C392.409 11.3801 393.388 11.6917 394.392 11.6917C395.395 11.6917 396.374 11.3801 397.19 10.8006C399.087 9.60915 400.542 10.5184 400.352 12.4623C400.305 13.2245 400.305 13.9889 400.352 14.7511C400.392 15.1502 400.585 15.5188 400.891 15.7813C401.197 16.0437 401.593 16.18 401.997 16.162C403.451 16.162 404.906 16.162 406.361 16.162C409.523 15.9732 412.697 16.0466 415.847 16.3815C418.828 17.1434 421.705 18.2593 424.417 19.7049C425.732 20.2065 427.086 20.6049 428.464 20.8964C431.964 21.8483 435.388 23.0534 438.71 24.502C440.563 25.1785 442.521 25.5287 444.496 25.5366C444.565 25.9038 444.754 26.2382 445.035 26.4877C445.315 26.7372 445.67 26.8879 446.046 26.9162C446.868 27.073 447.785 26.9162 448.639 27.1356C448.892 27.1356 449.082 27.4492 449.303 27.606C449.018 27.9195 448.765 28.3584 448.354 28.4839C447.943 28.6093 447.184 28.4839 446.615 28.4839C446.084 28.6036 445.566 28.7715 445.066 28.9855C445.287 29.299 445.413 29.7693 445.73 29.8947C448.303 31.1202 451.129 31.7322 453.983 31.6819C454.204 31.6819 454.457 31.964 454.679 32.1208C454.362 32.4343 454.141 32.9047 453.762 32.9987C451.011 33.5944 447.153 31.3683 445.761 35.4756C445.761 35.7578 444.781 35.9146 444.212 35.9773C443.338 36.0402 442.461 36.0402 441.587 35.9773C437.002 35.6951 432.101 36.9493 427.8 35.0053C427.452 35.0053 426.472 35.7578 425.808 36.2281C425.144 36.6984 425.144 37.2001 425.808 37.2941C428.383 37.3019 430.946 37.6499 433.429 38.3288C435.937 38.983 438.52 39.3098 441.113 39.3007C441.967 39.4889 442.536 39.8651 442.599 40.6489C435.421 40.4294 428.211 41.5582 421.065 39.4575C416.859 38.2034 412.527 40.1159 408.416 40.9311C406.93 41.2133 408.068 42.0285 408.416 42.5301C408.764 43.0318 409.776 43.5648 410.187 44.2232C410.946 45.446 409.681 45.2579 408.953 45.3519C408.226 45.446 407.942 45.3519 407.436 45.3519C407.657 45.7595 407.847 46.3552 408.1 46.3866C410.105 46.8018 412.159 46.939 414.203 46.7942C416.29 46.4493 417.713 48.6127 419.737 47.578C420.875 46.9823 421.286 47.4213 421.286 48.3305C421.267 48.5754 421.188 48.812 421.056 49.0197C420.924 49.2274 420.742 49.3998 420.527 49.522C419.452 49.8041 418.282 49.8668 417.144 50.0863C416.881 50.1759 416.657 50.3532 416.511 50.588C416.511 50.588 416.732 51.0269 416.891 51.0269C418.314 51.2463 419.737 51.3404 421.16 51.5599C421.685 51.6398 422.19 51.8208 422.646 52.0929C422.456 52.908 421.665 52.9707 420.843 52.9707C417.302 52.9707 413.76 52.9708 410.25 53.1276C409.997 53.1276 409.776 53.4097 409.554 53.5665C409.87 53.88 410.155 54.4131 410.471 54.4131C413.95 54.4131 416.796 56.3883 420.622 56.1375C426.472 55.6985 432.417 56.1375 438.298 56.1375C439.089 56.1375 440.575 56.5764 440.575 56.7959C440.575 59.3982 443.358 59.0847 444.876 59.9312C446.394 60.7777 448.86 60.4015 450.852 60.5583C452.339 60.5583 453.825 60.5583 455.28 60.5583C456.734 60.5583 457.651 60.5583 458.821 60.5583C459.232 60.5583 459.58 61.0286 459.959 61.3107L458.884 62.5022C458.318 62.9513 457.66 63.2736 456.956 63.4468C456.251 63.62 455.518 63.64 454.805 63.5055C440.67 63.5055 426.535 63.5055 412.369 63.5055C407.258 63.7257 402.231 64.8734 397.538 66.8916C397.309 67.034 397.105 67.2143 396.937 67.4247C397.145 67.6091 397.367 67.7769 397.601 67.9263C397.856 68.0284 398.121 68.102 398.392 68.1458C399.246 68.1458 400.131 68.1458 400.953 68.3966C401.21 68.5127 401.446 68.6718 401.649 68.8669C401.491 69.055 401.333 69.3372 401.143 69.3686C399.719 69.5781 398.282 69.6934 396.842 69.7135C394.66 69.7135 395.261 71.5947 394.249 72.3158C394.028 72.3158 393.332 72.0336 392.826 71.8768C392.32 71.72 391.561 71.2185 391.309 71.3752C388.413 72.6961 385.215 73.2265 382.043 72.9115C381.759 72.9115 381.506 73.4758 381.221 73.758C381.442 73.9148 381.695 74.197 381.917 74.197C383.956 73.9532 386.022 74.0699 388.02 74.5419C390.659 75.741 393.58 76.1966 396.463 75.8587C400.495 75.9032 404.496 76.5696 408.321 77.834C409.704 78.1607 411.066 78.569 412.4 79.0567C414.482 80.0194 416.74 80.5469 419.036 80.6062C421.332 80.6656 423.616 80.2555 425.745 79.4017C426.569 79.1276 427.438 79.0105 428.306 79.0567C431.244 78.8844 434.19 78.8844 437.129 79.0567C440.291 79.3389 442.694 77.6458 445.572 77.5831C449.682 77.5831 453.825 77.5831 457.936 77.5831C458.656 77.6939 459.351 77.9273 459.991 78.2729C459.51 78.5379 458.985 78.7182 458.442 78.806C454.9 78.806 451.358 78.806 447.817 79.0255C447.374 79.0255 446.963 79.5271 446.52 79.7779C446.742 79.966 446.931 80.2169 447.184 80.2796C449.55 81.2957 452.074 81.9002 454.647 82.0666C456.933 82.0548 459.207 82.4041 461.383 83.1013C464.379 84.0583 467.478 84.6684 470.616 84.9198C476.213 84.9198 481.336 87.4281 486.996 86.7696C489.615 88.0034 492.519 88.5229 495.408 88.2746C496.582 88.3428 497.698 88.8075 498.57 89.5915C499.424 90.1872 500.309 90.7202 501.194 91.2845C501.479 93.1971 503.977 92.6955 505.021 93.8869C506.064 95.0783 506.127 95.2038 505.4 96.3638C504.673 97.5239 505.052 98.8407 506.76 98.9975C508.467 99.1543 509.669 99.1856 511.092 99.4364C511.377 99.4364 511.535 100.064 511.756 100.471C508.593 100.778 505.402 100.662 502.27 100.126C499.04 99.2926 495.871 98.2452 492.783 96.9909C490.298 95.6752 487.561 94.8953 484.751 94.7021C480.545 94.7021 476.94 92.9776 472.861 92.6955C468.726 92.2741 464.683 91.2163 460.877 89.5601C457.872 90.0931 455.058 87.7103 451.896 89.278C450.763 89.6237 449.551 89.6237 448.418 89.278C446.868 88.9644 445.445 87.8984 443.832 89.0271C441.872 87.3653 440.164 88.2747 438.33 89.278C437.78 89.4044 437.202 89.3144 436.717 89.0271C433.555 87.2399 429.887 88.2746 426.472 88.2432C425.555 88.2432 425.555 88.6822 426.156 89.278C426.757 89.8737 427.263 90.5635 425.966 90.877C424.669 91.1905 422.393 90.438 421.855 92.476C421.167 92.6087 420.458 92.5934 419.776 92.4311C419.094 92.2688 418.455 91.9634 417.902 91.5354C417.428 91.1278 416.859 91.2845 416.701 91.9743C416.623 92.214 416.608 92.4696 416.658 92.7166C416.708 92.9636 416.82 93.1938 416.985 93.3852C417.618 93.8242 418.63 93.8869 419.262 94.3572C422.962 97.179 422.962 97.2417 424.417 97.2104L435.927 97.0536C437.445 97.0536 437.919 96.1757 437.824 95.047C437.729 93.9182 438.235 92.57 440.164 92.57H449.018C449.24 92.57 449.682 92.9776 449.651 93.0403C449.619 93.103 449.208 93.9183 448.955 93.9183L440.986 94.2005C440.67 94.2005 440.322 94.7335 440.101 95.0783C439.88 95.4232 440.354 95.5172 440.544 95.7054C441.253 96.5938 442.287 97.1685 443.421 97.3044C443.738 97.3044 444.085 97.8061 444.402 98.0882C444.18 98.245 443.927 98.5271 443.674 98.5271C442.213 98.6681 440.741 98.6681 439.279 98.5271C436.781 98.2763 435.263 100.502 432.67 100.22C430.329 99.9224 427.959 99.9224 425.618 100.22C423.978 100.606 422.387 101.174 420.875 101.913C420.685 101.913 420.401 102.321 420.432 102.384C420.583 102.621 420.821 102.79 421.096 102.854C424.828 103.167 428.116 105.017 432.101 104.672C436.085 104.328 440.354 104.672 444.465 104.672C445.951 104.672 447.785 104.233 448.829 104.829C452.37 106.836 456.26 105.864 459.959 106.24C461.129 106.24 462.711 105.989 463.375 106.554C465.999 108.686 469.699 107.087 472.482 108.842C474.759 110.222 478.11 108.842 480.925 110.222C483.739 111.602 487.249 110.63 490.411 110.974C491.253 111.072 492.069 111.328 492.815 111.727C494.459 112.668 496.261 112.166 497.969 112.385C499.677 112.605 500.72 114.267 502.775 114.016C506.204 113.824 509.61 114.666 512.547 116.43C514.932 117.879 517.537 118.938 520.262 119.565C523.279 120.355 526.342 120.962 529.433 121.384C532.255 121.757 535.052 122.291 537.812 122.983C540.154 123.265 542.522 123.265 544.864 122.983C547.773 122.544 549.734 124.77 552.422 124.519C556.058 124.206 559.126 126.024 562.572 126.526C562.889 126.526 563.142 127.278 563.3 127.717C563.458 128.156 562.699 129.191 561.687 129.034C560.675 128.877 559.315 128.062 558.525 128.407C557.165 129.065 556.533 128.407 555.552 127.999C555.184 127.771 554.752 127.666 554.319 127.7C553.887 127.734 553.476 127.905 553.149 128.187C552.295 129.003 551.157 129.598 549.987 128.877C548.201 127.881 546.137 127.485 544.105 127.748C543.599 127.748 542.651 128.156 542.651 128.313C542.651 129.159 543.694 129.159 544.453 129.316C544.699 129.406 544.909 129.57 545.054 129.786C544.801 130.131 544.485 130.664 544.137 130.696C542.682 130.696 541.196 130.696 539.741 130.853C539.52 130.853 539.077 131.229 539.109 131.323C539.141 131.417 539.678 132.295 539.805 132.263C542.461 131.48 544.01 133.956 546.414 133.862C550.018 133.862 553.623 133.612 554.825 137.688C554.825 138.158 556.28 138.346 557.007 138.722C559.979 140.258 562.952 141.858 565.861 143.394C567.189 144.146 565.861 144.773 565.418 145.087C564.468 145.627 563.473 146.089 562.446 146.466C561.813 146.749 561.877 147.093 562.446 147.626C562.931 148.143 563.518 148.555 564.171 148.836C564.824 149.116 565.529 149.26 566.241 149.257C569.213 149.257 569.181 149.257 570.509 151.42C570.988 152.075 571.54 152.675 572.154 153.207C572.502 153.584 572.944 153.96 573.292 154.367C573.348 154.541 573.348 154.727 573.292 154.9C572.786 155.089 572.091 155.465 571.711 155.277C570.99 154.958 570.208 154.793 569.419 154.793C568.629 154.793 567.847 154.958 567.126 155.277C562.857 156.594 567.664 157.848 566.936 159.29C566.209 160.732 566.399 161.265 564.375 161.673C564.09 161.673 563.774 161.673 563.489 161.673L561.908 162.206C562.225 162.488 562.509 162.99 562.857 163.052C564.289 163.073 565.701 163.393 566.999 163.993C568.02 164.518 569.154 164.792 570.304 164.792C571.454 164.792 572.587 164.518 573.608 163.993C574.336 163.679 575.284 163.052 575.443 164.15C575.695 166.188 578.13 166.846 578.763 168.508C578.959 168.975 579.061 169.476 579.061 169.981C579.061 170.487 578.959 170.988 578.763 171.455C578.162 172.584 576.929 172.208 575.79 171.706C574.794 171.244 573.724 170.958 572.628 170.859C570.604 170.859 570.573 169.48 570.004 168.351C569.845 168.038 569.213 167.881 568.739 167.661C568.075 165.592 566.146 166.219 564.565 166.344C563.711 166.344 563.711 166.815 564.09 167.348C564.567 167.926 564.883 168.618 565.007 169.354C565.007 170.232 564.185 170.514 563.363 170.828C562.541 171.142 561.149 171.079 562.604 172.113C563.575 172.635 564.578 173.096 565.608 173.493C566.588 173.995 567.316 175.719 566.778 176.064C566.084 176.464 565.324 176.74 564.533 176.879C561.655 177.444 561.371 177.538 561.371 179.607C561.276 180.356 561.276 181.115 561.371 181.864C561.371 182.303 562.098 183.056 562.319 183.024C566.177 182.335 566.746 185.595 568.644 187.069C568.723 187.179 568.827 187.269 568.948 187.331C569.069 187.392 569.203 187.425 569.339 187.425C569.476 187.425 569.61 187.392 569.731 187.331C569.852 187.269 569.956 187.179 570.035 187.069C571.268 185.564 572.09 188.48 573.482 187.257C574.873 186.034 575.664 187.916 576.644 188.354C577.624 188.793 578.099 189.076 578.794 189.421C579.111 190.612 580.375 190.675 581.292 191.176C582.209 191.678 582.083 192.462 582.178 193.152C582.273 193.841 581.387 193.998 580.945 193.998C578.336 194.4 575.674 194.305 573.102 193.716C570.04 192.745 566.828 192.32 563.616 192.462C561.879 192.591 560.139 192.244 558.588 191.458C558.588 191.458 557.987 191.458 557.956 191.678C557.924 191.897 557.513 192.713 557.734 193.089C558.119 193.813 558.672 194.436 559.347 194.907C560.802 195.911 560.485 196.726 559.568 198.043C558.651 199.359 559.568 199.987 561.023 200.3C561.549 200.487 562.048 200.74 562.509 201.053C562.087 201.375 561.603 201.61 561.086 201.742C559.347 201.93 557.703 201.742 557.386 204.031C557.386 205.034 555.426 205.85 554.477 206.822C553.529 207.794 552.706 207.198 551.568 206.822C548.871 205.994 546.111 205.386 543.315 205.003C542.208 204.846 539.077 204.094 541.069 207.041C541.069 207.041 540.5 207.825 540.121 207.856C538.951 207.856 537.781 207.856 536.579 207.856C536.073 207.856 535.156 208.201 535.156 208.421C535.156 209.33 536.073 209.236 536.801 209.487C537.528 209.737 537.718 210.678 536.801 210.803C535.884 210.929 534.239 211.399 533.986 212.308C533.164 215.256 530.033 215.695 527.662 217.043C526.966 217.482 526.176 217.764 525.448 218.171C524.721 218.579 524.658 219.3 526.397 220.429C528.136 221.558 526.397 221.401 525.796 221.683C525.195 221.965 523.741 221.683 524.784 223.031C525.353 223.69 525.606 224.254 524.784 224.944C524.044 225.633 523.119 226.094 522.12 226.272C521.121 226.45 520.091 226.337 519.156 225.947C518.112 225.54 517.29 224.724 516.658 226.417C516.174 227.364 515.456 228.173 514.57 228.769C511.408 231.214 511.408 231.183 513.559 233.629C513.938 234.036 514.349 234.381 514.697 234.789C514.834 235.017 514.909 235.277 514.914 235.543C514.92 235.808 514.856 236.071 514.728 236.305C514.601 236.538 514.414 236.735 514.187 236.876C513.96 237.017 513.7 237.097 513.432 237.109C511.724 237.109 509.701 237.736 508.341 236.67C506.444 235.196 504.863 237.893 503.661 236.921C501.036 234.726 497.336 236.262 494.554 234.569C493.068 233.691 490.569 234.224 488.546 233.974C486.522 233.723 485.067 232.218 482.79 232.469C480.514 232.719 478.553 232.124 476.624 232.469C474.695 232.813 472.513 230.87 470.3 231.873C469.699 232.155 469.383 232.061 469.067 231.403C468.75 230.744 468.403 229.71 467.802 229.521C466.474 229.145 464.893 229.521 463.659 228.581C462.426 227.64 460.244 228.111 458.568 227.734C456.892 227.358 455.975 226.7 454.584 226.386C453.488 226.19 452.358 226.414 451.422 227.013C450.454 227.65 449.329 228.01 448.168 228.054C447.008 228.098 445.858 227.825 444.844 227.264C442.789 225.916 440.101 226.982 438.33 225.257C437.413 224.317 436.148 224.881 435.168 225.571C434.188 226.261 433.966 226.135 433.871 225.571C433.207 221.683 429.824 221.558 426.535 221.714C424.29 221.714 422.804 220.335 420.748 220.241C418.693 220.147 416.037 220.241 413.697 220.241C412.622 220.241 412.116 218.485 410.756 219.363C409.932 219.952 408.942 220.269 407.926 220.269C406.91 220.269 405.92 219.952 405.096 219.363C404.647 219.007 404.089 218.813 403.514 218.813C402.94 218.813 402.382 219.007 401.933 219.363C400.695 220.145 399.201 220.426 397.759 220.147C396.656 220.147 395.57 219.878 394.597 219.363C393.206 218.454 392.257 220.805 390.834 219.363C389.411 217.921 389 220.115 387.925 220.084C387.609 220.084 387.198 220.084 387.04 220.084C384.952 218.234 381.79 219.363 379.703 218.266C376.963 217.27 374.048 216.833 371.134 216.98C370.858 216.913 370.607 216.772 370.407 216.572C368.098 214.848 365.347 215.695 362.786 215.601C360.161 217.45 356.777 217.137 353.773 217.921C344.034 220.554 337.962 222.31 331.037 221.714C329.266 221.558 327.496 221.714 325.725 221.714C324.319 221.892 322.933 222.197 321.582 222.624C316.776 223.345 312.096 225.351 307.131 224.818C304.773 224.662 302.406 224.662 300.048 224.818C297.442 224.649 294.831 225.045 292.395 225.979C290.116 226.498 287.766 226.647 285.439 226.417C284.591 226.49 283.771 226.747 283.035 227.17C280.853 228.393 278.324 227.358 276.173 228.016C274.023 228.675 271.493 229.96 269.09 230.838C268.208 230.949 267.316 230.949 266.434 230.838C265.268 230.726 264.092 230.811 262.955 231.089C260.742 232.155 258.94 233.347 257.738 230.086C257.358 229.051 255.493 229.302 254.576 229.584C252.747 230.41 250.767 230.858 248.757 230.901C245.597 230.75 242.494 231.779 240.061 233.785C238.354 235.008 236.899 236.231 234.844 234.475C231.301 235.584 227.561 235.937 223.871 235.51C221.859 235.341 219.85 235.861 218.179 236.983C215.649 236.388 213.562 239.021 211.855 238.3C210.147 237.579 208.534 238.551 207.459 237.924C205.435 236.733 204.518 238.896 202.779 238.614C201.04 238.332 198.637 238.614 196.455 238.614C194.743 238.643 193.071 239.13 191.617 240.025C189.688 240.934 187.474 238.583 186.178 239.398C184.881 240.213 183.015 237.924 181.719 239.617C181.466 239.931 179.853 239.178 178.968 239.304C177.845 239.509 176.772 239.924 175.806 240.526C174.225 241.592 173.371 241.561 173.086 239.648C172.962 239.412 172.782 239.209 172.562 239.057C172.342 238.904 172.088 238.806 171.821 238.771C168.912 238.771 165.718 237.861 163.189 239.21C161.386 240.182 159.267 237.893 158.034 240.056H151.71H144.627H111.866C110.115 240.15 108.359 240.002 106.649 239.617C104.467 239.021 102.475 237.861 100.324 237.14C98.1741 236.419 96.1503 238.959 93.6521 238.457C93.0636 238.394 92.4699 238.394 91.8813 238.457C85.3672 238.457 78.8848 238.457 72.4023 238.457C71.836 238.388 71.2824 238.241 70.758 238.018C71.195 237.387 71.7044 236.808 72.2758 236.294C74.0466 234.977 77.1139 236.294 78.6002 234.099C78.6002 233.942 79.7702 234.099 80.2129 234.318C84.6399 236.639 89.4149 235.134 94.0316 235.228C95.2965 235.228 96.6246 234.193 97.8895 233.629C98.6168 233.315 98.5852 232.814 97.8895 232.625C95.6444 232.186 93.7154 229.866 91.3438 231.12C88.6377 232.201 85.7118 232.631 82.8059 232.374C80.1885 232.19 77.558 232.38 74.9953 232.939C72.4943 233.687 69.8915 234.047 67.2795 234.005C65.7933 234.005 64.3387 234.005 62.8841 234.224C61.9987 234.224 62.2517 234.695 62.3782 235.259C62.7576 236.952 62.0303 237.579 60.7022 236.795C59.254 235.871 57.5536 235.411 55.8325 235.479C53.1762 235.479 50.52 235.479 47.8637 235.479C46.9783 235.479 46.0929 235.479 45.2075 235.479C44.9545 235.479 44.7332 235.165 44.5118 235.04C44.8051 234.743 45.1224 234.47 45.4605 234.224C45.6819 234.224 46.0613 234.224 46.3459 234.224C47.1681 234.036 47.9586 233.785 48.7808 233.566C48.1167 232.813 47.6424 231.81 46.7886 231.34C45.3168 230.484 43.715 229.87 42.0453 229.521C39.7686 229.145 40.8121 225.916 37.9029 226.167C37.144 226.167 37.0491 225.539 37.7448 225.226C37.9974 225.104 38.2624 225.01 38.5353 224.944C40.5591 224.63 40.4326 223.282 40.401 221.997C40.3694 220.711 39.2942 220.303 38.0293 220.335C36.0046 220.512 33.976 220.039 32.2425 218.987C31.1686 218.609 29.9962 218.609 28.9222 218.987C27.5271 219.247 26.2087 219.815 25.0644 220.648C23.1671 222.341 21.9022 219.708 20.3844 220.335C18.8665 220.962 17.8862 222.247 16.4949 221.244C15.4924 220.435 14.764 219.341 14.4078 218.109C14.1475 217.34 13.6948 216.649 13.092 216.101C12.4892 215.552 11.7561 215.165 10.9611 214.973C10.3286 214.973 10.8346 213.124 11.8465 213.218ZM58.7417 57.956C59.1158 57.6492 59.5449 57.4152 60.0065 57.2662C59.5895 57.4289 59.2043 57.6623 58.8681 57.956H58.7417ZM72.6869 71.0617C75.8491 70.9049 79.3591 71.8455 82.3315 69.8389C82.5921 69.9262 82.8375 70.0531 83.0589 70.2151C82.8315 70.0543 82.5877 69.9178 82.3315 69.8076C79.4856 71.8455 76.0704 70.9049 72.8134 71.0617H72.6869ZM473.81 117.59C473.62 117.59 473.462 117.872 473.272 118.029C473.525 117.778 473.778 117.59 473.968 117.59H473.81ZM470.648 117.59C470.648 117.59 470.901 117.904 470.869 117.998C470.837 118.092 470.711 117.747 470.648 117.59C470.584 117.433 470.237 117.59 470.11 117.59C469.984 117.59 470.584 117.778 470.774 117.778L470.648 117.59Z" fill="url(#paint1_linear_60_3273)"/>
<path d="M559.039 120.22C558.812 120.376 558.553 120.483 558.281 120.533C556.795 120.533 554.866 121.064 553.949 120.533C551.332 119.263 548.41 118.733 545.507 119.002C544.653 119.002 543.484 119.189 542.946 118.814C540.195 116.721 536.622 118.44 533.714 117.065C530.656 116.084 527.43 115.723 524.228 116.003C522.545 115.816 520.908 115.34 519.391 114.597C517.091 113.384 514.501 112.812 511.898 112.941C509.324 113.131 506.749 112.601 504.467 111.411C500.074 109.307 495.248 108.238 490.366 108.286C489.513 108.317 488.661 108.222 487.837 108.005C487.173 107.849 487.204 107.38 487.837 106.881C489.323 105.537 486.635 104.912 487.078 103.757C489.11 103.647 491.147 103.647 493.18 103.757C495.14 104.006 497.006 104.819 498.966 105.1C500.926 105.381 503.108 105.1 505.131 105.381C506.206 105.381 507.566 106.787 508.293 106.506C509.444 106.102 510.676 105.977 511.886 106.14C513.096 106.303 514.249 106.75 515.249 107.443C516.556 108.099 518.03 108.359 519.486 108.193C523.438 107.599 526.726 109.911 530.489 109.942C532.186 111.074 534.248 111.541 536.275 111.254C540.864 111.393 545.4 112.258 549.712 113.816C552.468 114.322 555.022 115.589 557.079 117.471C557.663 118.054 558.286 118.597 558.945 119.096C559.45 119.564 559.545 119.908 559.039 120.22Z" fill="url(#paint2_linear_60_3273)"/>
<path d="M469.625 102.287C469.91 102.287 470.321 102.787 470.668 103.068C470.447 103.068 470.194 103.474 469.973 103.474H442.054C441.833 103.474 441.549 103.193 441.422 103.006C441.296 102.818 441.643 102.537 441.802 102.506C444.015 102.069 445.659 100.475 448.125 100.632C451.635 100.85 455.144 100.632 458.622 100.632C462.1 100.632 465.736 102.881 469.625 102.287Z" fill="url(#paint3_linear_60_3273)"/>
<path d="M51.1978 134.279H51.3886H51.2295C51.2295 134.279 51.1978 134.342 51.1978 134.279Z" fill="url(#paint4_linear_60_3273)"/>
<path d="M43.1037 135.84C40.7324 135.84 39.9419 137.746 38.1397 138.621C37.6095 138.791 37.0525 138.865 36.4956 138.839C35.6103 138.839 36.0213 138.215 36.6537 137.121C38.3926 134.153 42.3132 134.934 44.7794 133.341C46.3727 132.659 48.1443 132.495 49.8382 132.872C50.0209 132.877 50.201 132.916 50.3682 132.989C50.5355 133.062 50.6865 133.166 50.8128 133.297C50.939 133.428 51.038 133.581 51.1041 133.75C51.1701 133.918 51.202 134.098 51.1978 134.278C48.2257 133.747 45.886 135.747 43.1037 135.84Z" fill="url(#paint5_linear_60_3273)"/>
<path d="M502.792 74.3275H503.108V74.5774H502.887L502.792 74.3275Z" fill="url(#paint6_linear_60_3273)"/>
<path d="M498.112 73.7358C497.054 72.8113 495.815 72.1123 494.471 71.6822C493.127 71.2522 491.708 71.1005 490.303 71.2366C490.116 71.2507 489.929 71.2248 489.754 71.1606C489.579 71.0965 489.42 70.9958 489.287 70.8652C489.155 70.7346 489.053 70.5774 488.988 70.4042C488.923 70.2311 488.897 70.0461 488.911 69.862C490.866 69.6438 492.838 69.6438 494.792 69.862C497.954 70.5181 501.369 71.2679 502.792 74.3607C501.179 74.3607 499.377 74.8605 498.112 73.7358Z" fill="url(#paint7_linear_60_3273)"/>
<path d="M30.6471 234.559C32.3751 235.59 34.3909 236.05 36.4015 235.871C38.114 235.892 39.8239 236.007 41.5235 236.215C41.7133 236.215 41.8397 236.527 42.0294 236.684C42.2191 236.84 41.5551 237.09 41.3022 237.09C38.1404 237.09 34.9787 237.277 31.8169 237.09C31.0011 236.961 30.236 236.615 29.6037 236.09C29.1677 235.779 28.8106 235.373 28.5603 234.903C28.3706 234.559 29.9831 234.028 30.6471 234.559Z" fill="url(#paint8_linear_60_3273)"/>
<path d="M0.483448 202.696C0.673154 202.227 2.41211 202.009 2.69667 202.415C3.42387 203.477 4.05619 204.57 4.68854 205.539V206.039C3.88108 206.25 3.05544 206.386 2.22238 206.445C1.9343 206.494 1.63858 206.478 1.35822 206.395C1.07786 206.313 0.820454 206.168 0.606183 205.972C0.391912 205.775 0.226582 205.532 0.123013 205.262C0.0194448 204.992 -0.0195429 204.702 0.00915598 204.414C0.125683 203.831 0.284202 203.257 0.483448 202.696Z" fill="url(#paint9_linear_60_3273)"/>
<path d="M502.76 241.464C503.392 241.089 504.119 240.465 504.625 241.464C504.721 241.705 504.721 241.973 504.625 242.214C504.478 242.595 504.203 242.914 503.847 243.119C503.49 243.324 503.073 243.401 502.665 243.339C501.242 243.339 499.788 243.339 498.365 243.058C498.112 243.058 497.986 242.339 497.796 241.902C499.408 241.777 501.211 242.433 502.76 241.464Z" fill="url(#paint10_linear_60_3273)"/>
<path d="M511.961 100.633H511.771C511.771 100.633 511.771 100.633 511.771 100.477H511.993C511.993 100.477 511.961 100.57 511.961 100.633Z" fill="url(#paint11_linear_60_3273)"/>
<path d="M519.233 100.696C519.588 100.695 519.929 100.833 520.183 101.078C520.437 101.323 520.584 101.657 520.593 102.008C518.158 102.008 515.692 102.008 513.257 102.008C513.082 102.008 512.908 101.973 512.746 101.905C512.585 101.836 512.439 101.736 512.318 101.611C512.196 101.485 512.102 101.336 512.041 101.174C511.98 101.011 511.952 100.838 511.961 100.664C514.396 100.633 516.83 100.571 519.233 100.696Z" fill="url(#paint12_linear_60_3273)"/>
<path d="M164.895 8.19369C164.224 8.15107 163.576 7.93153 163.02 7.55793C162.464 7.18432 162.02 6.67027 161.733 6.06931C161.733 6.06931 162.523 5.35081 162.776 5.41329C164.041 5.78818 165.242 6.31922 166.476 6.78783C166.482 6.98786 166.444 7.18691 166.365 7.37102C166.285 7.55512 166.166 7.71988 166.016 7.85376C165.865 7.98764 165.687 8.0874 165.493 8.14612C165.3 8.20483 165.095 8.22108 164.895 8.19369Z" fill="url(#paint13_linear_60_3273)"/>
<path d="M166.349 6.78757H166.603V7.00627L166.349 6.78757Z" fill="url(#paint14_linear_60_3273)"/>
<path d="M493.433 240.589C494.824 240.589 496.216 240.589 497.607 240.589C497.607 241.089 497.607 241.557 497.607 242.026C497.35 242.06 497.097 242.112 496.848 242.182C496.121 242.495 495.362 243.182 494.761 243.088C494.16 242.994 493.465 242.151 492.864 241.62C492.263 241.089 492.643 240.651 493.433 240.589Z" fill="url(#paint15_linear_60_3273)"/>
<path d="M570.2 178.235C569.991 178.414 569.742 178.543 569.473 178.61C569.11 178.313 568.818 177.939 568.619 177.516C568.523 177.011 568.523 176.491 568.619 175.986C568.619 174.58 568.935 174.517 570.674 175.361C571.116 175.565 571.57 175.742 572.034 175.892C572.034 177.048 570.927 177.548 570.2 178.235Z" fill="url(#paint16_linear_60_3273)"/>
<path d="M105.485 1.81919C105.218 1.73443 104.97 1.59624 104.758 1.4131C104.957 1.22169 105.194 1.07281 105.454 0.975734C105.985 0.811052 106.541 0.737075 107.098 0.757028C107.91 0.910409 108.712 1.10858 109.501 1.3506L107.509 2.06912C106.529 1.94416 106.023 1.94415 105.485 1.81919Z" fill="url(#paint17_linear_60_3273)"/>
<path d="M24.1021 87.263C24.1479 87.3946 24.1479 87.5376 24.1021 87.6692C23.5962 87.8566 23.0587 87.9815 22.2367 88.2002C21.4146 88.4189 20.8455 87.919 20.0234 87.7003C20.0234 87.7003 20.0234 87.3568 20.0234 87.263C20.6565 86.9497 21.3548 86.7865 22.0628 86.7865C22.7708 86.7865 23.4691 86.9497 24.1021 87.263Z" fill="url(#paint18_linear_60_3273)"/>
<path d="M442.909 40.6831H442.655C442.655 40.6831 442.655 40.6831 442.655 40.4957H442.845C442.845 40.4957 442.909 40.6206 442.909 40.6831Z" fill="url(#paint19_linear_60_3273)"/>
<path d="M447.461 41.6184C447.461 41.6184 447.05 42.0558 446.829 42.0245C445.374 42.0245 443.414 42.6806 442.908 40.6812C444.236 40.6812 445.564 40.6812 446.892 40.6812C447.113 40.7749 447.366 41.306 447.461 41.6184Z" fill="url(#paint20_linear_60_3273)"/>
<path d="M407.781 224.127C407.974 224.016 408.191 223.952 408.413 223.939C408.627 224.291 408.817 224.656 408.983 225.033C408.983 226.095 408.413 226.439 407.56 226.501C407.05 226.458 406.55 226.342 406.074 226.157C406.156 225.755 406.317 225.373 406.548 225.033C406.92 224.682 407.334 224.378 407.781 224.127Z" fill="url(#paint21_linear_60_3273)"/>
<path d="M167.551 240.62C168.172 240.582 168.795 240.582 169.416 240.62C169.615 240.586 169.818 240.586 170.017 240.62C170.523 240.808 170.965 241.057 171.44 241.276C171.06 241.526 170.681 241.932 170.27 241.995C169.442 242.119 168.6 242.119 167.772 241.995C167.424 241.995 167.171 241.432 166.918 241.089C167.076 240.873 167.297 240.709 167.551 240.62Z" fill="url(#paint22_linear_60_3273)"/>
<path d="M51.0087 100.415C50.641 100.193 50.292 99.9427 49.9653 99.6653C50.1867 99.5091 50.3764 99.2279 50.5977 99.2279C51.6727 99.2279 52.7161 99.2279 53.7594 99.2279C53.9808 99.2279 54.1704 99.5404 54.3918 99.6653C54.0756 99.9465 53.8227 100.353 53.4433 100.446C52.8981 100.525 52.3443 100.525 51.7992 100.446C51.5778 100.446 51.23 100.54 51.0087 100.415Z" fill="url(#paint23_linear_60_3273)"/>
<path d="M578.326 180.202C578.137 180.046 577.789 179.89 577.757 179.702C577.584 178.785 577.489 177.855 577.473 176.922C577.473 176.734 578.137 176.516 578.548 176.297C578.969 176.746 579.229 177.321 579.286 177.931C579.343 178.541 579.195 179.153 578.864 179.671C578.769 179.89 578.516 180.046 578.326 180.202Z" fill="url(#paint24_linear_60_3273)"/>
<path d="M395.988 8.34772C395.387 8.19152 394.597 8.00412 393.806 7.75419C393.806 7.75419 393.806 7.37931 393.806 7.31683C394.42 6.97753 395.111 6.79933 395.814 6.79933C396.517 6.79933 397.208 6.97753 397.822 7.31683C397.822 7.31683 397.822 7.75418 397.822 7.78542C397.822 7.81666 396.778 8.0978 395.988 8.34772Z" fill="url(#paint25_linear_60_3273)"/>
<path d="M482.272 103.069C482.24 103 482.224 102.926 482.224 102.85C482.224 102.775 482.24 102.7 482.272 102.632C483.053 102.448 483.845 102.313 484.643 102.226C485.813 102.226 486.73 102.413 486.888 103.569C485.528 103.569 484.169 103.569 482.841 103.569C482.778 103.475 482.461 103.225 482.272 103.069Z" fill="url(#paint26_linear_60_3273)"/>
<path d="M585.914 189.043C585.693 189.2 585.535 189.45 585.282 189.543C585.044 189.659 584.783 189.718 584.518 189.716C584.253 189.715 583.993 189.653 583.757 189.534C583.521 189.416 583.316 189.245 583.158 189.036C583 188.826 582.894 188.582 582.847 188.325L583.48 187.013L585.914 189.043Z" fill="url(#paint27_linear_60_3273)"/>
<path d="M447.556 231.281C448.757 231.281 449.579 231.593 449.737 232.686H445.753C445.498 232.599 445.277 232.435 445.121 232.218C445.121 232.218 445.121 231.812 445.121 231.78C445.922 231.565 446.735 231.398 447.556 231.281Z" fill="url(#paint28_linear_60_3273)"/>
<path d="M431.873 225.815C431.191 226.066 430.494 226.274 429.786 226.439C429.628 226.439 429.375 225.908 429.186 225.596L430.577 225.159L431.873 225.815Z" fill="url(#paint29_linear_60_3273)"/>
<path d="M27.4851 229.811C28.2358 229.972 28.9751 230.18 29.6983 230.436L28.4336 231.186L26.916 230.717C27.2322 230.373 27.4851 229.811 27.4851 229.811Z" fill="url(#paint30_linear_60_3273)"/>
<path d="M66.5959 237.56C67.3932 237.638 68.1851 237.764 68.9673 237.935C68.5066 238.273 67.9943 238.537 67.4496 238.716C66.9565 238.676 66.4747 238.549 66.0269 238.341C66.2166 238.06 66.4379 237.529 66.5959 237.56Z" fill="url(#paint31_linear_60_3273)"/>
<path d="M334.586 8.22458H334.808C334.791 8.27531 334.791 8.33006 334.808 8.38079C334.808 8.38079 334.586 8.28706 334.586 8.22458Z" fill="url(#paint32_linear_60_3273)"/>
<path d="M331.836 7.25479C332.025 7.08827 332.253 6.97026 332.5 6.91114C333.733 6.75494 334.46 7.16106 334.587 8.22324C333.84 8.28614 333.089 8.28614 332.342 8.22324C332.121 8.09827 331.931 7.56719 331.836 7.25479Z" fill="url(#paint33_linear_60_3273)"/>
<path d="M426.784 48.4287C427.306 48.5385 427.807 48.7283 428.27 48.9911L426.847 49.6471L425.329 49.0536C425.867 48.8349 426.278 48.4287 426.784 48.4287Z" fill="url(#paint34_linear_60_3273)"/>
<path d="M40.1316 65.0498C39.8787 65.0498 39.4677 64.7687 39.4993 64.7062C39.5309 64.6437 39.7522 63.8315 39.9735 63.8002C40.721 63.753 41.4709 63.753 42.2184 63.8002C42.1552 64.7791 41.4596 65.1956 40.1316 65.0498Z" fill="url(#paint35_linear_60_3273)"/>
<path d="M17.3356 75.8584C16.893 75.8584 16.5136 75.4522 16.1025 75.2335C16.5452 75.0148 16.9562 74.6087 17.3989 74.5775C17.8415 74.5463 18.7268 74.7962 18.7585 74.9836C18.8849 75.8584 17.9996 75.9208 17.3356 75.8584Z" fill="url(#paint36_linear_60_3273)"/>
<path d="M29.4453 85.7322C29.635 86.6694 28.7497 86.6381 28.0857 86.5756C27.6198 86.4474 27.1732 86.2583 26.7578 86.0133C27.1471 85.7129 27.5855 85.4804 28.0541 85.326C28.5284 85.2948 29.382 85.5135 29.4453 85.7322Z" fill="url(#paint37_linear_60_3273)"/>
<path d="M36.5274 89.7928C36.3061 89.7928 36.1163 89.2618 36.0215 88.9494C36.2026 88.7712 36.4341 88.6513 36.6855 88.6057C37.8553 88.4495 38.6774 88.7619 38.8038 89.8865C38.0437 89.9184 37.2822 89.8871 36.5274 89.7928Z" fill="url(#paint38_linear_60_3273)"/>
<path d="M423.938 92.9153C424.633 93.0715 424.791 93.5089 424.412 93.8213C424.235 94.011 424.003 94.1419 423.748 94.1962C422.515 94.1962 421.756 93.9463 421.629 92.8529C422.399 92.8112 423.171 92.832 423.938 92.9153Z" fill="url(#paint39_linear_60_3273)"/>
<path d="M421.63 92.9175H421.408C421.408 92.9175 421.408 92.9176 421.408 92.7614L421.63 92.9175Z" fill="url(#paint40_linear_60_3273)"/>
<path d="M574.216 161.333C573.868 160.708 573.584 160.052 574.406 159.521C574.406 159.521 574.785 159.521 574.975 159.521C575.165 159.521 575.512 160.333 575.481 160.739C575.449 161.145 575.007 161.489 574.754 161.895C574.557 161.725 574.377 161.536 574.216 161.333Z" fill="url(#paint41_linear_60_3273)"/>
<path d="M571.307 159.303C571.592 159.709 572.066 160.084 572.066 160.49C572.066 160.896 571.623 161.302 571.371 161.708L570.58 160.584L571.307 159.303Z" fill="url(#paint42_linear_60_3273)"/>
<path d="M34.536 163.864C34.7769 163.991 35.0001 164.148 35.2 164.332C35.0006 164.526 34.7775 164.694 34.536 164.832C33.7772 165.113 32.9551 165.363 32.3228 164.614C32.3228 164.614 32.3228 164.301 32.3228 164.239C32.9235 163.333 33.8088 163.614 34.536 163.864Z" fill="url(#paint43_linear_60_3273)"/>
<path d="M567.892 170.798C567.513 170.611 566.944 170.392 566.881 170.111C566.628 169.018 567.197 168.393 568.461 168.299C568.461 168.955 568.461 169.642 568.461 170.33C568.43 170.486 568.145 170.83 567.892 170.798Z" fill="url(#paint44_linear_60_3273)"/>
<path d="M575.544 177.267C575.544 177.705 575.544 178.423 575.101 178.548C573.9 179.017 573.931 178.111 573.868 177.486C573.821 177.029 573.821 176.568 573.868 176.111C574.785 175.986 575.449 176.361 575.544 177.267Z" fill="url(#paint45_linear_60_3273)"/>
<path d="M490.176 241.433L489.607 241.652L489.006 241.246L489.575 240.777L490.176 241.433Z" fill="url(#paint46_linear_60_3273)"/>
<path d="M111.999 1.16225C112.157 1.16225 112.378 0.94357 112.504 0.974811C112.722 1.06967 112.925 1.196 113.105 1.34968L111.999 1.59961V1.16225Z" fill="url(#paint47_linear_60_3273)"/>
<path d="M259.463 3.50746C258.799 3.25754 258.704 2.88263 259.147 2.60146C259.589 2.3203 259.526 2.60146 259.716 2.60146C259.906 2.60146 260 2.91387 259.969 3.03883C259.937 3.16379 259.558 3.5387 259.463 3.50746Z" fill="url(#paint48_linear_60_3273)"/>
<path d="M340.942 4.9733C340.752 4.9733 340.531 4.69214 340.31 4.53594C340.088 4.37973 340.689 4.00481 340.879 4.00481C341.068 4.00481 341.321 4.286 341.543 4.47344C341.764 4.66088 341.163 4.94206 340.942 4.9733Z" fill="url(#paint49_linear_60_3273)"/>
<path d="M166.603 6.63014C166.667 6.26368 166.843 5.92557 167.108 5.66169C167.583 5.38053 168.025 5.66169 167.709 6.19278C167.393 6.72386 167.014 6.50518 166.603 6.63014Z" fill="url(#paint50_linear_60_3273)"/>
<path d="M101.786 20.3435C101.596 20.3435 101.375 20.0624 101.154 19.9062L101.755 19.3438L102.387 19.8437C102.197 20.0311 102.007 20.3435 101.786 20.3435Z" fill="url(#paint51_linear_60_3273)"/>
<path d="M445.785 24.6549C445.468 24.8803 445.098 25.0203 444.71 25.0611C444.71 24.7174 444.931 24.3113 445.216 24.1238C445.5 23.9364 446.133 24.1863 445.785 24.6549Z" fill="url(#paint52_linear_60_3273)"/>
<path d="M35.9579 63.1454C35.7999 62.3644 36.369 62.3019 36.9381 62.2394C36.8228 62.5558 36.6745 62.8595 36.4955 63.1454C36.4955 63.1454 35.9579 63.1767 35.9579 63.1454Z" fill="url(#paint53_linear_60_3273)"/>
<path d="M36.9702 62.0186L37.1606 62.2061H36.9702V62.0186Z" fill="url(#paint54_linear_60_3273)"/>
<path d="M487.615 68.798C487.793 68.7657 487.975 68.7657 488.153 68.798C488.346 69.1076 488.515 69.4313 488.659 69.7664C488.058 69.6727 487.457 69.6102 487.615 68.798Z" fill="url(#paint55_linear_60_3273)"/>
<path d="M484.391 69.5178C484.201 69.5178 483.979 69.2678 483.758 69.1116C483.537 68.9554 484.138 68.6118 484.359 68.6118C484.58 68.6118 484.801 68.8929 485.023 69.0491C485.244 69.2053 484.612 69.4865 484.391 69.5178Z" fill="url(#paint56_linear_60_3273)"/>
<path d="M36.243 70.1421C37.1283 70.3608 37.1599 70.7357 36.243 71.0481C36.243 71.0481 35.8319 70.7669 35.6422 70.6107C35.4525 70.4545 36.1165 70.1108 36.243 70.1421Z" fill="url(#paint57_linear_60_3273)"/>
<path d="M503.108 74.5778C503.479 74.6906 503.839 74.837 504.183 75.0151V75.4525C503.266 75.5462 503.171 75.0776 503.108 74.5778Z" fill="url(#paint58_linear_60_3273)"/>
<path d="M462.542 78.2654C462.542 78.2654 462.89 77.9529 463.112 77.7655C463.333 77.5781 463.744 78.1092 463.744 78.1716C463.428 78.8589 462.954 78.8902 462.542 78.2654Z" fill="url(#paint59_linear_60_3273)"/>
<path d="M501.306 91.1977V91.4163H501.147L501.306 91.1977Z" fill="url(#paint60_linear_60_3273)"/>
<path d="M502.412 90.2932C502.412 90.2932 502.412 90.7306 502.412 90.7618L501.242 91.1992C501.369 90.6369 501.495 90.137 502.412 90.2932Z" fill="url(#paint61_linear_60_3273)"/>
<path d="M455.46 95.1671C455.46 95.1671 455.808 94.8234 455.998 94.6672C456.187 94.511 456.662 95.0109 456.63 95.0734C456.345 95.7919 455.871 95.8231 455.46 95.1671Z" fill="url(#paint62_linear_60_3273)"/>
<path d="M41.2067 96.9477C41.0486 96.1043 41.681 96.073 42.2817 96.0417C42.1383 96.3768 41.9692 96.7006 41.7759 97.0102C41.7759 97.0102 41.2067 97.0102 41.2067 96.9477Z" fill="url(#paint63_linear_60_3273)"/>
<path d="M521.952 103.132C521.952 103.132 521.414 103.132 521.383 103.132C521.351 103.132 521.035 102.476 520.877 102.164C521.509 102.289 522.11 102.289 521.952 103.132Z" fill="url(#paint64_linear_60_3273)"/>
<path d="M53.9489 117.909C53.9489 117.909 54.3283 118.19 54.5496 118.347L53.9489 118.784L53.3481 118.378C53.5378 118.128 53.7276 117.909 53.9489 117.909Z" fill="url(#paint65_linear_60_3273)"/>
<path d="M564.099 121.814C564.099 121.814 563.719 121.502 563.498 121.346C563.277 121.189 563.941 120.783 564.036 120.814C564.984 121.033 564.984 121.47 564.099 121.814Z" fill="url(#paint66_linear_60_3273)"/>
<path d="M569.41 124.845C569.41 124.845 568.999 124.564 568.809 124.439C568.619 124.314 569.252 123.907 569.378 123.939C570.264 124.157 570.264 124.532 569.41 124.845Z" fill="url(#paint67_linear_60_3273)"/>
<path d="M37.2552 151.462H37.0332V151.243H37.2235C37.2479 151.314 37.2587 151.388 37.2552 151.462Z" fill="url(#paint68_linear_60_3273)"/>
<path d="M38.3299 152.275C37.3497 152.275 37.3181 151.869 37.2549 151.338C37.6445 151.456 38.0249 151.602 38.3931 151.775C38.3931 151.775 38.3615 152.275 38.3299 152.275Z" fill="url(#paint69_linear_60_3273)"/>
<path d="M573.236 174.797C573.489 174.797 573.615 175.421 573.742 175.828H572.161C572.224 175.234 572.287 174.609 573.236 174.797Z" fill="url(#paint70_linear_60_3273)"/>
<path d="M573.742 175.829H573.901C573.901 175.829 573.774 175.86 573.742 175.829Z" fill="url(#paint71_linear_60_3273)"/>
<path d="M580.444 189.168C580.098 189.414 579.697 189.575 579.274 189.636C579.433 189.261 579.527 188.793 579.812 188.605C580.097 188.418 580.792 188.73 580.444 189.168Z" fill="url(#paint72_linear_60_3273)"/>
<path d="M17.9995 191.793C18.1576 191.793 18.3473 191.605 18.5054 191.793C18.7196 191.877 18.9135 192.005 19.0745 192.168L17.9995 192.386V191.793Z" fill="url(#paint73_linear_60_3273)"/>
<path d="M6.11131 193.135C6.33263 193.135 6.55393 193.416 6.77525 193.572C6.99657 193.728 6.39583 194.01 6.17451 194.041C5.95319 194.072 5.73189 193.791 5.51057 193.635C5.28924 193.478 5.88999 193.135 6.11131 193.135Z" fill="url(#paint74_linear_60_3273)"/>
<path d="M8.51456 213.441L7.66087 213.972L7.34473 213.472L7.91382 212.941L8.51456 213.441Z" fill="url(#paint75_linear_60_3273)"/>
<path d="M532.196 222.314C532.386 222.314 532.607 222.595 532.829 222.751C533.05 222.907 532.449 223.189 532.26 223.22C532.07 223.251 531.849 222.97 531.627 222.814C531.406 222.658 532.007 222.345 532.196 222.314Z" fill="url(#paint76_linear_60_3273)"/>
<path d="M386.914 222.22C387.135 222.376 387.578 222.595 387.546 222.688C387.261 223.438 386.787 223.469 386.376 222.688C386.313 222.657 386.724 222.407 386.914 222.22Z" fill="url(#paint77_linear_60_3273)"/>
<path d="M426.53 225.813C426.53 226 426.182 226.281 425.992 226.281C425.803 226.281 425.581 226.031 425.392 225.875L425.929 225.344L426.53 225.813Z" fill="url(#paint78_linear_60_3273)"/>
<path d="M411.986 225.5C411.986 225.5 412.271 225.813 412.239 225.907C412.208 226 411.86 226.375 411.796 226.344C411.164 226.125 411.069 225.813 411.48 225.532C411.645 225.488 411.817 225.477 411.986 225.5Z" fill="url(#paint79_linear_60_3273)"/>
<path d="M403.323 226.031L402.817 226.249L402.248 225.843L402.753 225.406L403.323 226.031Z" fill="url(#paint80_linear_60_3273)"/>
<path d="M310.778 228.439C311 228.595 311.442 228.814 311.411 228.908C311.095 229.626 310.62 229.657 310.241 228.908C310.178 228.876 310.589 228.626 310.778 228.439Z" fill="url(#paint81_linear_60_3273)"/>
<path d="M440.094 229.905C440.315 230.093 440.758 230.312 440.726 230.374C440.41 231.124 439.936 231.155 439.525 230.374C439.493 230.374 439.904 230.093 440.094 229.905Z" fill="url(#paint82_linear_60_3273)"/>
<path d="M34.5671 230.126C34.7764 230.205 34.9693 230.321 35.1362 230.469L34.0928 230.751V230.313C34.2192 230.376 34.409 230.095 34.5671 230.126Z" fill="url(#paint83_linear_60_3273)"/>
<path d="M256.175 231.656C256.175 231.656 256.459 231.937 256.396 232.031C256.333 232.124 256.048 232.499 255.954 232.468C255.29 232.249 255.195 231.937 255.637 231.656C256.08 231.375 255.985 231.656 256.175 231.656Z" fill="url(#paint84_linear_60_3273)"/>
<path d="M461.72 233.719C461.414 233.967 461.04 234.119 460.646 234.156C460.646 233.812 460.867 233.406 461.12 233.25C461.373 233.094 462.037 233.5 461.72 233.719Z" fill="url(#paint85_linear_60_3273)"/>
<path d="M460.647 234.155V234.405H460.393C460.376 234.354 460.376 234.299 460.393 234.248L460.647 234.155Z" fill="url(#paint86_linear_60_3273)"/>
<path d="M454.512 233.219C454.777 233.482 454.953 233.821 455.018 234.187C454.606 234.187 454.101 233.968 453.911 233.718C453.721 233.469 454.069 232.969 454.512 233.219Z" fill="url(#paint87_linear_60_3273)"/>
<path d="M451.16 233.812C451.16 233.812 450.591 233.812 450.559 233.812C450.372 233.467 450.203 233.113 450.053 232.75C450.686 232.875 451.16 232.937 451.16 233.812Z" fill="url(#paint88_linear_60_3273)"/>
<path d="M450.022 232.841H449.769C449.769 232.841 449.769 232.841 449.769 232.685H449.959L450.022 232.841Z" fill="url(#paint89_linear_60_3273)"/>
<path d="M460.329 234.405L459.792 235.436H459.222C459.064 234.499 459.665 234.436 460.329 234.405Z" fill="url(#paint90_linear_60_3273)"/>
<path d="M456.472 235.342C456.472 235.342 455.903 235.498 455.871 235.342C455.668 235.011 455.488 234.667 455.334 234.311C455.966 234.404 456.63 234.467 456.472 235.342Z" fill="url(#paint91_linear_60_3273)"/>
<path d="M455.335 234.404H455.081V234.216H455.303L455.335 234.404Z" fill="url(#paint92_linear_60_3273)"/>
<path d="M497.86 240.371V240.558H497.701L497.86 240.371Z" fill="url(#paint93_linear_60_3273)"/>
<path d="M498.934 239.436C498.934 240.279 498.46 240.342 497.859 240.373C498.009 240.03 498.178 239.697 498.365 239.373C498.557 239.361 498.75 239.382 498.934 239.436Z" fill="url(#paint94_linear_60_3273)"/>
<defs>
<linearGradient id="paint0_linear_60_3273" x1="37.0813" y1="62.0186" x2="37.0813" y2="62.2061" gradientUnits="userSpaceOnUse">
<stop stop-color="white"/>
<stop offset="1" stop-color="white" stop-opacity="0.43"/>
</linearGradient>
<linearGradient id="paint1_linear_60_3273" x1="296.434" y1="3.76923" x2="296.434" y2="241.231" gradientUnits="userSpaceOnUse">
<stop stop-color="white" stop-opacity="0.8"/>
<stop offset="1" stop-color="white" stop-opacity="0.3"/>
</linearGradient>
<linearGradient id="paint2_linear_60_3273" x1="523.201" y1="103.674" x2="523.201" y2="120.769" gradientUnits="userSpaceOnUse">
<stop stop-color="white"/>
<stop offset="1" stop-color="white" stop-opacity="0.43"/>
</linearGradient>
<linearGradient id="paint3_linear_60_3273" x1="456.032" y1="100.621" x2="456.032" y2="103.474" gradientUnits="userSpaceOnUse">
<stop stop-color="white"/>
<stop offset="1" stop-color="white" stop-opacity="0.43"/>
</linearGradient>
<linearGradient id="paint4_linear_60_3273" x1="51.2932" y1="134.279" x2="51.2932" y2="134.307" gradientUnits="userSpaceOnUse">
<stop stop-color="white"/>
<stop offset="1" stop-color="white" stop-opacity="0.43"/>
</linearGradient>
<linearGradient id="paint5_linear_60_3273" x1="43.5922" y1="132.674" x2="43.5922" y2="138.844" gradientUnits="userSpaceOnUse">
<stop stop-color="white"/>
<stop offset="1" stop-color="white" stop-opacity="0.43"/>
</linearGradient>
<linearGradient id="paint6_linear_60_3273" x1="502.95" y1="74.3275" x2="502.95" y2="74.5774" gradientUnits="userSpaceOnUse">
<stop stop-color="white"/>
<stop offset="1" stop-color="white" stop-opacity="0.43"/>
</linearGradient>
<linearGradient id="paint7_linear_60_3273" x1="495.85" y1="69.6984" x2="495.85" y2="74.4714" gradientUnits="userSpaceOnUse">
<stop stop-color="white"/>
<stop offset="1" stop-color="white" stop-opacity="0.43"/>
</linearGradient>
<linearGradient id="paint8_linear_60_3273" x1="35.304" y1="234.334" x2="35.304" y2="237.173" gradientUnits="userSpaceOnUse">
<stop stop-color="white"/>
<stop offset="1" stop-color="white" stop-opacity="0.43"/>
</linearGradient>
<linearGradient id="paint9_linear_60_3273" x1="2.34427" y1="202.202" x2="2.34427" y2="206.473" gradientUnits="userSpaceOnUse">
<stop stop-color="white"/>
<stop offset="1" stop-color="white" stop-opacity="0.43"/>
</linearGradient>
<linearGradient id="paint10_linear_60_3273" x1="501.246" y1="240.925" x2="501.246" y2="243.36" gradientUnits="userSpaceOnUse">
<stop stop-color="white"/>
<stop offset="1" stop-color="white" stop-opacity="0.43"/>
</linearGradient>
<linearGradient id="paint11_linear_60_3273" x1="511.882" y1="100.477" x2="511.882" y2="100.633" gradientUnits="userSpaceOnUse">
<stop stop-color="white"/>
<stop offset="1" stop-color="white" stop-opacity="0.43"/>
</linearGradient>
<linearGradient id="paint12_linear_60_3273" x1="516.276" y1="100.621" x2="516.276" y2="102.008" gradientUnits="userSpaceOnUse">
<stop stop-color="white"/>
<stop offset="1" stop-color="white" stop-opacity="0.43"/>
</linearGradient>
<linearGradient id="paint13_linear_60_3273" x1="164.105" y1="5.40944" x2="164.105" y2="8.20662" gradientUnits="userSpaceOnUse">
<stop stop-color="white"/>
<stop offset="1" stop-color="white" stop-opacity="0.43"/>
</linearGradient>
<linearGradient id="paint14_linear_60_3273" x1="166.476" y1="6.78757" x2="166.476" y2="7.00627" gradientUnits="userSpaceOnUse">
<stop stop-color="white"/>
<stop offset="1" stop-color="white" stop-opacity="0.43"/>
</linearGradient>
<linearGradient id="paint15_linear_60_3273" x1="495.088" y1="240.589" x2="495.088" y2="243.097" gradientUnits="userSpaceOnUse">
<stop stop-color="white"/>
<stop offset="1" stop-color="white" stop-opacity="0.43"/>
</linearGradient>
<linearGradient id="paint16_linear_60_3273" x1="570.291" y1="174.81" x2="570.291" y2="178.61" gradientUnits="userSpaceOnUse">
<stop stop-color="white"/>
<stop offset="1" stop-color="white" stop-opacity="0.43"/>
</linearGradient>
<linearGradient id="paint17_linear_60_3273" x1="107.13" y1="0.753845" x2="107.13" y2="2.06912" gradientUnits="userSpaceOnUse">
<stop stop-color="white"/>
<stop offset="1" stop-color="white" stop-opacity="0.43"/>
</linearGradient>
<linearGradient id="paint18_linear_60_3273" x1="22.0799" y1="86.7865" x2="22.0799" y2="88.2544" gradientUnits="userSpaceOnUse">
<stop stop-color="white"/>
<stop offset="1" stop-color="white" stop-opacity="0.43"/>
</linearGradient>
<linearGradient id="paint19_linear_60_3273" x1="442.782" y1="40.4957" x2="442.782" y2="40.6831" gradientUnits="userSpaceOnUse">
<stop stop-color="white"/>
<stop offset="1" stop-color="white" stop-opacity="0.43"/>
</linearGradient>
<linearGradient id="paint20_linear_60_3273" x1="445.185" y1="40.6812" x2="445.185" y2="42.1275" gradientUnits="userSpaceOnUse">
<stop stop-color="white"/>
<stop offset="1" stop-color="white" stop-opacity="0.43"/>
</linearGradient>
<linearGradient id="paint21_linear_60_3273" x1="407.528" y1="223.939" x2="407.528" y2="226.501" gradientUnits="userSpaceOnUse">
<stop stop-color="white"/>
<stop offset="1" stop-color="white" stop-opacity="0.43"/>
</linearGradient>
<linearGradient id="paint22_linear_60_3273" x1="169.179" y1="240.592" x2="169.179" y2="242.088" gradientUnits="userSpaceOnUse">
<stop stop-color="white"/>
<stop offset="1" stop-color="white" stop-opacity="0.43"/>
</linearGradient>
<linearGradient id="paint23_linear_60_3273" x1="52.1786" y1="99.2279" x2="52.1786" y2="100.505" gradientUnits="userSpaceOnUse">
<stop stop-color="white"/>
<stop offset="1" stop-color="white" stop-opacity="0.43"/>
</linearGradient>
<linearGradient id="paint24_linear_60_3273" x1="578.385" y1="176.297" x2="578.385" y2="180.202" gradientUnits="userSpaceOnUse">
<stop stop-color="white"/>
<stop offset="1" stop-color="white" stop-opacity="0.43"/>
</linearGradient>
<linearGradient id="paint25_linear_60_3273" x1="395.814" y1="6.79933" x2="395.814" y2="8.34772" gradientUnits="userSpaceOnUse">
<stop stop-color="white"/>
<stop offset="1" stop-color="white" stop-opacity="0.43"/>
</linearGradient>
<linearGradient id="paint26_linear_60_3273" x1="484.556" y1="102.226" x2="484.556" y2="103.569" gradientUnits="userSpaceOnUse">
<stop stop-color="white"/>
<stop offset="1" stop-color="white" stop-opacity="0.43"/>
</linearGradient>
<linearGradient id="paint27_linear_60_3273" x1="584.381" y1="187.013" x2="584.381" y2="189.716" gradientUnits="userSpaceOnUse">
<stop stop-color="white"/>
<stop offset="1" stop-color="white" stop-opacity="0.43"/>
</linearGradient>
<linearGradient id="paint28_linear_60_3273" x1="447.429" y1="231.281" x2="447.429" y2="232.686" gradientUnits="userSpaceOnUse">
<stop stop-color="white"/>
<stop offset="1" stop-color="white" stop-opacity="0.43"/>
</linearGradient>
<linearGradient id="paint29_linear_60_3273" x1="430.529" y1="225.159" x2="430.529" y2="226.439" gradientUnits="userSpaceOnUse">
<stop stop-color="white"/>
<stop offset="1" stop-color="white" stop-opacity="0.43"/>
</linearGradient>
<linearGradient id="paint30_linear_60_3273" x1="28.3072" y1="229.811" x2="28.3072" y2="231.186" gradientUnits="userSpaceOnUse">
<stop stop-color="white"/>
<stop offset="1" stop-color="white" stop-opacity="0.43"/>
</linearGradient>
<linearGradient id="paint31_linear_60_3273" x1="67.4971" y1="237.559" x2="67.4971" y2="238.716" gradientUnits="userSpaceOnUse">
<stop stop-color="white"/>
<stop offset="1" stop-color="white" stop-opacity="0.43"/>
</linearGradient>
<linearGradient id="paint32_linear_60_3273" x1="334.697" y1="8.22458" x2="334.697" y2="8.38079" gradientUnits="userSpaceOnUse">
<stop stop-color="white"/>
<stop offset="1" stop-color="white" stop-opacity="0.43"/>
</linearGradient>
<linearGradient id="paint33_linear_60_3273" x1="333.211" y1="6.87885" x2="333.211" y2="8.27041" gradientUnits="userSpaceOnUse">
<stop stop-color="white"/>
<stop offset="1" stop-color="white" stop-opacity="0.43"/>
</linearGradient>
<linearGradient id="paint34_linear_60_3273" x1="426.799" y1="48.4287" x2="426.799" y2="49.6471" gradientUnits="userSpaceOnUse">
<stop stop-color="white"/>
<stop offset="1" stop-color="white" stop-opacity="0.43"/>
</linearGradient>
<linearGradient id="paint35_linear_60_3273" x1="40.858" y1="63.7648" x2="40.858" y2="65.0782" gradientUnits="userSpaceOnUse">
<stop stop-color="white"/>
<stop offset="1" stop-color="white" stop-opacity="0.43"/>
</linearGradient>
<linearGradient id="paint36_linear_60_3273" x1="17.4366" y1="74.5748" x2="17.4366" y2="75.876" gradientUnits="userSpaceOnUse">
<stop stop-color="white"/>
<stop offset="1" stop-color="white" stop-opacity="0.43"/>
</linearGradient>
<linearGradient id="paint37_linear_60_3273" x1="28.1146" y1="85.323" x2="28.1146" y2="86.6024" gradientUnits="userSpaceOnUse">
<stop stop-color="white"/>
<stop offset="1" stop-color="white" stop-opacity="0.43"/>
</linearGradient>
<linearGradient id="paint38_linear_60_3273" x1="37.4127" y1="88.5681" x2="37.4127" y2="89.8986" gradientUnits="userSpaceOnUse">
<stop stop-color="white"/>
<stop offset="1" stop-color="white" stop-opacity="0.43"/>
</linearGradient>
<linearGradient id="paint39_linear_60_3273" x1="423.121" y1="92.832" x2="423.121" y2="94.1962" gradientUnits="userSpaceOnUse">
<stop stop-color="white"/>
<stop offset="1" stop-color="white" stop-opacity="0.43"/>
</linearGradient>
<linearGradient id="paint40_linear_60_3273" x1="421.519" y1="92.7614" x2="421.519" y2="92.9175" gradientUnits="userSpaceOnUse">
<stop stop-color="white"/>
<stop offset="1" stop-color="white" stop-opacity="0.43"/>
</linearGradient>
<linearGradient id="paint41_linear_60_3273" x1="574.677" y1="159.521" x2="574.677" y2="161.895" gradientUnits="userSpaceOnUse">
<stop stop-color="white"/>
<stop offset="1" stop-color="white" stop-opacity="0.43"/>
</linearGradient>
<linearGradient id="paint42_linear_60_3273" x1="571.323" y1="159.303" x2="571.323" y2="161.708" gradientUnits="userSpaceOnUse">
<stop stop-color="white"/>
<stop offset="1" stop-color="white" stop-opacity="0.43"/>
</linearGradient>
<linearGradient id="paint43_linear_60_3273" x1="33.7614" y1="163.617" x2="33.7614" y2="165.11" gradientUnits="userSpaceOnUse">
<stop stop-color="white"/>
<stop offset="1" stop-color="white" stop-opacity="0.43"/>
</linearGradient>
<linearGradient id="paint44_linear_60_3273" x1="567.642" y1="168.299" x2="567.642" y2="170.8" gradientUnits="userSpaceOnUse">
<stop stop-color="white"/>
<stop offset="1" stop-color="white" stop-opacity="0.43"/>
</linearGradient>
<linearGradient id="paint45_linear_60_3273" x1="574.688" y1="176.088" x2="574.688" y2="178.678" gradientUnits="userSpaceOnUse">
<stop stop-color="white"/>
<stop offset="1" stop-color="white" stop-opacity="0.43"/>
</linearGradient>
<linearGradient id="paint46_linear_60_3273" x1="489.591" y1="240.777" x2="489.591" y2="241.652" gradientUnits="userSpaceOnUse">
<stop stop-color="white"/>
<stop offset="1" stop-color="white" stop-opacity="0.43"/>
</linearGradient>
<linearGradient id="paint47_linear_60_3273" x1="112.552" y1="0.971756" x2="112.552" y2="1.59961" gradientUnits="userSpaceOnUse">
<stop stop-color="white"/>
<stop offset="1" stop-color="white" stop-opacity="0.43"/>
</linearGradient>
<linearGradient id="paint48_linear_60_3273" x1="259.425" y1="2.4765" x2="259.425" y2="3.50931" gradientUnits="userSpaceOnUse">
<stop stop-color="white"/>
<stop offset="1" stop-color="white" stop-opacity="0.43"/>
</linearGradient>
<linearGradient id="paint49_linear_60_3273" x1="340.926" y1="4.00481" x2="340.926" y2="4.9733" gradientUnits="userSpaceOnUse">
<stop stop-color="white"/>
<stop offset="1" stop-color="white" stop-opacity="0.43"/>
</linearGradient>
<linearGradient id="paint50_linear_60_3273" x1="167.209" y1="5.55078" x2="167.209" y2="6.63014" gradientUnits="userSpaceOnUse">
<stop stop-color="white"/>
<stop offset="1" stop-color="white" stop-opacity="0.43"/>
</linearGradient>
<linearGradient id="paint51_linear_60_3273" x1="101.77" y1="19.3438" x2="101.77" y2="20.3435" gradientUnits="userSpaceOnUse">
<stop stop-color="white"/>
<stop offset="1" stop-color="white" stop-opacity="0.43"/>
</linearGradient>
<linearGradient id="paint52_linear_60_3273" x1="445.298" y1="24.0612" x2="445.298" y2="25.0611" gradientUnits="userSpaceOnUse">
<stop stop-color="white"/>
<stop offset="1" stop-color="white" stop-opacity="0.43"/>
</linearGradient>
<linearGradient id="paint53_linear_60_3273" x1="36.4346" y1="62.2394" x2="36.4346" y2="63.1593" gradientUnits="userSpaceOnUse">
<stop stop-color="white"/>
<stop offset="1" stop-color="white" stop-opacity="0.43"/>
</linearGradient>
<linearGradient id="paint54_linear_60_3273" x1="37.0654" y1="62.0186" x2="37.0654" y2="62.2061" gradientUnits="userSpaceOnUse">
<stop stop-color="white"/>
<stop offset="1" stop-color="white" stop-opacity="0.43"/>
</linearGradient>
<linearGradient id="paint55_linear_60_3273" x1="488.124" y1="68.7737" x2="488.124" y2="69.7664" gradientUnits="userSpaceOnUse">
<stop stop-color="white"/>
<stop offset="1" stop-color="white" stop-opacity="0.43"/>
</linearGradient>
<linearGradient id="paint56_linear_60_3273" x1="484.39" y1="68.6118" x2="484.39" y2="69.5178" gradientUnits="userSpaceOnUse">
<stop stop-color="white"/>
<stop offset="1" stop-color="white" stop-opacity="0.43"/>
</linearGradient>
<linearGradient id="paint57_linear_60_3273" x1="36.2636" y1="70.1401" x2="36.2636" y2="71.0481" gradientUnits="userSpaceOnUse">
<stop stop-color="white"/>
<stop offset="1" stop-color="white" stop-opacity="0.43"/>
</linearGradient>
<linearGradient id="paint58_linear_60_3273" x1="503.645" y1="74.5778" x2="503.645" y2="75.4645" gradientUnits="userSpaceOnUse">
<stop stop-color="white"/>
<stop offset="1" stop-color="white" stop-opacity="0.43"/>
</linearGradient>
<linearGradient id="paint59_linear_60_3273" x1="463.143" y1="77.7256" x2="463.143" y2="78.7117" gradientUnits="userSpaceOnUse">
<stop stop-color="white"/>
<stop offset="1" stop-color="white" stop-opacity="0.43"/>
</linearGradient>
<linearGradient id="paint60_linear_60_3273" x1="501.227" y1="91.1977" x2="501.227" y2="91.4163" gradientUnits="userSpaceOnUse">
<stop stop-color="white"/>
<stop offset="1" stop-color="white" stop-opacity="0.43"/>
</linearGradient>
<linearGradient id="paint61_linear_60_3273" x1="501.827" y1="90.2643" x2="501.827" y2="91.1992" gradientUnits="userSpaceOnUse">
<stop stop-color="white"/>
<stop offset="1" stop-color="white" stop-opacity="0.43"/>
</linearGradient>
<linearGradient id="paint62_linear_60_3273" x1="456.046" y1="94.6371" x2="456.046" y2="95.6368" gradientUnits="userSpaceOnUse">
<stop stop-color="white"/>
<stop offset="1" stop-color="white" stop-opacity="0.43"/>
</linearGradient>
<linearGradient id="paint63_linear_60_3273" x1="41.7319" y1="96.0417" x2="41.7319" y2="97.0102" gradientUnits="userSpaceOnUse">
<stop stop-color="white"/>
<stop offset="1" stop-color="white" stop-opacity="0.43"/>
</linearGradient>
<linearGradient id="paint64_linear_60_3273" x1="521.427" y1="102.164" x2="521.427" y2="103.132" gradientUnits="userSpaceOnUse">
<stop stop-color="white"/>
<stop offset="1" stop-color="white" stop-opacity="0.43"/>
</linearGradient>
<linearGradient id="paint65_linear_60_3273" x1="53.9489" y1="117.909" x2="53.9489" y2="118.784" gradientUnits="userSpaceOnUse">
<stop stop-color="white"/>
<stop offset="1" stop-color="white" stop-opacity="0.43"/>
</linearGradient>
<linearGradient id="paint66_linear_60_3273" x1="564.104" y1="120.813" x2="564.104" y2="121.814" gradientUnits="userSpaceOnUse">
<stop stop-color="white"/>
<stop offset="1" stop-color="white" stop-opacity="0.43"/>
</linearGradient>
<linearGradient id="paint67_linear_60_3273" x1="569.41" y1="123.937" x2="569.41" y2="124.845" gradientUnits="userSpaceOnUse">
<stop stop-color="white"/>
<stop offset="1" stop-color="white" stop-opacity="0.43"/>
</linearGradient>
<linearGradient id="paint68_linear_60_3273" x1="37.1445" y1="151.243" x2="37.1445" y2="151.462" gradientUnits="userSpaceOnUse">
<stop stop-color="white"/>
<stop offset="1" stop-color="white" stop-opacity="0.43"/>
</linearGradient>
<linearGradient id="paint69_linear_60_3273" x1="37.824" y1="151.338" x2="37.824" y2="152.275" gradientUnits="userSpaceOnUse">
<stop stop-color="white"/>
<stop offset="1" stop-color="white" stop-opacity="0.43"/>
</linearGradient>
<linearGradient id="paint70_linear_60_3273" x1="572.951" y1="174.763" x2="572.951" y2="175.828" gradientUnits="userSpaceOnUse">
<stop stop-color="white"/>
<stop offset="1" stop-color="white" stop-opacity="0.43"/>
</linearGradient>
<linearGradient id="paint71_linear_60_3273" x1="573.821" y1="175.829" x2="573.821" y2="175.843" gradientUnits="userSpaceOnUse">
<stop stop-color="white"/>
<stop offset="1" stop-color="white" stop-opacity="0.43"/>
</linearGradient>
<linearGradient id="paint72_linear_60_3273" x1="579.907" y1="188.55" x2="579.907" y2="189.636" gradientUnits="userSpaceOnUse">
<stop stop-color="white"/>
<stop offset="1" stop-color="white" stop-opacity="0.43"/>
</linearGradient>
<linearGradient id="paint73_linear_60_3273" x1="18.537" y1="191.71" x2="18.537" y2="192.386" gradientUnits="userSpaceOnUse">
<stop stop-color="white"/>
<stop offset="1" stop-color="white" stop-opacity="0.43"/>
</linearGradient>
<linearGradient id="paint74_linear_60_3273" x1="6.14291" y1="193.135" x2="6.14291" y2="194.043" gradientUnits="userSpaceOnUse">
<stop stop-color="white"/>
<stop offset="1" stop-color="white" stop-opacity="0.43"/>
</linearGradient>
<linearGradient id="paint75_linear_60_3273" x1="7.92964" y1="212.941" x2="7.92964" y2="213.972" gradientUnits="userSpaceOnUse">
<stop stop-color="white"/>
<stop offset="1" stop-color="white" stop-opacity="0.43"/>
</linearGradient>
<linearGradient id="paint76_linear_60_3273" x1="532.228" y1="222.314" x2="532.228" y2="223.222" gradientUnits="userSpaceOnUse">
<stop stop-color="white"/>
<stop offset="1" stop-color="white" stop-opacity="0.43"/>
</linearGradient>
<linearGradient id="paint77_linear_60_3273" x1="386.959" y1="222.22" x2="386.959" y2="223.262" gradientUnits="userSpaceOnUse">
<stop stop-color="white"/>
<stop offset="1" stop-color="white" stop-opacity="0.43"/>
</linearGradient>
<linearGradient id="paint78_linear_60_3273" x1="425.961" y1="225.344" x2="425.961" y2="226.281" gradientUnits="userSpaceOnUse">
<stop stop-color="white"/>
<stop offset="1" stop-color="white" stop-opacity="0.43"/>
</linearGradient>
<linearGradient id="paint79_linear_60_3273" x1="411.737" y1="225.488" x2="411.737" y2="226.346" gradientUnits="userSpaceOnUse">
<stop stop-color="white"/>
<stop offset="1" stop-color="white" stop-opacity="0.43"/>
</linearGradient>
<linearGradient id="paint80_linear_60_3273" x1="402.785" y1="225.406" x2="402.785" y2="226.249" gradientUnits="userSpaceOnUse">
<stop stop-color="white"/>
<stop offset="1" stop-color="white" stop-opacity="0.43"/>
</linearGradient>
<linearGradient id="paint81_linear_60_3273" x1="310.823" y1="228.439" x2="310.823" y2="229.458" gradientUnits="userSpaceOnUse">
<stop stop-color="white"/>
<stop offset="1" stop-color="white" stop-opacity="0.43"/>
</linearGradient>
<linearGradient id="paint82_linear_60_3273" x1="440.125" y1="229.905" x2="440.125" y2="230.948" gradientUnits="userSpaceOnUse">
<stop stop-color="white"/>
<stop offset="1" stop-color="white" stop-opacity="0.43"/>
</linearGradient>
<linearGradient id="paint83_linear_60_3273" x1="34.6145" y1="230.123" x2="34.6145" y2="230.751" gradientUnits="userSpaceOnUse">
<stop stop-color="white"/>
<stop offset="1" stop-color="white" stop-opacity="0.43"/>
</linearGradient>
<linearGradient id="paint84_linear_60_3273" x1="255.886" y1="231.531" x2="255.886" y2="232.47" gradientUnits="userSpaceOnUse">
<stop stop-color="white"/>
<stop offset="1" stop-color="white" stop-opacity="0.43"/>
</linearGradient>
<linearGradient id="paint85_linear_60_3273" x1="461.225" y1="233.215" x2="461.225" y2="234.156" gradientUnits="userSpaceOnUse">
<stop stop-color="white"/>
<stop offset="1" stop-color="white" stop-opacity="0.43"/>
</linearGradient>
<linearGradient id="paint86_linear_60_3273" x1="460.514" y1="234.155" x2="460.514" y2="234.405" gradientUnits="userSpaceOnUse">
<stop stop-color="white"/>
<stop offset="1" stop-color="white" stop-opacity="0.43"/>
</linearGradient>
<linearGradient id="paint87_linear_60_3273" x1="454.438" y1="233.15" x2="454.438" y2="234.187" gradientUnits="userSpaceOnUse">
<stop stop-color="white"/>
<stop offset="1" stop-color="white" stop-opacity="0.43"/>
</linearGradient>
<linearGradient id="paint88_linear_60_3273" x1="450.607" y1="232.75" x2="450.607" y2="233.812" gradientUnits="userSpaceOnUse">
<stop stop-color="white"/>
<stop offset="1" stop-color="white" stop-opacity="0.43"/>
</linearGradient>
<linearGradient id="paint89_linear_60_3273" x1="449.895" y1="232.685" x2="449.895" y2="232.841" gradientUnits="userSpaceOnUse">
<stop stop-color="white"/>
<stop offset="1" stop-color="white" stop-opacity="0.43"/>
</linearGradient>
<linearGradient id="paint90_linear_60_3273" x1="459.763" y1="234.405" x2="459.763" y2="235.436" gradientUnits="userSpaceOnUse">
<stop stop-color="white"/>
<stop offset="1" stop-color="white" stop-opacity="0.43"/>
</linearGradient>
<linearGradient id="paint91_linear_60_3273" x1="455.915" y1="234.311" x2="455.915" y2="235.411" gradientUnits="userSpaceOnUse">
<stop stop-color="white"/>
<stop offset="1" stop-color="white" stop-opacity="0.43"/>
</linearGradient>
<linearGradient id="paint92_linear_60_3273" x1="455.208" y1="234.216" x2="455.208" y2="234.404" gradientUnits="userSpaceOnUse">
<stop stop-color="white"/>
<stop offset="1" stop-color="white" stop-opacity="0.43"/>
</linearGradient>
<linearGradient id="paint93_linear_60_3273" x1="497.78" y1="240.371" x2="497.78" y2="240.558" gradientUnits="userSpaceOnUse">
<stop stop-color="white"/>
<stop offset="1" stop-color="white" stop-opacity="0.43"/>
</linearGradient>
<linearGradient id="paint94_linear_60_3273" x1="498.397" y1="239.37" x2="498.397" y2="240.373" gradientUnits="userSpaceOnUse">
<stop stop-color="white"/>
<stop offset="1" stop-color="white" stop-opacity="0.43"/>
</linearGradient>
</defs>
</svg>
