<?xml version="1.0" encoding="utf-8"?>
<!-- Generator: Adobe Illustrator 24.1.2, SVG Export Plug-In . SVG Version: 6.00 Build 0)  -->
<svg version="1.1" id="Слой_1" xmlns="http://www.w3.org/2000/svg" xmlns:xlink="http://www.w3.org/1999/xlink" x="0px" y="0px"
	 viewBox="0 0 24 24" style="enable-background:new 0 0 24 24;" xml:space="preserve">
<style type="text/css">
	.st0{fill:#E50E78;}
</style>
<path class="st0" d="M11.8,11.5c1.2,0,2.2-0.4,3-1.3c0.8-0.8,1.3-1.8,1.3-3s-0.4-2.2-1.3-3C14,3.4,13,3,11.8,3s-2.2,0.4-3,1.3
	C8,5.1,7.5,6.1,7.5,7.3s0.4,2.2,1.3,3C9.6,11.1,10.6,11.5,11.8,11.5z M19.2,16.6c0-0.3-0.1-0.7-0.1-1.1c-0.1-0.4-0.2-0.8-0.3-1.1
	c-0.1-0.4-0.3-0.7-0.5-1c-0.2-0.4-0.4-0.7-0.7-0.9c-0.3-0.3-0.6-0.5-1-0.6c-0.4-0.2-0.8-0.2-1.3-0.2c-0.2,0-0.4,0.1-0.7,0.3
	c-0.2,0.2-0.5,0.3-0.7,0.5c-0.2,0.1-0.5,0.3-0.9,0.4c-0.4,0.1-0.8,0.2-1.1,0.2c-0.4,0-0.8-0.1-1.1-0.2c-0.4-0.1-0.7-0.3-0.9-0.4
	c-0.3-0.2-0.5-0.3-0.7-0.5c-0.3-0.2-0.5-0.3-0.7-0.3c-0.5,0-0.9,0.1-1.3,0.2c-0.4,0.2-0.7,0.4-1,0.6c-0.3,0.3-0.5,0.6-0.7,0.9
	c-0.2,0.3-0.3,0.7-0.5,1c-0.1,0.3-0.2,0.7-0.3,1.1c-0.1,0.4-0.1,0.8-0.1,1.1c0,0.3,0,0.7,0,1c0,0.9,0.3,1.7,0.9,2.2s1.3,0.8,2.3,0.8
	h8.5c0.9,0,1.7-0.3,2.3-0.8c0.6-0.6,0.9-1.3,0.9-2.2C19.3,17.3,19.3,17,19.2,16.6z"/>
</svg>
