<?xml version="1.0" encoding="utf-8"?>
<!-- Generator: Adobe Illustrator 24.1.2, SVG Export Plug-In . SVG Version: 6.00 Build 0)  -->
<svg version="1.1" id="Слой_1" xmlns="http://www.w3.org/2000/svg" xmlns:xlink="http://www.w3.org/1999/xlink" x="0px" y="0px"
	 viewBox="0 0 24 24" style="enable-background:new 0 0 24 24;" xml:space="preserve">
<style type="text/css">
	.st0{fill:#E50E78;}
</style>
<path class="st0" d="M3,4.8C3,4.4,3.4,4,3.8,4h1.5C6,4,6.7,4.4,7,5.1h13.6c0.9,0,1.5,0.8,1.3,1.7l-1.4,5c-0.3,1-1.2,1.8-2.3,1.8H8.6
	l0.2,0.9c0.1,0.4,0.4,0.6,0.8,0.6h9.5c0.4,0,0.8,0.4,0.8,0.8s-0.4,0.8-0.8,0.8H9.6c-1.1,0-2.1-0.8-2.3-1.9l-1.7-9
	c0-0.1-0.1-0.2-0.3-0.2H3.8C3.4,5.6,3,5.2,3,4.8z M7.2,19.3c0-0.2,0-0.4,0.1-0.6s0.2-0.4,0.3-0.5C7.8,18,8,17.9,8.2,17.9
	c0.2-0.1,0.4-0.1,0.6-0.1c0.2,0,0.4,0,0.6,0.1c0.2,0.1,0.4,0.2,0.5,0.3c0.1,0.1,0.3,0.3,0.3,0.5c0.1,0.2,0.1,0.4,0.1,0.6
	s0,0.4-0.1,0.6s-0.2,0.4-0.3,0.5s-0.3,0.3-0.5,0.3c-0.2,0.1-0.4,0.1-0.6,0.1c-0.2,0-0.4,0-0.6-0.1c-0.2-0.1-0.4-0.2-0.5-0.3
	c-0.1-0.1-0.3-0.3-0.3-0.5C7.3,19.7,7.2,19.5,7.2,19.3z M18.3,17.7c0.4,0,0.8,0.2,1.1,0.5c0.3,0.3,0.5,0.7,0.5,1.1s-0.2,0.8-0.5,1.1
	c-0.3,0.3-0.7,0.5-1.1,0.5s-0.8-0.2-1.1-0.5c-0.3-0.3-0.5-0.7-0.5-1.1s0.2-0.8,0.5-1.1S17.9,17.7,18.3,17.7z"/>
</svg>
