<?xml version="1.0" encoding="utf-8"?>
<!-- Generator: Adobe Illustrator 24.1.2, SVG Export Plug-In . SVG Version: 6.00 Build 0)  -->
<svg version="1.1" id="Слой_1" xmlns="http://www.w3.org/2000/svg" xmlns:xlink="http://www.w3.org/1999/xlink" x="0px" y="0px"
	 viewBox="0 0 24 24" style="enable-background:new 0 0 24 24;" xml:space="preserve">
<style type="text/css">
	.st0{fill:#FFFFFF;}
</style>
<path class="st0" d="M3.5,7.5h17c0.4,0,0.8-0.2,1.1-0.4S22,6.4,22,6s-0.2-0.8-0.4-1.1s-0.7-0.4-1.1-0.4h-17c-0.4,0-0.8,0.2-1.1,0.4
	S2,5.6,2,6s0.2,0.8,0.4,1.1S3.1,7.5,3.5,7.5z M20.5,10.5h-17c-0.4,0-0.8,0.2-1.1,0.4C2.2,11.2,2,11.6,2,12s0.2,0.8,0.4,1.1
	c0.3,0.3,0.7,0.4,1.1,0.4h17c0.4,0,0.8-0.2,1.1-0.4c0.3-0.3,0.4-0.7,0.4-1.1s-0.2-0.8-0.4-1.1C21.3,10.7,20.9,10.5,20.5,10.5z
	 M20.5,16.5h-17c-0.4,0-0.8,0.2-1.1,0.4S2,17.6,2,18s0.2,0.8,0.4,1.1s0.7,0.4,1.1,0.4h17c0.4,0,0.8-0.2,1.1-0.4S22,18.4,22,18
	s-0.2-0.8-0.4-1.1S20.9,16.5,20.5,16.5z"/>
</svg>
