<?xml version="1.0" encoding="utf-8"?>
<!-- Generator: Adobe Illustrator 24.1.2, SVG Export Plug-In . SVG Version: 6.00 Build 0)  -->
<svg version="1.1" id="Слой_1" xmlns="http://www.w3.org/2000/svg" xmlns:xlink="http://www.w3.org/1999/xlink" x="0px" y="0px"
	 viewBox="0 0 24 24" style="enable-background:new 0 0 24 24;" xml:space="preserve">
<style type="text/css">
	.st0{fill:#E50E78;}
</style>
<path class="st0" d="M3.9,14l7.1,6.5c0.3,0.3,0.7,0.4,1.1,0.4s0.8-0.2,1.1-0.4l7.1-6.5c1.2-1.1,1.9-2.6,1.9-4.3V9.6
	c0-2.7-2-5-4.7-5.5c-1.8-0.3-3.6,0.3-4.9,1.5L12,6.1l-0.5-0.5c-1.3-1.3-3.1-1.8-4.9-1.5C4,4.5,2,6.8,2,9.6v0.2
	C2,11.4,2.7,12.9,3.9,14z"/>
</svg>
