<?xml version="1.0" encoding="utf-8"?>
<!-- Generator: Adobe Illustrator 24.1.2, SVG Export Plug-In . SVG Version: 6.00 Build 0)  -->
<svg version="1.1" id="Слой_1" xmlns="http://www.w3.org/2000/svg" xmlns:xlink="http://www.w3.org/1999/xlink" x="0px" y="0px"
	 viewBox="0 0 24 24" style="enable-background:new 0 0 24 24;" xml:space="preserve">
<style type="text/css">
	.st0{fill:#FFFFFF;}
</style>
<path class="st0" d="M7.4,6.4c-0.3-0.3-0.8-0.3-1.1,0C5.2,7.5,4.7,9,4.8,10.6c0,0.4,0.4,0.7,0.8,0.7c0,0,0.1,0,0.1,0
	c0.4,0,0.7-0.4,0.7-0.8c-0.1-1.1,0.3-2.2,1-3C7.7,7.2,7.7,6.7,7.4,6.4z"/>
<path class="st0" d="M10.4,1.7c-4.8,0-8.7,3.9-8.7,8.7c0,4.8,3.9,8.7,8.7,8.7c4.8,0,8.7-3.9,8.7-8.7C19.1,5.6,15.2,1.7,10.4,1.7z
	 M10.4,17.6c-4,0-7.2-3.2-7.2-7.2c0-4,3.2-7.2,7.2-7.2c4,0,7.2,3.2,7.2,7.2C17.6,14.4,14.4,17.6,10.4,17.6z"/>
<path class="st0" d="M22.1,21l-5.5-5.5c-0.3-0.3-0.8-0.3-1.1,0c-0.3,0.3-0.3,0.8,0,1.1l5.5,5.5c0.1,0.1,0.2,0.1,0.2,0.2
	c0.1,0,0.2,0.1,0.3,0.1c0.2,0,0.4-0.1,0.5-0.2C22.4,21.8,22.4,21.3,22.1,21z"/>
</svg>
