<?xml version="1.0" encoding="utf-8"?>
<!-- Generator: Adobe Illustrator 24.1.2, SVG Export Plug-In . SVG Version: 6.00 Build 0)  -->
<svg version="1.1" id="Слой_1" xmlns="http://www.w3.org/2000/svg" xmlns:xlink="http://www.w3.org/1999/xlink" x="0px" y="0px"
	 viewBox="0 0 24 24" style="enable-background:new 0 0 24 24;" xml:space="preserve">
<style type="text/css">
	.st0{fill:#E50E78;}
</style>
<path class="st0" d="M21.7,17.2c-0.2,1.3-0.8,2.4-1.8,3.3c-1,0.8-2.2,1.3-3.5,1.3C9.1,21.7,3,15.7,3,8.2C3,7,3.5,5.7,4.3,4.8
	s2-1.6,3.3-1.8c0.3,0,0.6,0,0.9,0.2C8.8,3.4,9,3.6,9.1,3.9l2,4.4l0,0c0.1,0.2,0.1,0.5,0.1,0.7S11.1,9.5,11,9.7c0,0,0,0-0.1,0.1
	l-2,2.3c0.7,1.4,2.2,2.9,3.6,3.6l2.3-1.9c0,0,0,0,0.1-0.1c0.2-0.1,0.4-0.2,0.7-0.2c0.2,0,0.5,0,0.7,0.1l0,0l4.4,2
	c0.3,0.1,0.5,0.3,0.7,0.6C21.7,16.5,21.8,16.8,21.7,17.2z"/>
</svg>
