<svg width="24" height="25" viewBox="0 0 24 25" fill="none" xmlns="http://www.w3.org/2000/svg">
<path d="M7.39423 6.89554C7.09755 6.59862 6.6162 6.59862 6.31952 6.89554C5.21797 7.99709 4.67656 9.53161 4.8339 11.1059C4.87316 11.4981 5.20355 11.7904 5.58939 11.7904C5.61474 11.7904 5.6403 11.7891 5.66565 11.7866C6.08343 11.7448 6.38819 11.3721 6.3464 10.9546C6.23442 9.83585 6.61648 8.748 7.39423 7.97021C7.69115 7.67357 7.69115 7.19219 7.39423 6.89554Z" fill="white"/>
<path d="M10.4041 2.21387C5.61257 2.21387 1.71436 6.11208 1.71436 10.9036C1.71436 15.6952 5.61257 19.5934 10.4041 19.5934C15.1957 19.5934 19.0939 15.6952 19.0939 10.9036C19.0939 6.11208 15.1956 2.21387 10.4041 2.21387ZM10.4041 18.0733C6.45066 18.0733 3.23445 14.8571 3.23445 10.9036C3.23445 6.95017 6.45066 3.73396 10.4041 3.73396C14.3573 3.73396 17.5738 6.95017 17.5738 10.9036C17.5738 14.8571 14.3576 18.0733 10.4041 18.0733Z" fill="white"/>
<path d="M22.063 21.4878L16.5401 15.9649C16.2432 15.668 15.7623 15.668 15.4654 15.9649C15.1684 16.2616 15.1684 16.7429 15.4654 17.0396L20.9883 22.5625C21.0588 22.6332 21.1426 22.6893 21.2348 22.7275C21.327 22.7657 21.4259 22.7853 21.5257 22.7852C21.7203 22.7852 21.9146 22.711 22.063 22.5625C22.3599 22.2658 22.3599 21.7845 22.063 21.4878Z" fill="white"/>
</svg>
